<?xml version="1.0" standalone="no"?>
<!DOCTYPE svg PUBLIC "-//W3C//DTD SVG 1.1//EN" "http://www.w3.org/Graphics/SVG/1.1/DTD/svg11.dtd" >
<svg xmlns="http://www.w3.org/2000/svg">
<metadata>
Created by FontForge 20090914 at Mon Jan 21 11:04:16 2013
 By www-data
Created by Vincent Bianciotto with FontForge 2.0
</metadata>
<defs>
<font id="Easycons" horiz-adv-x="2048" >
  <font-face 
    font-family="Easycons"
    font-weight="400"
    font-stretch="normal"
    units-per-em="2048"
    panose-1="2 0 5 9 0 0 0 0 0 0"
    ascent="1638"
    descent="-410"
    x-height="1606"
    cap-height="1478.01"
    bbox="31 -379.126 2032 1606.4"
    underline-thickness="102"
    underline-position="-204"
    unicode-range="U+0021-U+27F3"
  />
<missing-glyph 
d="M68 0v1365h544v-1365h-544zM136 68h408v1229h-408v-1229z" />
    <glyph glyph-name=".notdef" 
d="M68 0v1365h544v-1365h-544zM136 68h408v1229h-408v-1229z" />
    <glyph glyph-name="exclam" unicode="!" 
d="M1685 1606c12 0 22.167 -4.16699 30.5 -12.5s12.5 -18.5 12.5 -30.5v-1811c0 -37.333 -11.333 -68.333 -34 -93s-54.667 -37 -96 -37h-1148c-40.667 0 -72.5 12.333 -95.5 37s-34.5 55.667 -34.5 93v1811c0 12 4.16699 22.167 12.5 30.5s18.5 12.5 30.5 12.5h1322z
M416 1510v-320h1216v320h-1216zM496.5 1095c-22.333 0 -41.333 -7.83301 -57 -23.5s-23.5 -34.667 -23.5 -57s7.83301 -41.333 23.5 -57s34.667 -23.5 57 -23.5s41.333 7.83301 57 23.5s23.5 34.667 23.5 57s-7.83301 41.333 -23.5 57s-34.667 23.5 -57 23.5zM512 -218
c26.667 0 49.334 9.33301 68.001 28s28 41.334 28 68.001s-9.33301 49.334 -28 68.001s-41.334 28 -68.001 28s-49.334 -9.33301 -68.001 -28s-28 -41.334 -28 -68.001s9.33301 -49.334 28 -68.001s41.334 -28 68.001 -28zM512 70c26.667 0 49.334 9.33301 68.001 28
s28 41.334 28 68.001s-9.33301 49.334 -28 68.001s-41.334 28 -68.001 28s-49.334 -9.33301 -68.001 -28s-28 -41.334 -28 -68.001s9.33301 -49.334 28 -68.001s41.334 -28 68.001 -28zM512 358c26.667 0 49.334 9.33301 68.001 28s28 41.334 28 68.001
s-9.33301 49.334 -28 68.001s-41.334 28 -68.001 28s-49.334 -9.33301 -68.001 -28s-28 -41.334 -28 -68.001s9.33301 -49.334 28 -68.001s41.334 -28 68.001 -28zM512 646c26.667 0 49.334 9.33301 68.001 28s28 41.334 28 68.001s-9.33301 49.334 -28 68.001
s-41.334 28 -68.001 28s-49.334 -9.33301 -68.001 -28s-28 -41.334 -28 -68.001s9.33301 -49.334 28 -68.001s41.334 -28 68.001 -28zM640 1014.5c0 -22.333 7.83301 -41.333 23.5 -57s34.5 -23.5 56.5 -23.5s40.833 7.83301 56.5 23.5s23.5 34.667 23.5 57
s-7.83301 41.333 -23.5 57s-34.5 23.5 -56.5 23.5s-40.833 -7.83301 -56.5 -23.5s-23.5 -34.667 -23.5 -57zM768 -218c26.667 0 49.334 9.33301 68.001 28s28 41.334 28 68.001s-9.33301 49.334 -28 68.001s-41.334 28 -68.001 28s-49.334 -9.33301 -68.001 -28
s-28 -41.334 -28 -68.001s9.33301 -49.334 28 -68.001s41.334 -28 68.001 -28zM768 70c26.667 0 49.334 9.33301 68.001 28s28 41.334 28 68.001s-9.33301 49.334 -28 68.001s-41.334 28 -68.001 28s-49.334 -9.33301 -68.001 -28s-28 -41.334 -28 -68.001
s9.33301 -49.334 28 -68.001s41.334 -28 68.001 -28zM768 358c26.667 0 49.334 9.33301 68.001 28s28 41.334 28 68.001s-9.33301 49.334 -28 68.001s-41.334 28 -68.001 28s-49.334 -9.33301 -68.001 -28s-28 -41.334 -28 -68.001s9.33301 -49.334 28 -68.001
s41.334 -28 68.001 -28zM768 646c26.667 0 49.334 9.33301 68.001 28s28 41.334 28 68.001s-9.33301 49.334 -28 68.001s-41.334 28 -68.001 28s-49.334 -9.33301 -68.001 -28s-28 -41.334 -28 -68.001s9.33301 -49.334 28 -68.001s41.334 -28 68.001 -28zM1024 -218
c26.667 0 49.334 9.33301 68.001 28s28 41.334 28 68.001s-9.33301 49.334 -28 68.001s-41.334 28 -68.001 28s-49.334 -9.33301 -68.001 -28s-28 -41.334 -28 -68.001s9.33301 -49.334 28 -68.001s41.334 -28 68.001 -28zM1024 70c26.667 0 49.334 9.33301 68.001 28
s28 41.334 28 68.001s-9.33301 49.334 -28 68.001s-41.334 28 -68.001 28s-49.334 -9.33301 -68.001 -28s-28 -41.334 -28 -68.001s9.33301 -49.334 28 -68.001s41.334 -28 68.001 -28zM1024 358c26.667 0 49.334 9.33301 68.001 28s28 41.334 28 68.001
s-9.33301 49.334 -28 68.001s-41.334 28 -68.001 28s-49.334 -9.33301 -68.001 -28s-28 -41.334 -28 -68.001s9.33301 -49.334 28 -68.001s41.334 -28 68.001 -28zM1024 646c26.667 0 49.334 9.33301 68.001 28s28 41.334 28 68.001s-9.33301 49.334 -28 68.001
s-41.334 28 -68.001 28s-49.334 -9.33301 -68.001 -28s-28 -41.334 -28 -68.001s9.33301 -49.334 28 -68.001s41.334 -28 68.001 -28zM1280 -218c26.667 0 49.334 9.33301 68.001 28s28 41.334 28 68.001s-9.33301 49.334 -28 68.001s-41.334 28 -68.001 28
s-49.334 -9.33301 -68.001 -28s-28 -41.334 -28 -68.001s9.33301 -49.334 28 -68.001s41.334 -28 68.001 -28zM1280 70c26.667 0 49.334 9.33301 68.001 28s28 41.334 28 68.001s-9.33301 49.334 -28 68.001s-41.334 28 -68.001 28s-49.334 -9.33301 -68.001 -28
s-28 -41.334 -28 -68.001s9.33301 -49.334 28 -68.001s41.334 -28 68.001 -28zM1280 358c26.667 0 49.334 9.33301 68.001 28s28 41.334 28 68.001s-9.33301 49.334 -28 68.001s-41.334 28 -68.001 28s-49.334 -9.33301 -68.001 -28s-28 -41.334 -28 -68.001
s9.33301 -49.334 28 -68.001s41.334 -28 68.001 -28zM1280 646c26.667 0 49.334 9.33301 68.001 28s28 41.334 28 68.001s-9.33301 49.334 -28 68.001s-41.334 28 -68.001 28s-49.334 -9.33301 -68.001 -28s-28 -41.334 -28 -68.001s9.33301 -49.334 28 -68.001
s41.334 -28 68.001 -28zM1536 -218c26.667 0 49.334 9.33301 68.001 28s28 41.334 28 68.001s-9.33301 49.334 -28 68.001s-41.334 28 -68.001 28s-49.334 -9.33301 -68.001 -28s-28 -41.334 -28 -68.001s9.33301 -49.334 28 -68.001s41.334 -28 68.001 -28zM1536 70
c26.667 0 49.334 9.33301 68.001 28s28 41.334 28 68.001s-9.33301 49.334 -28 68.001s-41.334 28 -68.001 28s-49.334 -9.33301 -68.001 -28s-28 -41.334 -28 -68.001s9.33301 -49.334 28 -68.001s41.334 -28 68.001 -28zM1536 358c26.667 0 49.334 9.33301 68.001 28
s28 41.334 28 68.001s-9.33301 49.334 -28 68.001s-41.334 28 -68.001 28s-49.334 -9.33301 -68.001 -28s-28 -41.334 -28 -68.001s9.33301 -49.334 28 -68.001s41.334 -28 68.001 -28zM1536 646c26.667 0 49.334 9.33301 68.001 28s28 41.334 28 68.001
s-9.33301 49.334 -28 68.001s-41.334 28 -68.001 28s-49.334 -9.33301 -68.001 -28s-28 -41.334 -28 -68.001s9.33301 -49.334 28 -68.001s41.334 -28 68.001 -28z" />
    <glyph glyph-name="quotedbl" unicode="&#x22;" 
d="M1462 628c16.667 -5.33301 30.667 -8 42 -8h33c34.667 5.33301 65.667 8 93 8c257.333 0 386 -135.667 386 -407s-140 -407 -420 -407c-330 0 -495 170.667 -495 512c0 402.667 257.333 760.667 772 1074l67 -75c-318.667 -212.667 -478 -445 -478 -697zM468 620
c34.667 5.33301 65.667 8 93 8c257.333 0 386 -135.667 386 -407s-140 -407 -420 -407c-330 0 -495 170.667 -495 512c0 402.667 257.333 760.667 772 1074l67 -75c-318.667 -212.667 -478 -445 -478 -697c16.667 -5.33301 30.667 -8 42 -8h33z" />
    <glyph glyph-name="numbersign" unicode="#" 
d="M1324 614l651 -650c27.333 -28 41 -61.5 41 -100.5s-13.667 -72.5 -41 -100.5l-101 -100c-27.333 -27.333 -60.5 -41 -99.5 -41s-72.5 13.667 -100.5 41l-650 651l-650 -651c-28 -27.333 -61.5 -41 -100.5 -41s-72.167 13.667 -99.5 41l-101 100
c-27.333 28 -41 61.5 -41 100.5s13.667 72.5 41 100.5l651 650l-651 650c-27.333 28 -41 61.5 -41 100.5s13.667 72.5 41 100.5l101 100c27.333 27.333 60.5 41 99.5 41s72.5 -13.667 100.5 -41l650 -651l650 651c28 27.333 61.5 41 100.5 41s72.167 -13.667 99.5 -41
l101 -100c27.333 -28 41 -61.5 41 -100.5s-13.667 -72.5 -41 -100.5z" />
    <glyph glyph-name="percent" unicode="%" 
d="M1351 811c-14.667 8 -24.333 20.167 -29 36.5s-2.66699 31.833 6 46.5l32 53c8 14.667 20 24.334 36 29.001s31.333 2.66699 46 -6l543 -314c20.667 -11.333 31 -34 31 -68c0 -32.667 -10 -55.334 -30 -68.001l-543 -314c-14.667 -8 -30.167 -9.83301 -46.5 -5.5
s-28.833 13.833 -37.5 28.5l-31 53c-8 14.667 -9.83301 30.167 -5.5 46.5s13.833 28.5 28.5 36.5l385 223zM697.001 811l-385 -223l385 -223c14.667 -8 24.167 -20.167 28.5 -36.5s2.5 -31.833 -5.5 -46.5l-31 -53c-8.66699 -14.667 -21.167 -24.167 -37.5 -28.5
s-31.833 -2.5 -46.5 5.5l-543 314c-20 12.667 -30 35.334 -30 68.001c0 34 10.333 56.667 31 68l542 314c14.667 8.66699 30.334 10.667 47.001 6s29 -14.334 37 -29.001l31 -53c8.66699 -14.667 10.667 -30.167 6 -46.5s-14.334 -28.5 -29.001 -36.5zM1310 1200l-316 -1181
c-3.33301 -16 -12 -28.167 -26 -36.5s-28.667 -10.5 -44 -6.5l-57 13c-16 4 -28.167 12.833 -36.5 26.5s-10.833 28.5 -7.5 44.5l317 1181c3.33301 16 12 28.167 26 36.5s28.667 10.5 44 6.5l57 -13c16 -4 28.167 -12.833 36.5 -26.5s10.5 -28.5 6.5 -44.5z" />
    <glyph glyph-name="ampersand" unicode="&#x26;" 
d="M1024 -378c-90 0 -177.833 11.833 -263.5 35.5s-164.834 56.834 -237.501 99.501s-139.5 94.5 -200.5 155.5s-112.833 127.833 -155.5 200.5s-75.834 151.834 -99.501 237.501s-35.5 173.5 -35.5 263.5s11.833 177.833 35.5 263.5s56.834 164.834 99.501 237.501
s94.5 139.5 155.5 200.5s127.833 112.833 200.5 155.5s151.834 75.834 237.501 99.501s173.5 35.5 263.5 35.5s177.833 -11.833 263.5 -35.5s164.834 -56.834 237.501 -99.501s139.5 -94.5 200.5 -155.5s112.833 -127.833 155.5 -200.5s75.834 -151.834 99.501 -237.501
s35.5 -173.5 35.5 -263.5s-11.833 -177.833 -35.5 -263.5s-56.834 -164.834 -99.501 -237.501s-94.5 -139.5 -155.5 -200.5s-127.833 -112.833 -200.5 -155.5s-151.834 -75.834 -237.501 -99.501s-173.5 -35.5 -263.5 -35.5zM1452 994l-48 48
c-13.333 13.333 -29.5 20 -48.5 20s-35.167 -6.66699 -48.5 -20l-282 -282l-282 282c-13.333 13.333 -29.5 20 -48.5 20s-35.167 -6.66699 -48.5 -20l-48 -48c-13.333 -13.333 -20 -29.5 -20 -48.5s6.66699 -35.167 20 -48.5l282 -282l-282 -282
c-13.333 -13.333 -20 -29.5 -20 -48.5s6.66699 -35.167 20 -48.5l48 -48c13.333 -13.333 29.5 -20 48.5 -20s35.167 6.66699 48.5 20l282 282l282 -282c13.333 -13.333 29.5 -20 48.5 -20s35.167 6.66699 48.5 20l48 48c13.333 13.333 20 29.5 20 48.5
s-6.66699 35.167 -20 48.5l-282 282l282 282c13.333 13.333 20 29.5 20 48.5s-6.66699 35.167 -20 48.5z" />
    <glyph glyph-name="quotesingle" unicode="'" 
d="M1986 479l-116 0.000976562c-10 -63.333 -26.667 -124.333 -50 -183l105 -61c7.33301 -4 12.166 -10 14.499 -18s1.16602 -15.667 -3.50098 -23l-105 -182c-4 -7.33301 -10 -12.166 -18 -14.499s-15.667 -1.16602 -23 3.50098l-109 63
c-35.333 -42 -74.333 -80.333 -117 -115l58 -101c4.66699 -6.66699 5.83398 -14 3.50098 -22s-7.16602 -14.333 -14.499 -19l-182 -105c-7.33301 -4 -15 -5 -23 -3s-14 6.66699 -18 14l-58 100c-55.333 -20.667 -112.333 -35.667 -171 -45v-116c0 -8 -2.83301 -15 -8.5 -21
s-12.834 -9 -21.501 -9h-210c-8 0 -15 3 -21 9s-9 13 -9 21v116c-58.667 9.33301 -115.667 24.333 -171 45l-58 -100c-4 -7.33301 -10 -12 -18 -14s-15.667 -1 -23 3l-182 105c-7.33301 4.66699 -12 11 -14 19s-1 15.333 3 22l58 101c-42 34 -80.333 71.667 -115 113
l-97 -55c-2.66699 -2 -6 -3.33301 -10 -4l-4 -2c-6.66699 -4.66699 -14.167 -5.83398 -22.5 -3.50098s-14.5 7.16602 -18.5 14.499l-105 182c-4 7.33301 -5 15 -3 23s6.66699 14 14 18l106 61c-24 59.333 -41 120 -51 182h-116c-8 0 -15 3 -21 9s-9 13.333 -9 22v211
c0 8 3 15 9 21s13 9 21 9h116c8.66699 52.667 22.334 104.667 41.001 156l-96 55c-7.33301 4 -12 10 -14 18s-1 15.667 3 23l105 182c4 7.33301 10.167 12 18.5 14s15.833 1 22.5 -3l4 -2c4 -0.666992 7.33301 -2 10 -4l79 -45c39.333 50 83.666 95 132.999 135l-58 100
c-4 7.33301 -5 15 -3 23s6.66699 14 14 18l182 106c7.33301 4 15 4.83301 23 2.5s14 -6.83301 18 -13.5l58 -101c55.333 21.333 112.333 36.666 171 45.999v116c0 8 3 15 9 21s13 9 21 9h210c8.66699 0 15.834 -3 21.501 -9s8.5 -13 8.5 -21v-116
c58.667 -9.33301 115.667 -24.666 171 -45.999l58 101c4 6.66699 10 11.167 18 13.5s15.667 1.5 23 -2.5l182 -106c7.33301 -4 12.166 -10 14.499 -18s1.16602 -15.667 -3.50098 -23l-58 -100c50 -40.667 94.667 -86.334 134 -137.001l92 53c7.33301 4 15 5 23 3
s14 -6.66699 18 -14l105 -182c4.66699 -7.33301 5.83398 -15 3.50098 -23s-7.16602 -14 -14.499 -18l-95 -55c18.667 -50.667 32 -103 40 -157h116c8 0 15 -3 21 -9s9 -13 9 -21v-210c0 -8 -3 -15 -9 -21s-13 -9 -21 -9zM1024 998.001
c-69.333 0 -133.5 -17.167 -192.5 -51.5s-105.667 -81 -140 -140s-51.5 -123.167 -51.5 -192.5s17.167 -133.5 51.5 -192.5s81 -105.667 140 -140s123.167 -51.5 192.5 -51.5s133.5 17.167 192.5 51.5s105.667 81 140 140s51.5 123.167 51.5 192.5
s-17.167 133.5 -51.5 192.5s-81 105.667 -140 140s-123.167 51.5 -192.5 51.5z" />
    <glyph glyph-name="parenleft" unicode="(" 
d="M2002 919l-54.001 -0.000976562c-4.66699 -30 -12.667 -58.667 -24 -86l50 -28c8 -4.66699 9.66699 -11 5 -19l-50 -86c-4.66699 -8 -11 -9.66699 -19 -5l-51 30c-16.667 -20 -34.667 -38 -54 -54l27 -47c4.66699 -8 3 -14.333 -5 -19l-86 -49
c-8 -4.66699 -14.333 -3 -19 5l-27 47c-26 -10 -52.667 -17.333 -80 -22v-54c0 -4 -1.33301 -7.33301 -4 -10s-6 -4 -10 -4h-98c-4 0 -7.33301 1.33301 -10 4s-4 6 -4 10v54c-27.333 4.66699 -54 12 -80 22l-27 -47c-4.66699 -8 -11 -9.66699 -19 -5l-86 49
c-8 4.66699 -9.66699 11 -5 19l27 47c-19.333 16 -37.333 33.667 -54 53l-45 -26l-4 -2l-2 -1c-8 -4.66699 -14.333 -3 -19 5l-50 86c-4.66699 8 -2.66699 14.333 6 19l49 28c-11.333 28 -19.333 56.333 -24 85h-54c-4 0 -7.33301 1.5 -10 4.5s-4 6.5 -4 10.5v99
c0 3.33301 1.33301 6.5 4 9.5s6 4.5 10 4.5h54c4 24.667 10.333 49 19 73l-44 25c-8.66699 4.66699 -10.667 11 -6 19l50 86c4.66699 8 11 9.66699 19 5l2 -1l4 -2l37 -21c18.667 23.333 39.334 44.333 62.001 63l-27 47c-4.66699 8 -3 14.333 5 19l86 49
c8 4.66699 14.333 3 19 -5l27 -47c26 10 52.667 17.333 80 22v54c0 4 1.33301 7.33301 4 10s6 4 10 4h98c4 0 7.33301 -1.33301 10 -4s4 -6 4 -10v-54c27.333 -4.66699 54 -12 80 -22l27 47c4.66699 8 11 9.66699 19 5l86 -49c8 -4.66699 9.66699 -11 5 -19l-27 -47
c23.333 -18.667 44 -40 62 -64l43 25c8 4.66699 14.333 3 19 -5l50 -86c4.66699 -8 3 -14.333 -5 -19l-45 -26c8.66699 -23.333 15 -47.666 19 -72.999h54c4 0 7.33301 -1.33301 10 -4s4 -6 4 -10v-98c0 -4 -1.33301 -7.33301 -4 -10s-6 -4 -10 -4zM1552 1162
c-49.333 0 -91.666 -17.667 -126.999 -53s-53 -77.666 -53 -126.999s17.667 -91.666 53 -126.999s77.666 -53 126.999 -53s91.5 17.667 126.5 53s52.5 77.666 52.5 126.999s-17.5 91.666 -52.5 126.999s-77.167 53 -126.5 53zM1164 604.999l66.001 -115
c2.66699 -4.66699 3.33398 -9.5 2.00098 -14.5s-4.33301 -8.83301 -9 -11.5l-60 -34c11.333 -32 19.666 -65 24.999 -99h73c5.33301 0 9.83301 -1.83301 13.5 -5.5s5.5 -8.16699 5.5 -13.5v-132c0 -5.33301 -1.83301 -9.83301 -5.5 -13.5s-8.16699 -5.5 -13.5 -5.5h-73
c-6 -40 -16.333 -78.333 -31 -115l66 -38c4.66699 -2.66699 7.66699 -6.66699 9 -12s0.666016 -10 -2.00098 -14l-66 -115c-2.66699 -4.66699 -6.5 -7.66699 -11.5 -9s-9.83301 -0.666016 -14.5 2.00098l-69 40c-22 -26.667 -46.333 -50.667 -73 -72l36 -64
c2.66699 -4 3.33398 -8.5 2.00098 -13.5s-4.33301 -8.83301 -9 -11.5l-114 -67c-4.66699 -2 -9.5 -2.33301 -14.5 -1s-8.83301 4 -11.5 8l-36 63c-35.333 -13.333 -71.333 -22.666 -108 -27.999v-73c0 -5.33301 -1.83301 -9.83301 -5.5 -13.5s-8.16699 -5.5 -13.5 -5.5h-132
c-5.33301 0 -9.83301 1.83301 -13.5 5.5s-5.5 8.16699 -5.5 13.5v73c-36.667 5.33301 -72.334 14.666 -107.001 27.999l-37 -63c-2.66699 -4 -6.5 -6.66699 -11.5 -8s-9.83301 -1 -14.5 1l-114 67c-4.66699 2.66699 -7.66699 6.5 -9 11.5s-0.666016 9.5 2.00098 13.5l36 64
c-26 21.333 -50 45 -72 71l-61 -35c-2 -1.33301 -4 -2 -6 -2l-3 -2c-4 -2.66699 -8.66699 -3.33398 -14 -2.00098s-9 4.33301 -11 9l-67 115c-2.66699 4 -3.33398 8.66699 -2.00098 14s4.33301 9.33301 9 12l67 38c-15.333 37.333 -26 75.333 -32 114h-73
c-5.33301 0 -9.83301 2 -13.5 6s-5.5 8.66699 -5.5 14v133c0 4.66699 1.83301 8.83398 5.5 12.501s8.16699 5.5 13.5 5.5h73c5.33301 33.333 13.666 66.333 24.999 99l-60 34c-4.66699 2.66699 -7.66699 6.5 -9 11.5s-0.666016 9.83301 2.00098 14.5l66 115
c2.66699 4 6.66699 6.66699 12 8s10 1 14 -1l3 -2c2 0 4 -0.666992 6 -2l50 -29c24.667 31.333 52.334 59.666 83.001 84.999l-36 63c-2.66699 4.66699 -3.33398 9.5 -2.00098 14.5s4.33301 8.83301 9 11.5l114 66c4.66699 2.66699 9.5 3.33398 14.5 2.00098
s8.83301 -4.33301 11.5 -9l37 -63c34.667 13.333 70.334 23 107.001 29v73c0 5.33301 1.83301 9.83301 5.5 13.5s8.16699 5.5 13.5 5.5h132c5.33301 0 9.83301 -1.83301 13.5 -5.5s5.5 -8.16699 5.5 -13.5v-73c36.667 -6 72.667 -15.667 108 -29l36 63
c2.66699 4.66699 6.5 7.66699 11.5 9s9.83301 0.666016 14.5 -2.00098l114 -66c4.66699 -2.66699 7.66699 -6.5 9 -11.5s0.666016 -9.83301 -2.00098 -14.5l-36 -63c31.333 -25.333 59.333 -54 84 -86l58 34c4.66699 2 9.5 2.33301 14.5 1s8.83301 -4 11.5 -8zM656 486.999
c-66.667 0 -123.667 -23.5 -171 -70.5s-71 -103.833 -71 -170.5s23.667 -123.5 71 -170.5s104.333 -70.5 171 -70.5s123.5 23.5 170.5 70.5s70.5 103.833 70.5 170.5s-23.5 123.5 -70.5 170.5s-103.833 70.5 -170.5 70.5zM1046 1211l-37.002 -0.000976562
c-3.33301 -20.667 -8.66602 -40.667 -15.999 -60l34 -19c5.33301 -3.33301 6.33301 -7.66602 3 -12.999l-34 -59c-3.33301 -6 -7.66602 -7.33301 -12.999 -4l-35 21c-11.333 -14 -24 -26.333 -38 -37l19 -33c3.33301 -5.33301 2 -9.66602 -4 -12.999l-58 -34
c-6 -3.33301 -10.667 -2.33301 -14 3l-18 33c-18 -6.66699 -36.333 -11.667 -55 -15v-37c0 -6.66699 -3.33301 -10 -10 -10h-68c-6.66699 0 -10 3.33301 -10 10v37c-18.667 3.33301 -37 8.33301 -55 15l-18 -33c-3.33301 -5.33301 -8 -6.33301 -14 -3l-58 34
c-6 3.33301 -7.33301 7.66602 -4 12.999l19 33c-14 10.667 -26.333 22.667 -37 36l-32 -18c-0.666992 -0.666992 -1.66699 -1 -3 -1l-1 -1c-6 -3.33301 -10.333 -2 -13 4l-34 59c-3.33301 5.33301 -2.33301 9.66602 3 12.999l34 19c-7.33301 19.333 -12.666 39 -15.999 59
h-37c-6.66699 0 -10 3.33301 -10 10v68c0 6.66699 3.33301 10 10 10h37c2.66699 16.667 7 33.334 13 50.001l-31 18c-5.33301 3.33301 -6.33301 7.66602 -3 12.999l34 59c2.66699 5.33301 7 6.66602 13 3.99902l1 -1c1.33301 0 2.33301 -0.333008 3 -1l26 -15
c12.667 16 27 30.667 43 44l-19 32c-3.33301 5.33301 -2 9.66602 4 12.999l58 34c6 3.33301 10.667 2.33301 14 -3l18 -33c18 6.66699 36.333 11.667 55 15v37c0 6.66699 3.33301 10 10 10h68c6.66699 0 10 -3.33301 10 -10v-37c18.667 -3.33301 37 -8.33301 55 -15l18 33
c3.33301 5.33301 8 6.33301 14 3l58 -34c6 -3.33301 7.33301 -7.66602 4 -12.999l-19 -32c16 -13.333 30.333 -28 43 -44l30 17c5.33301 2.66699 9.66602 1.33398 12.999 -3.99902l34 -59c3.33301 -5.33301 2.33301 -9.66602 -3 -12.999l-31 -18
c6 -16 10.333 -32.667 13 -50h37c6.66699 0 10 -3.33301 10 -10v-68c0 -6 -3.33301 -9 -10 -9zM735.998 1378c-34 0 -63.167 -12.167 -87.5 -36.5s-36.5 -53.5 -36.5 -87.5s12.167 -63.167 36.5 -87.5s53.5 -36.5 87.5 -36.5s63.167 12.167 87.5 36.5s36.5 53.5 36.5 87.5
s-12.167 63.167 -36.5 87.5s-53.5 36.5 -87.5 36.5z" />
    <glyph glyph-name="parenright" unicode=")" 
d="M1489 359l148 -688l-613 328l-613 -328l148 688l-527 478l713 80l279 641l279 -641l713 -80zM1260 863l-236 543l-236 -543l-626 -67l469 -404l-139 -610l532 305l532 -305l-139 610l446 404z" />
    <glyph glyph-name="asterisk" unicode="*" 
d="M1489 359l148 -688l-613 328l-613 -328l148 688l-527 478l713 80l279 641l279 -641l713 -80z" />
    <glyph glyph-name="plus" unicode="+" 
d="M1884 422l-668 -0.000976562v-668c0 -36.667 -13 -67.834 -39 -93.501s-57 -38.5 -93 -38.5h-152c-36 0 -67 12.833 -93 38.5s-39 56.834 -39 93.501v668h-636c-36.667 0 -67.834 12.833 -93.501 38.5s-38.5 56.834 -38.5 93.501v152c0 36.667 12.833 67.834 38.5 93.501
s56.834 38.5 93.501 38.5h636v636c0 36.667 13 67.834 39 93.501s57 38.5 93 38.5h152c36 0 67 -12.833 93 -38.5s39 -56.834 39 -93.501v-636h668c36.667 0 67.834 -12.833 93.501 -38.5s38.5 -56.834 38.5 -93.501v-152c0 -36 -12.833 -67 -38.5 -93
s-56.834 -39 -93.501 -39z" />
    <glyph glyph-name="comma" unicode="," 
d="M1024 1606c90 0 177.833 -12 263.5 -36s164.834 -57.167 237.501 -99.5s139.5 -94.166 200.5 -155.499s112.833 -128.166 155.5 -200.499s75.834 -151.333 99.501 -237s35.5 -173.5 35.5 -263.5s-11.833 -177.833 -35.5 -263.5s-56.834 -164.834 -99.501 -237.501
s-94.5 -139.5 -155.5 -200.5s-127.833 -112.833 -200.5 -155.5s-151.834 -75.834 -237.501 -99.501s-173.5 -35.5 -263.5 -35.5s-177.833 11.833 -263.5 35.5s-164.667 56.834 -237 99.501s-139.166 94.5 -200.499 155.5s-113.166 127.833 -155.499 200.5
s-75.5 151.834 -99.5 237.501s-36 173.5 -36 263.5s12 177.833 36 263.5s57.167 164.667 99.5 237s94.166 139.166 155.499 200.499s128.166 113.166 200.499 155.499s151.333 75.5 237 99.5s173.5 36 263.5 36zM1600 565v98c0 22 -7.66699 40.667 -23 56s-34 23 -56 23
h-369v369c0 22 -7.66699 40.667 -23 56s-34 23 -56 23h-98c-22 0 -40.667 -7.66699 -56 -23s-23 -34 -23 -56v-369h-369c-22 0 -40.667 -7.66699 -56 -23s-23 -34 -23 -56v-98c0 -22 7.66699 -40.667 23 -56s34 -23 56 -23h369v-369c0 -22 7.66699 -40.667 23 -56
s34 -23 56 -23h98c22 0 40.667 7.66699 56 23s23 34 23 56v369h369c22 0 40.667 7.66699 56 23s23 34 23 56z" />
    <glyph glyph-name="hyphen" unicode="-" 
d="M1920 663v-98c0 -22 -7.66699 -40.667 -23 -56s-34 -23 -56 -23h-1634c-22 0 -40.667 7.66699 -56 23s-23 34 -23 56v98c0 22 7.66699 40.667 23 56s34 23 56 23h1634c22 0 40.667 -7.66699 56 -23s23 -34 23 -56z" />
    <glyph glyph-name="period" unicode="." 
d="M1024 -378c-90 0 -177.833 11.833 -263.5 35.5s-164.834 56.834 -237.501 99.501s-139.5 94.5 -200.5 155.5s-112.833 127.833 -155.5 200.5s-75.834 151.834 -99.501 237.501s-35.5 173.5 -35.5 263.5s11.833 177.833 35.5 263.5s56.834 164.834 99.501 237.501
s94.5 139.5 155.5 200.5s127.833 112.833 200.5 155.5s151.834 75.834 237.501 99.501s173.5 35.5 263.5 35.5s177.833 -11.833 263.5 -35.5s164.834 -56.834 237.501 -99.501s139.5 -94.5 200.5 -155.5s112.833 -127.833 155.5 -200.5s75.834 -151.834 99.501 -237.501
s35.5 -173.5 35.5 -263.5s-11.833 -177.833 -35.5 -263.5s-56.834 -164.834 -99.501 -237.501s-94.5 -139.5 -155.5 -200.5s-127.833 -112.833 -200.5 -155.5s-151.834 -75.834 -237.501 -99.501s-173.5 -35.5 -263.5 -35.5zM1568 663c0 22 -7.66699 40.667 -23 56
s-34 23 -56 23h-931c-21.333 0 -39.833 -7.66699 -55.5 -23s-23.5 -34 -23.5 -56v-98c0 -22 7.83301 -40.667 23.5 -56s34.167 -23 55.5 -23h931c22 0 40.667 7.66699 56 23s23 34 23 56v98z" />
    <glyph glyph-name="slash" unicode="/" 
d="M299 1510h1450c47.333 0 87.666 -16.667 120.999 -50s50 -73.666 50 -120.999v-1450c0 -47.333 -16.667 -87.666 -50 -120.999s-73.666 -50 -120.999 -50h-1450c-47.333 0 -87.666 16.667 -120.999 50s-50 73.666 -50 120.999v1450c0 47.333 16.667 87.666 50 120.999
s73.666 50 120.999 50z" />
    <glyph glyph-name="zero" unicode="0" 
d="M1827 -378l-1606 0.000976562c-52 0 -96.5 18.5 -133.5 55.5s-55.5 81.5 -55.5 133.5l12 1606c0 53.333 16.667 98.166 50 134.499s75.666 54.5 126.999 54.5h1606c52 0 96.5 -18.5 133.5 -55.5s55.5 -81.5 55.5 -133.5v-1606c0 -52 -18.5 -96.5 -55.5 -133.5
s-81.5 -55.5 -133.5 -55.5zM557.001 70.001h934c21.333 0 39.5 7.5 54.5 22.5s22.5 33.167 22.5 54.5v934c0 21.333 -7.5 39.5 -22.5 54.5s-33.167 22.5 -54.5 22.5h-934c-21.333 0 -39.5 -7.5 -54.5 -22.5s-22.5 -33.167 -22.5 -54.5v-934c0 -21.333 7.5 -39.5 22.5 -54.5
s33.167 -22.5 54.5 -22.5z" />
    <glyph glyph-name="one" unicode="1" 
d="M2008 1176c-16 -58 -59.333 -224.332 -130 -498.999c-9.33301 -34.667 -17.166 -56.334 -23.499 -65.001s-23.833 -21.334 -52.5 -38.001l-1083 -625l-28 -17c-24.667 -14 -50.834 -17.333 -78.501 -10s-48.834 23.333 -63.501 48l-441 765
c-14.667 24.667 -18.167 50.834 -10.5 78.501s23.834 48.834 48.501 63.501l1111 642c26 14.667 44.5 22.334 55.5 23.001s36.167 -4.33301 75.5 -15l490 -131c55.333 -14.667 94.333 -41.834 117 -81.501s27 -85.834 13 -138.501zM1672.5 1134
c-24.333 42 -59.998 69.333 -106.998 82s-91.5 6.83398 -133.5 -17.499s-69.333 -60 -82 -107s-6.83398 -91.5 17.499 -133.5s60 -69.333 107 -82s91.667 -6.83398 134 17.499s69.666 60 81.999 107s6.33301 91.5 -18 133.5zM525.002 -106.999
c14.667 -25.333 35.8311 -41.667 63.498 -49s53.834 -4 78.501 10l1111 642c42 24 62.667 36.667 62 38c-8 -30 -18 -63 -30 -99c-1.33301 -3.33301 -2.66602 -6.33301 -3.99902 -9s-2.83301 -5.33398 -4.5 -8.00098s-3.16699 -4.83398 -4.5 -6.50098s-3.5 -3.66699 -6.5 -6
l-7 -5.5c-1.66699 -1.33301 -4.66699 -3.33301 -9 -6s-7.5 -4.66699 -9.5 -6s-5.83301 -3.66602 -11.5 -6.99902s-9.83398 -5.66602 -12.501 -6.99902l-1111 -642c-24.667 -14.667 -51 -18.167 -79 -10.5s-49 23.834 -63 48.501l-442 765
c-10.667 18 -15.334 38.333 -14.001 61c0.666992 9.33301 1.83398 19 3.50098 29s3.83398 19.667 6.50098 29l7 24c2 6.66699 4.33301 13.667 7 21l4 11c1.33301 -10.667 9.33301 -28.334 24 -53.001zM59.999 710v2v-2z" />
    <glyph glyph-name="two" unicode="2" 
d="M2008 1081l-135 -516.002c-9.33301 -36 -17.333 -58.333 -24 -67s-24.667 -21.667 -54 -39l-1146 -663c-26 -14.667 -53.333 -18.167 -82 -10.5s-50.334 24.5 -65.001 50.5l-456 789c-14.667 25.333 -18.167 52.333 -10.5 81s24.5 50.334 50.5 65.001l1147 663
c26.667 15.333 45.667 23.333 57 24s37.333 -4.66602 78 -15.999c331.333 -88.667 500 -133.667 506 -135c56.667 -15.333 96.834 -43.333 120.501 -84s28.167 -88 13.5 -142zM1408.5 1100.5c-45.667 -26.333 -75.502 -65.168 -89.502 -116.501s-7.66699 -100 19 -146
s65.5 -75.833 116.5 -89.5s99.5 -7.16699 145.5 19.5s75.833 65.5 89.5 116.5s7.33398 99.5 -18.999 145.5s-65.166 75.833 -116.499 89.5s-99.833 7.33398 -145.5 -18.999z" />
    <glyph glyph-name="three" unicode="3" 
d="M1024 -378c-90 0 -177.833 11.833 -263.5 35.5s-164.834 56.834 -237.501 99.501s-139.5 94.5 -200.5 155.5s-112.833 127.833 -155.5 200.5s-75.834 151.834 -99.501 237.501s-35.5 173.5 -35.5 263.5s11.833 177.833 35.5 263.5s56.834 164.834 99.501 237.501
s94.5 139.5 155.5 200.5s127.833 112.833 200.5 155.5s151.834 75.834 237.501 99.501s173.5 35.5 263.5 35.5s177.833 -11.833 263.5 -35.5s164.834 -56.834 237.501 -99.501s139.5 -94.5 200.5 -155.5s112.833 -127.833 155.5 -200.5s75.834 -151.834 99.501 -237.501
s35.5 -173.5 35.5 -263.5s-11.833 -177.833 -35.5 -263.5s-56.834 -164.834 -99.501 -237.501s-94.5 -139.5 -155.5 -200.5s-127.833 -112.833 -200.5 -155.5s-151.834 -75.834 -237.501 -99.501s-173.5 -35.5 -263.5 -35.5zM1024 1336c-98 0 -191.5 -19 -280.5 -57
s-165.667 -89.333 -230 -154s-115.666 -141.5 -153.999 -230.5s-57.5 -182.5 -57.5 -280.5s19.167 -191.5 57.5 -280.5s89.666 -165.833 153.999 -230.5s141 -116 230 -154s182.5 -57 280.5 -57s191.667 19 281 57s166.166 89.333 230.499 154s115.5 141.5 153.5 230.5
s57 182.5 57 280.5s-19 191.5 -57 280.5s-89.167 165.833 -153.5 230.5s-141.166 116 -230.499 154s-183 57 -281 57zM1408 518l-416.001 0.000976562c-23.333 0 -43.666 7.33301 -60.999 22s-28.333 33 -33 55c-1.33301 6.66699 -2 13.334 -2 20.001v511
c0 26.667 9.33301 49.334 28 68.001s41.167 28 67.5 28s48.833 -9.33301 67.5 -28s28 -41.334 28 -68.001v-416h321c26.667 0 49.334 -9.33301 68.001 -28s28 -41.334 28 -68.001s-9.33301 -49.334 -28 -68.001s-41.334 -28 -68.001 -28z" />
    <glyph glyph-name="four" unicode="4" 
d="M2009 752l-127.008 -114.997c-5.33301 -5.33301 -11.666 -8 -18.999 -8h-88c-10 0 -15 5.33301 -15 16v66v65c0 7.33301 -1 11.833 -3 13.5s-6.66699 3.83398 -14 6.50098l-113 41l-112 40c-8 3.33301 -13 4.83301 -15 4.5s-5.33301 -3.16602 -10 -8.49902l-301 -312
l608 -573c6.66699 -7.33301 13.334 -15.166 20.001 -23.499s13.334 -20.333 20.001 -36s10.667 -31.334 12 -47.001s-2 -33.834 -10 -54.501s-21.5 -40.667 -40.5 -60s-38.833 -33.5 -59.5 -42.5s-39.5 -13.333 -56.5 -13s-33.5 3.16602 -49.5 8.49902s-28.667 11 -38 17
s-17 12 -23 18c-10 10 -200.333 213.667 -571 611l-43 -44c0.666992 -4.66699 1.16699 -10.667 1.5 -18s-1 -18.833 -4 -34.5s-8.83301 -27.834 -17.5 -36.501s-53.667 -57 -135 -145l-237 -257.5l-115 -125.5c-1.33301 -0.666992 -3.33301 -1.83398 -6 -3.50098
s-8.5 -3.33398 -17.5 -5.00098s-18.167 -2 -27.5 -1s-21 5.16699 -35 12.5s-28.333 18 -43 32l-126 128c-1.33301 2 -3.16602 4.33301 -5.49902 7s-5.66602 8.33398 -9.99902 17.001s-7.33301 17.334 -9 26.001s-1.16699 19 1.5 31s8.33398 23.667 17.001 35
c31.333 40 198.666 203.667 501.999 491c1.33301 0.666992 3 1.66699 5 3s6.5 3.66602 13.5 6.99902s13.833 5.66602 20.5 6.99902s15.167 2.5 25.5 3.5s19.833 0.166992 28.5 -2.5l51 49l-262 281c-5.33301 6 -9.16602 9.33301 -11.499 10s-8.5 0.333984 -18.5 -0.999023
c0 -0.666992 -15.833 -3 -47.5 -7l-116 -14.5c-45.667 -5.66699 -73.167 -9.16699 -82.5 -10.5c-10 -0.666992 -16.333 -0.166992 -19 1.5s-7 6.5 -13 14.5l-230 305c-5.33301 6.66699 -7.66602 11 -6.99902 13s4.33398 6.33301 11.001 13l24.5 24.5l30.5 30.5l24 24
c6 5.33301 10.167 7.83301 12.5 7.5s6.5 -3.83301 12.5 -10.5l76 -85l73 -82c6 -7.33301 10.333 -11.333 13 -12s9 -0.666992 19 0c10 1.33301 33.833 4 71.5 8l75.5 8c8.66699 1.33301 13.834 3 15.501 5s3.5 7.66699 5.5 17c18 72.667 27.333 110.667 28 114
c2 10 2.66699 16.5 2 19.5s-4 7.16699 -10 12.5l-187 182c-6 6.66699 -9 11 -9 13s2.66699 5.33301 8 10l88 93c4.66699 5.33301 8 8 10 8s7 -3 15 -9l312 -213c9.33301 -6 14.833 -10.333 16.5 -13s1.83398 -8.33398 0.500977 -17.001l-39 -261
c-1.33301 -10.667 -1.33301 -18.167 0 -22.5s5.66602 -9.83301 12.999 -16.5l282 -265l310 291l3 3l2.5 2.5l2 2c1 1 1.5 1.83301 1.5 2.5s0.333008 1.5 1 2.5s1 2.16699 1 3.5s0.166992 2.83301 0.5 4.5s0.5 3.5 0.5 5.5l14.5 106c7.66699 55.333 12.5 89.666 14.5 102.999
c1.33301 6 1.5 10.333 0.5 13s-3.83301 6.33398 -8.5 11.001l-76 73c-40 38 -65.333 61.667 -76 71c-6 5.33301 -13.333 8.33301 -22 9c-36 1.33301 -107.333 3.33301 -214 6c-10.667 0 -12.334 4.66699 -5.00098 14l25.5 30.5l24.5 29.5c2.66699 4 5.5 6.66699 8.5 8
s8.16699 2 15.5 2h104.5h102.5c7.33301 0 15 -2.33301 23 -7l156 -115.5l174 -127.5c4.66699 -3.33301 9.66699 -7.66602 15 -12.999l16.5 -17l10.5 -11c67.333 -88.667 141.333 -195.667 222 -321c7.33301 -10 16 -15 26 -15c25.333 -0.666992 49 -1.5 71 -2.5l33 -1.5
c8 0 12 -4 12 -12v-98c0 -6.66699 -2.33301 -12.334 -7 -17.001zM1681.49 -191.997c17.667 0 32.834 6.33301 45.501 19s19 27.834 19 45.501s-6.33301 32.834 -19 45.501s-27.834 19 -45.501 19s-32.667 -6.33301 -45 -19s-18.5 -27.834 -18.5 -45.501
s6.16699 -32.834 18.5 -45.501s27.333 -19 45 -19z" />
    <glyph glyph-name="five" unicode="5" 
d="M1986 134h-1925c-8 0 -15 3 -21 9s-9 13 -9 21v1348c0 8 3 15 9 21s13 9 21 9h1925c8 0 15 -3 21 -9s9 -13 9 -21v-1348c0 -8 -3 -15 -9 -21s-13 -9 -21 -9zM1888 1384c0 8 -3 15 -9 21s-13 9 -21 9h-1668c-8 0 -15 -3 -21 -9s-9 -13 -9 -21v-964c0 -8 3 -15 9 -21
s13 -9 21 -9h1668c8 0 15 3 21 9s9 13 9 21v964zM350 -58h450v98c0 8 3 15 9 21s13 9 21 9h387c8.66699 0 16 -3 22 -9s9 -13 9 -21v-98h450c8 0 15 -3 21 -9s9 -13 9 -21v-100c0 -8 -3 -15 -9 -21s-13 -9 -21 -9h-1348c-8 0 -15 3 -21 9s-9 13 -9 21v100c0 8 3 15 9 21
s13 9 21 9z" />
    <glyph glyph-name="six" unicode="6" 
d="M1911 -378h-1774c-19.333 0 -36.333 8 -51 24s-22 33.667 -22 53v294c0 32 29.5 71.167 88.5 117.5s131.5 90.5 217.5 132.5s179.5 80.5 280.5 115.5s191.5 58.5 271.5 70.5c-68 30 -135 83.5 -201 160.5s-119 160.833 -159 251.5s-60 171.667 -60 243
c0 70.667 13.833 138.334 41.5 203.001s64.834 120.167 111.501 166.5s102.167 83.333 166.5 111s131.833 41.5 202.5 41.5s138.334 -13.833 203.001 -41.5s120.334 -64.667 167.001 -111s83.667 -101.833 111 -166.5s41 -132.334 41 -203.001
c0 -50.667 -11.333 -109 -34 -175s-52.334 -130.5 -89.001 -193.5s-81.167 -121 -133.5 -174s-105.166 -90.833 -158.499 -113.5c79.333 -12.667 169.5 -36.5 270.5 -71.5s194 -73.667 279 -116s156.833 -86.333 215.5 -132s88 -84.167 88 -115.5v-294
c0 -21.333 -6.66699 -39.5 -20 -54.5s-31 -22.5 -53 -22.5z" />
    <glyph glyph-name="seven" unicode="7" 
d="M1600 -218c-75.333 0 -145 18.667 -209 56s-114.5 87.833 -151.5 151.5s-55.5 133.167 -55.5 208.5s18.5 145 55.5 209s87.5 114.5 151.5 151.5s133.667 55.5 209 55.5s145 -18.5 209 -55.5s114.5 -87.5 151.5 -151.5s55.5 -133.667 55.5 -209
s-18.5 -144.833 -55.5 -208.5s-87.5 -114.167 -151.5 -151.5s-133.667 -56 -209 -56zM1867 478l-0.000976562 -0.000976562c-3.33301 -2 -7.33301 -5.66699 -12 -11s-10.834 -11.833 -18.501 -19.5l-26 -25.5c-9.66699 -9.33301 -19.167 -19.333 -28.5 -30
c-53.333 52 -117 78 -191 78c-75.333 0 -139.5 -26.5 -192.5 -79.5s-79.5 -117.167 -79.5 -192.5s26.5 -139.5 79.5 -192.5s117.167 -79.5 192.5 -79.5c53.333 0 101.833 14 145.5 42s76.834 65 99.501 111l-76 37c-15.333 -32 -38.166 -57.667 -68.499 -77
s-63.833 -29 -100.5 -29c-52 0 -96.333 18.333 -133 55s-55 81 -55 133s18.333 96.333 55 133s81 55 133 55c50.667 0 94.334 -17.667 131.001 -53l-50.5 -51l-30.5 -31c-4.66699 -4.66699 -4.33398 -7 0.999023 -7h227c2.66699 0 4 1.33301 4 4v228
c0 4.66699 -2 5.33398 -6 2.00098zM901.999 493.999c80 -12 168.666 -35.9971 265.999 -71.9971c-38.667 -76 -58 -149 -58 -219c0 -69.333 14 -134.833 42 -196.5s66.333 -115.167 115 -160.5h-295h-587.5h-293.5c-16 0 -29.833 6.5 -41.5 19.5s-17.5 27.5 -17.5 43.5v234
c0 34 39.5 76.667 118.5 128s173.333 98.166 283 140.499s208.167 70.166 295.5 83.499c-55.333 24.667 -109.333 68 -162 130s-95.167 129.667 -127.5 203s-48.5 138.666 -48.5 195.999c0 76 18.833 146.5 56.5 211.5s89 116.333 154 154s135.667 56.5 212 56.5
s147 -18.833 212 -56.5s116.333 -89 154 -154s56.5 -135.5 56.5 -211.5c0 -40.667 -9.16699 -87.667 -27.5 -141s-42.166 -105.333 -71.499 -156s-65 -97.5 -107 -140.5s-84.667 -73.833 -128 -92.5z" />
    <glyph glyph-name="eight" unicode="8" 
d="M1818 -378h-1588c-28 0 -52 10 -72 30s-30 44 -30 72v1780c0 28 10 52 30 72s44 30 72 30h1588c28 0 52 -10 72 -30s30 -44 30 -72v-1780c0 -28 -10 -52 -30 -72s-44 -30 -72 -30zM448 1446h-192v-256h192v256zM448 1094h-192v-256h192v256zM448 742h-192v-256h192v256z
M448 390h-192v-256h192v256zM448 38h-192v-256h192v256zM1504 1446h-960v-768h960v768zM1504 550h-960v-768h960v768zM1792 1446h-192v-256h192v256zM1792 1094h-192v-256h192v256zM1792 742h-192v-256h192v256zM1792 390h-192v-256h192v256zM1792 38h-192v-256h192v256z
" />
    <glyph glyph-name="nine" unicode="9" 
d="M1696 -377v319h224v-319h-224zM1696 358h224v-320h-224v320zM1696 773h224v-319h-224v319zM1696 1190h224v-320h-224v320zM1696 1606h224v-320h-224v320zM480 550h1088v-927h-1088v927zM480 1606h1088v-928h-1088v928zM128 -58h224v-319h-224v319zM128 358h224v-320h-224
v320zM128 773h224v-319h-224v319zM128 1190h224v-320h-224v320zM128 1606h224v-320h-224v320z" />
    <glyph glyph-name="colon" unicode=":" 
d="M1987 -279l-70.0059 -70.0059c-19.333 -19.333 -42.666 -29 -69.999 -29s-50.666 9.66699 -69.999 29l-607 607c-122 -80.667 -256.333 -121 -403 -121c-100 0 -195.333 19.333 -286 58s-168.834 90.834 -234.501 156.501s-117.834 143.834 -156.501 234.501
s-58 185.834 -58 285.501s19.333 194.834 58 285.501s90.834 168.834 156.501 234.501s143.834 117.834 234.501 156.501s185.834 58 285.501 58s194.834 -19.333 285.501 -58s168.834 -90.834 234.501 -156.501s117.834 -143.834 156.501 -234.501s58 -186 58 -286
c0 -146.667 -40.333 -281 -121 -403l607 -607c19.333 -19.333 29 -42.666 29 -69.999s-9.66699 -50.666 -29 -69.999zM766.494 1392.99c-70.333 0 -137.5 -13.667 -201.5 -41s-119 -64 -165 -110s-82.667 -101 -110 -165s-41 -131.167 -41 -201.5s13.667 -137.5 41 -201.5
s64 -119.167 110 -165.5s101 -83.166 165 -110.499s131.167 -41 201.5 -41s137.5 13.667 201.5 41s119.167 64.166 165.5 110.499s83.166 101.5 110.499 165.5s41 131.167 41 201.5s-13.667 137.5 -41 201.5s-64.166 119 -110.499 165s-101.5 82.667 -165.5 110
s-131.167 41 -201.5 41z" />
    <glyph glyph-name="semicolon" unicode=";" 
d="M1987 -279l-70.0059 -70.0059c-19.333 -19.333 -42.666 -29 -69.999 -29s-50.666 9.66699 -69.999 29l-607 607c-122 -80.667 -256.333 -121 -403 -121c-100 0 -195.333 19.333 -286 58s-168.834 90.834 -234.501 156.501s-117.834 143.834 -156.501 234.501
s-58 185.834 -58 285.501s19.333 194.834 58 285.501s90.834 168.834 156.501 234.501s143.834 117.834 234.501 156.501s185.834 58 285.501 58s194.834 -19.333 285.501 -58s168.834 -90.834 234.501 -156.501s117.834 -143.834 156.501 -234.501s58 -186 58 -286
c0 -146.667 -40.333 -281 -121 -403l607 -607c19.333 -19.333 29 -42.666 29 -69.999s-9.66699 -50.666 -29 -69.999zM766.494 1392.99c-70.333 0 -137.5 -13.667 -201.5 -41s-119 -64 -165 -110s-82.667 -101 -110 -165s-41 -131.167 -41 -201.5s13.667 -137.5 41 -201.5
s64 -119.167 110 -165.5s101 -83.166 165 -110.499s131.167 -41 201.5 -41s137.5 13.667 201.5 41s119.167 64.166 165.5 110.499s83.166 101.5 110.499 165.5s41 131.167 41 201.5s-13.667 137.5 -41 201.5s-64.166 119 -110.499 165s-101.5 82.667 -165.5 110
s-131.167 41 -201.5 41zM1023.99 805.994h-192v-192c0 -17.333 -6.16699 -32.333 -18.5 -45s-27.333 -19 -45 -19s-32.834 6.33301 -45.501 19s-19 27.667 -19 45v192h-192c-18 0 -33.167 6.16699 -45.5 18.5s-18.5 27.333 -18.5 45s6.16699 32.834 18.5 45.501
s27.5 19 45.5 19h192v192c0 17.333 6.33301 32.333 19 45s27.834 19 45.501 19s32.667 -6.33301 45 -19s18.5 -27.667 18.5 -45v-192h192c17.333 0 32.333 -6.33301 45 -19s19 -27.834 19 -45.501s-6.33301 -32.667 -19 -45s-27.667 -18.5 -45 -18.5z" />
    <glyph glyph-name="less" unicode="&#x3c;" 
d="M1987 -279l-70.0059 -70.0059c-19.333 -19.333 -42.666 -29 -69.999 -29s-50.666 9.66699 -69.999 29l-607 607c-122 -80.667 -256.333 -121 -403 -121c-100 0 -195.333 19.333 -286 58s-168.834 90.834 -234.501 156.501s-117.834 143.834 -156.501 234.501
s-58 185.834 -58 285.501s19.333 194.834 58 285.501s90.834 168.834 156.501 234.501s143.834 117.834 234.501 156.501s185.834 58 285.501 58s194.834 -19.333 285.501 -58s168.834 -90.834 234.501 -156.501s117.834 -143.834 156.501 -234.501s58 -186 58 -286
c0 -146.667 -40.333 -281 -121 -403l607 -607c19.333 -19.333 29 -42.666 29 -69.999s-9.66699 -50.666 -29 -69.999zM766.494 1392.99c-70.333 0 -137.5 -13.667 -201.5 -41s-119 -64 -165 -110s-82.667 -101 -110 -165s-41 -131.167 -41 -201.5s13.667 -137.5 41 -201.5
s64 -119.167 110 -165.5s101 -83.166 165 -110.499s131.167 -41 201.5 -41s137.5 13.667 201.5 41s119.167 64.166 165.5 110.499s83.166 101.5 110.499 165.5s41 131.167 41 201.5s-13.667 137.5 -41 201.5s-64.166 119 -110.499 165s-101.5 82.667 -165.5 110
s-131.167 41 -201.5 41zM1023.99 805.994h-512c-18 0 -33.167 6.16699 -45.5 18.5s-18.5 27.333 -18.5 45s6.16699 32.834 18.5 45.501s27.5 19 45.5 19h512c17.333 0 32.333 -6.33301 45 -19s19 -27.834 19 -45.501s-6.33301 -32.667 -19 -45s-27.667 -18.5 -45 -18.5z" />
    <glyph glyph-name="equal" unicode="=" 
d="M1906 253l0.00292969 -7.00098c-2 -114.667 26.667 -226.667 86 -336c-33.333 0.666992 -65.333 4.33398 -96 11.001s-57 14.834 -79 24.501s-42.333 20.334 -61 32.001s-34.334 23.167 -47.001 34.5s-23.167 21.666 -31.5 30.999s-14.5 17 -18.5 23
s-5.33301 8.66699 -4 8c-108 -45.333 -224.333 -68 -349 -68c-96 0 -187.833 14 -275.5 42s-163 65.667 -226 113s-113.333 103.666 -151 168.999s-56.5 133.833 -56.5 205.5s18.833 140.167 56.5 205.5s88 121.666 151 168.999s138.333 85 226 113s179.667 42 276 42
s188.166 -14 275.499 -42s162.666 -65.667 225.999 -113s113.833 -103.666 151.5 -168.999s56.5 -134 56.5 -206c0 -102 -36.667 -196 -110 -282zM503.003 540.999c0 -110 39.3311 -214.996 117.998 -314.996c-82.667 10.667 -158.667 30.667 -228 60
c0.666992 0 -1 -2.83301 -5 -8.5s-10.167 -13.167 -18.5 -22.5s-18.666 -19.666 -30.999 -30.999s-27.833 -22.833 -46.5 -34.5s-39.167 -22.334 -61.5 -32.001s-48.666 -17.834 -78.999 -24.501s-62.166 -10.334 -95.499 -11.001c56.667 105.333 85 218.666 85 339.999
c0 2 0.333008 2.66699 1 2c-73.333 86 -110 180.333 -110 283c0 72 18.667 140.667 56 206s87.666 121.666 150.999 168.999s138.833 84.833 226.5 112.5s179.5 41.5 275.5 41.5c145.333 0 293 -46.333 443 -139c-100.667 -10 -193.5 -32.333 -278.5 -67
s-156.833 -78.167 -215.5 -130.5s-104.5 -112.833 -137.5 -181.5s-49.5 -141 -49.5 -217z" />
    <glyph glyph-name="greater" unicode="&#x3e;" 
d="M1065 -197l222.001 433.001l-273 80l273 627l-266 24l69 245c16 21.333 33 41.666 51 60.999s40.5 40 67.5 62s55 40.667 84 56s62.5 27.833 100.5 37.5s77 13.834 117 12.501c102.667 -2.66699 193.167 -29.5 271.5 -80.5s137.666 -119.167 177.999 -204.5
s59.166 -180.333 56.499 -285c-2 -52.667 -17.167 -110 -45.5 -172s-64.166 -121.833 -107.499 -179.5s-95.166 -117.834 -155.499 -180.501s-118.833 -119.167 -175.5 -169.5s-117.334 -101.333 -182.001 -153l-160.5 -124.5zM865.001 810.001l205.001 -67.999l-245 -481
l266 -84l-101 -393l-93 68.5l-150 119c-66 53.667 -128.5 107 -187.5 160s-121.833 114.333 -188.5 184s-124 136.167 -172 199.5s-87.833 129.666 -119.5 198.999s-47.5 132.333 -47.5 189c0 62.667 6.16699 120.834 18.5 174.501s31.666 103.167 57.999 148.5
s58.833 84.166 97.5 116.499s85.5 57.333 140.5 75s116.5 26.5 184.5 26.5c144.667 0 267.667 -53 369 -159z" />
    <glyph glyph-name="question" unicode="?" 
d="M1024 -378c-90 0 -177.833 11.833 -263.5 35.5s-164.834 56.834 -237.501 99.501s-139.5 94.5 -200.5 155.5s-112.833 127.833 -155.5 200.5s-75.834 151.834 -99.501 237.501s-35.5 173.5 -35.5 263.5s11.833 177.833 35.5 263.5s56.834 164.834 99.501 237.501
s94.5 139.5 155.5 200.5s127.833 112.833 200.5 155.5s151.834 75.834 237.501 99.501s173.5 35.5 263.5 35.5s177.833 -11.833 263.5 -35.5s164.834 -56.834 237.501 -99.501s139.5 -94.5 200.5 -155.5s112.833 -127.833 155.5 -200.5s75.834 -151.834 99.501 -237.501
s35.5 -173.5 35.5 -263.5s-11.833 -177.833 -35.5 -263.5s-56.834 -164.834 -99.501 -237.501s-94.5 -139.5 -155.5 -200.5s-127.833 -112.833 -200.5 -155.5s-151.834 -75.834 -237.501 -99.501s-173.5 -35.5 -263.5 -35.5zM1918 779
c-6.66699 -8.66699 -15.5059 -18.1689 -26.5059 -28.502l-26.5 -25c-6.66699 -6.33301 -13.167 -15.666 -19.5 -27.999s-10.5 -27.166 -12.5 -44.499c-2 -18 -2.5 -35.5 -1.5 -52.5s2.5 -32.333 4.5 -46s2.66699 -25.167 2 -34.5s-3.66699 -15.333 -9 -18
c-8.66699 -4 -21.834 -3.33301 -39.501 2s-34.667 15.333 -51 30s-24.833 31.334 -25.5 50.001c-1.33301 19.333 -9.16602 33.333 -23.499 42s-29.833 11.167 -46.5 7.5s-29.334 -11.5 -38.001 -23.5c-7.33301 -10.667 -22.166 -16 -44.499 -16s-42 1.83301 -59 5.5
s-29.167 2.83398 -36.5 -2.49902c-4 -5.33301 -3.16699 -13.666 2.5 -24.999s14.834 -21.166 27.501 -29.499s25 -11.5 37 -9.5c18.667 3.33301 28.334 -5.66699 29.001 -27s-5.66602 -43.333 -18.999 -66c-6.66699 -10 -16.5 -19.5 -29.5 -28.5s-27.5 -16.167 -43.5 -21.5
s-32.667 -5.83301 -50 -1.5s-32.333 14.5 -45 30.5l-18 22.5l-15 18.5l-12.5 15.5c-5 6.33301 -8.33301 11.166 -10 14.499l-7 14.5c-3 6.33301 -4.33301 11.333 -4 15s-0.166992 9.5 -1.5 17.5s-1 15.333 1 22c1.33301 14 -1.5 26.833 -8.5 38.5s-15.167 20.5 -24.5 26.5
s-17.833 12 -25.5 18s-11.167 11.667 -10.5 17c0.666992 14.667 -3.5 29.834 -12.5 45.501s-23.167 24.5 -42.5 26.5c-10.667 2 -27.167 7.33301 -49.5 16s-42 15.667 -59 21s-28.167 5.33301 -33.5 0c-6.66699 -6.66699 -33.667 -9.16699 -81 -7.5
s-74.666 1.16699 -81.999 -1.5c-5.33301 -2.66699 -15.666 -6.5 -30.999 -11.5s-28.666 -9.83301 -39.999 -14.5s-17 -8.66699 -17 -12c0 -8.66699 2 -17.167 6 -25.5s10 -13.5 18 -15.5c16.667 -3.33301 39.5 -9.83301 68.5 -19.5s46.833 -18.834 53.5 -27.501
c1.33301 -1.33301 4.83301 -7 10.5 -17s10.667 -17.667 15 -23s11.833 -10.5 22.5 -15.5s23 -7.5 37 -7.5c10 0 25.833 0.166992 47.5 0.5s39.5 0.666016 53.5 0.999023s29.167 -0.333984 45.5 -2.00098s29.5 -4.16699 39.5 -7.5c12 -4 22.833 -16.333 32.5 -37
s18.334 -41.667 26.001 -63s14.834 -34 21.501 -38c7.33301 -4.66699 20 -18 38 -40s37 -40.667 57 -56c14 -12 31.5 -22.667 52.5 -32s36.167 -16.666 45.5 -21.999s12.333 -11.666 9 -18.999c-6 -11.333 -24.5 -32.5 -55.5 -63.5s-53.167 -51.833 -66.5 -62.5
c-5.33301 -4 -11.166 -14 -17.499 -30s-13.666 -36.5 -21.999 -61.5s-15.166 -43.5 -20.499 -55.5c-10 -24.667 -24 -48.834 -42 -72.501s-32.667 -38.834 -44 -45.501c-2 -1.33301 -6.16699 -4.66602 -12.5 -9.99902s-12.666 -10.333 -18.999 -15s-14 -9.5 -23 -14.5
s-17.833 -8.83301 -26.5 -11.5s-18.167 -3.66699 -28.5 -3s-20.5 3.33398 -30.5 8.00098c-28.667 14.667 -58.167 44.5 -88.5 89.5s-48.166 81.833 -53.499 110.5c-2.66699 19.333 -10.667 41.166 -24 65.499s-22.666 46.166 -27.999 65.499c-4 12.667 -7 27 -9 43
l-4.5 36.5c-1 8.33301 -5 17.166 -12 26.499s-17.5 17 -31.5 23c-12.667 6.66699 -27.334 9.5 -44.001 8.5s-31.667 -3.66699 -45 -8s-28.166 -7.16602 -44.499 -8.49902s-31.166 1 -44.499 7c-29.333 12.667 -57.166 31.5 -83.499 56.5s-47.5 53.5 -63.5 85.5
c0 4 0.333008 9.33301 1 16s2.83398 19.167 6.50098 37.5s8 35.166 13 50.499s12.5 31.166 22.5 47.499s21 28.166 33 35.499c19.333 11.333 37.333 23 54 35l40.5 30c10.333 8 17.166 13 20.499 15c15.333 9.33301 24.333 25.666 27 48.999c2 18 8 39.5 18 64.5
s20.333 40.5 31 46.5c13.333 6.66699 26.666 17.5 39.999 32.5s19 26.167 17 33.5c-0.666992 1.33301 -2.16699 4.5 -4.5 9.5s-4.5 10.167 -6.5 15.5l-7 18.5c-2.66699 7 -5 13.667 -7 20s-3.66699 12.333 -5 18s-1.83301 10.334 -1.5 14.001s1.5 6.16699 3.5 7.5
c9.33301 6 22.666 9.33301 39.999 10s30.666 -3.66602 39.999 -12.999c3.33301 -5.33301 7 -12.5 11 -21.5s7.66699 -15.667 11 -20s7.66602 -6.5 12.999 -6.5c2 0 6.83301 -0.333008 14.5 -1s13.167 -0.833984 16.5 -0.500977s6.83301 2.16602 10.5 5.49902
s5.5 8.66602 5.5 15.999c0 42.667 15.667 83.334 47 122.001c6 6.66699 12 14.5 18 23.5l14.5 21.5c3.66699 5.33301 7.83398 10.666 12.501 15.999s9.33398 9.16602 14.001 11.499s10.167 3.5 16.5 3.5s13.5 -1.66699 21.5 -5c12.667 -5.33301 24.667 -12.166 36 -20.499
s20.166 -14.5 26.499 -18.5s13.166 -5 20.499 -3c17.333 5.33301 40.166 21.333 68.499 48s40.833 50 37.5 70c-4 22.667 -4.16699 61.334 -0.5 116.001s9.16699 85.334 16.5 92.001c9.33301 8 17.333 13.667 24 17c-100.667 36 -204.667 54 -312 54
c-92 0 -181.333 -13.333 -268 -40l18 -11c8 -5.33301 16.667 -11.833 26 -19.5l36.5 -31.5c15 -13.333 23.833 -21.333 26.5 -24c6.66699 -5.33301 11.167 -11 13.5 -17s3.33301 -11.167 3 -15.5s-1.5 -11.5 -3.5 -21.5s-3.33301 -18.667 -4 -26
c-0.666992 -11.333 -7.83398 -25.333 -21.501 -42s-28.834 -32.667 -45.501 -48s-26.334 -25.333 -29.001 -30c-7.33301 -10.667 -22.666 -19.167 -45.999 -25.5s-39.666 -6.16602 -48.999 0.500977c-4.66699 3.33301 -21.834 7.5 -51.501 12.5s-54.167 12.167 -73.5 21.5
c-4 2 -9 4.33301 -15 7c-14.667 7.33301 -25 11 -31 11c-8.66699 -0.666992 -17.667 -0.666992 -27 0c-10.667 1.33301 -19.834 -0.5 -27.501 -5.5s-13.5 -11 -17.5 -18s-10.167 -14 -18.5 -21s-18.166 -11.5 -29.499 -13.5c-22 -4 -45.667 4 -71 24
c-66 -80.667 -117.167 -170.334 -153.5 -269.001s-54.5 -202 -54.5 -310c0 -12 0.333008 -24.333 1 -37c5.33301 1.33301 11.333 1 18 -1c37.333 -59.333 66.333 -112.666 87 -159.999c17.333 -39.333 28.666 -67 33.999 -83s7 -28.333 5 -37
c-0.666992 -0.666992 -1.33398 -2 -2.00098 -4c-1.33301 -4.66699 -2.5 -8.33398 -3.5 -11.001l-4.5 -11.5c-2 -5 -4.33301 -8.66699 -7 -11s-6 -4.66602 -10 -6.99902s-8.83301 -3.5 -14.5 -3.5s-12.167 1.33301 -19.5 4c-4 2 -9 7 -15 15
c45.333 -110.667 109.666 -208.667 192.999 -294s181.5 -152 294.5 -200s231.833 -72 356.5 -72c82.667 0 163.5 11 242.5 33s151.833 52.5 218.5 91.5s128 86.667 184 143s103.667 117.833 143 184.5s70 139.334 92 218.001s33 159.667 33 243
c0 56.667 -5.33301 112.667 -16 168c-0.666992 -3.33301 -1.66699 -6.33301 -3 -9zM1471.99 -76.002c-2 -2 -5.83301 -6.83301 -11.5 -14.5l-17 -22c-5.66699 -7 -11.834 -13.333 -18.501 -19s-13.5 -7.66699 -20.5 -6s-13.5 7.5 -19.5 17.5c-17.333 30 -23 59.667 -17 89
c2.66699 15.333 7.66699 20 15 14c0.666992 -0.666992 1.33398 -1.66699 2.00098 -3c40 6 68 5.33301 84 -2c11.333 -4.66699 17 -13.167 17 -25.5s-4.66699 -21.833 -14 -28.5z" />
    <glyph glyph-name="at" unicode="@" 
d="M1024 -378c-90 0 -177.833 11.833 -263.5 35.5s-164.834 56.834 -237.501 99.501s-139.5 94.5 -200.5 155.5s-112.833 127.833 -155.5 200.5s-75.834 151.834 -99.501 237.501s-35.5 173.5 -35.5 263.5s11.833 177.833 35.5 263.5s56.834 164.834 99.501 237.501
s94.5 139.5 155.5 200.5s127.833 112.833 200.5 155.5s151.834 75.834 237.501 99.501s173.5 35.5 263.5 35.5s177.833 -11.833 263.5 -35.5s164.834 -56.834 237.501 -99.501s139.5 -94.5 200.5 -155.5s112.833 -127.833 155.5 -200.5s75.834 -151.834 99.501 -237.501
s35.5 -173.5 35.5 -263.5s-11.833 -177.833 -35.5 -263.5s-56.834 -164.834 -99.501 -237.501s-94.5 -139.5 -155.5 -200.5s-127.833 -112.833 -200.5 -155.5s-151.834 -75.834 -237.501 -99.501s-173.5 -35.5 -263.5 -35.5zM1385 -120c6 -10 12.498 -15.832 19.498 -17.499
s13.833 0.333008 20.5 6s12.834 11.834 18.501 18.501s11.334 14 17.001 22s9.5 13 11.5 15c9.33301 6.66699 14 16.167 14 28.5s-5.66699 20.833 -17 25.5c-7.33301 3.33301 -18 5.16602 -32 5.49902s-26.167 -0.166992 -36.5 -1.5l-15.5 -2
c-7.33301 9.33301 -12.666 6.66602 -15.999 -8.00098c-6.66699 -26 -2.33398 -54.333 12.999 -85c0.666992 -2.66699 1.66699 -5 3 -7zM216.998 422.001c-9.33301 21.333 -21.168 45.3311 -35.501 71.998s-26.5 48 -36.5 64l-15 24c-27.333 6.66699 -42 -7.33301 -44 -42
c-1.33301 -47.333 15.667 -111 51 -191c24 -54.667 43.333 -85 58 -91c7.33301 -2.66699 13.666 -4.16699 18.999 -4.5s10 0.833984 14 3.50098s7.5 5.16699 10.5 7.5s5.5 6 7.5 11l4.5 11.5c1 2.66699 2.16699 6.33398 3.5 11.001c0.666992 2 1 3.33301 1 4
c2.66699 8.66699 1.33398 21 -3.99902 37s-16.666 43.667 -33.999 83zM862.996 1406c-2.66699 2.66699 -11.4922 10.665 -26.4922 23.998l-36.5 31.5c-9.33301 7.66699 -18 14.167 -26 19.5c-0.666992 0 -1.66699 0.666992 -3 2c-6.66699 4 -12.5 7.33301 -17.5 10
s-14.333 5 -28 7s-28 1.33301 -43 -2s-35.5 -10.666 -61.5 -21.999s-53.833 -26.833 -83.5 -46.5s-65.834 -47 -108.501 -82s-88.334 -76.167 -137.001 -123.5c1.33301 -1.33301 3.16602 -3.33301 5.49902 -6s7.16602 -7.16699 14.499 -13.5s14.666 -11.666 21.999 -15.999
s16.166 -8 26.499 -11s20.166 -3.83301 29.499 -2.5c11.333 2 21.166 6.5 29.499 13.5s14.5 13.833 18.5 20.5s9.83301 12.667 17.5 18s16.834 7.33301 27.501 6c9.33301 -0.666992 18.333 -0.666992 27 0c6 0 16.333 -3.66699 31 -11c6 -2.66699 11 -5 15 -7
c19.333 -9.33301 43.833 -16.5 73.5 -21.5s46.834 -9.16699 51.501 -12.5c9.33301 -6.66699 25.666 -6.83398 48.999 -0.500977s38.666 14.833 45.999 25.5c2.66699 4.66699 12.334 14.667 29.001 30s31.667 31.333 45 48s20.666 30.667 21.999 42
c0.666992 7.33301 2 15.833 4 25.5s3.16699 16.834 3.5 21.501s-0.666992 10 -3 16s-6.83301 11.667 -13.5 17zM1647 1332c-34 30.667 -65.9961 56.6709 -95.9961 78.0039s-55.167 37.5 -75.5 48.5s-40 18.333 -59 22s-33.333 5.83398 -43 6.50098s-20 -1.5 -31 -6.5
s-17.333 -8.33301 -19 -10s-5.5 -4.83398 -11.5 -9.50098c-7.33301 -6.66699 -12.833 -37.334 -16.5 -92.001s-3.5 -93.334 0.5 -116.001c3.33301 -20 -9.16699 -43.333 -37.5 -70s-51.166 -42.667 -68.499 -48c-7.33301 -2 -14.166 -1 -20.499 3
s-15.166 10.167 -26.499 18.5s-23.333 15.166 -36 20.499c-8 3.33301 -15.167 5 -21.5 5s-11.833 -1.16699 -16.5 -3.5s-9.33398 -6.16602 -14.001 -11.499s-8.83398 -10.666 -12.501 -15.999l-14.5 -21.5c-6 -9 -12 -16.833 -18 -23.5
c-31.333 -38.667 -47 -79.334 -47 -122.001c0 -7.33301 -1.83301 -12.666 -5.5 -15.999s-7.16699 -5.16602 -10.5 -5.49902s-8.83301 -0.166016 -16.5 0.500977s-12.5 1 -14.5 1c-5.33301 0 -9.66602 2.16699 -12.999 6.5s-7 11 -11 20s-7.66699 16.167 -11 21.5
c-9.33301 9.33301 -22.666 13.666 -39.999 12.999s-30.666 -4 -39.999 -10c-2 -1.33301 -3.16699 -3.83301 -3.5 -7.5s0.166992 -8.33398 1.5 -14.001s3 -11.667 5 -18s4.33301 -13 7 -20l7 -18.5c2 -5.33301 4.16699 -10.5 6.5 -15.5s3.5 -8.5 3.5 -10.5
c2.66699 -6.66699 -2.83301 -17.5 -16.5 -32.5s-26.834 -25.833 -39.501 -32.5c-10.667 -6 -21 -21.5 -31 -46.5s-16 -46.5 -18 -64.5c-2.66699 -23.333 -11.667 -39.666 -27 -48.999c-3.33301 -2 -10.166 -7 -20.499 -15l-40.5 -30c-16.667 -12 -34.667 -23.667 -54 -35
c-19.333 -12 -35.333 -33.667 -48 -65s-20.667 -59.666 -24 -84.999l-4 -38c16 -31.333 37.167 -59.5 63.5 -84.5s54.166 -43.833 83.499 -56.5c12.667 -6 27.334 -8.33301 44.001 -7s31.667 4.16602 45 8.49902s28.333 7 45 8s31.334 -1.83301 44.001 -8.5
c14 -6 24.333 -13.667 31 -23s10.667 -18.166 12 -26.499s3 -20.5 5 -36.5s5 -30.333 9 -43c5.33301 -20 14.666 -42 27.999 -66s21.333 -45.667 24 -65c5.33301 -28.667 23.166 -65.5 53.499 -110.5s59.833 -74.833 88.5 -89.5c10 -4.66699 20.167 -7.33398 30.5 -8.00098
s19.833 0.333008 28.5 3s17.5 6.5 26.5 11.5s16.667 9.83301 23 14.5s12.666 9.66699 18.999 15s10.5 8.66602 12.5 9.99902c11.333 6.66699 26 21.834 44 45.501s32 47.834 42 72.501c4.66699 12 11.167 30.5 19.5 55.5s15.833 45.5 22.5 61.5s12.667 26 18 30
c13.333 10.667 35.5 31.5 66.5 62.5s49.5 52.167 55.5 63.5c3.33301 7.33301 0.333008 13.666 -9 18.999s-24.5 12.666 -45.5 21.999s-38.833 20 -53.5 32c-19.333 15.333 -38 34 -56 56s-30.667 35.333 -38 40c-6.66699 4 -13.834 16.667 -21.501 38
s-16.334 42.333 -26.001 63s-20.5 33 -32.5 37c-10 3.33301 -23.167 5.83301 -39.5 7.5s-31.5 2.33398 -45.5 2.00098s-31.833 -0.833008 -53.5 -1.5s-37.5 -1 -47.5 -1c-14 0 -26.333 2.66699 -37 8s-18.167 10.666 -22.5 15.999s-9.33301 13 -15 23
s-9.16699 15.667 -10.5 17c-6.66699 8.66699 -24.5 17.834 -53.5 27.501s-51.833 16.167 -68.5 19.5c-8 2 -14 7.16699 -18 15.5s-6 16.5 -6 24.5c0 4 5.66699 8.33301 17 13s24.666 9.5 39.999 14.5s25.666 8.83301 30.999 11.5s32.666 3.16699 81.999 1.5
s76.333 0.833008 81 7.5c5.33301 5.33301 16.5 5.33301 33.5 0s36.667 -12.5 59 -21.5s38.833 -14.167 49.5 -15.5c18.667 -2 32.667 -10.833 42 -26.5s13.666 -30.834 12.999 -45.501c-0.666992 -5.33301 2.83301 -11.166 10.5 -17.499s16 -12.333 25 -18
s17.167 -14.334 24.5 -26.001s10.333 -24.5 9 -38.5c-2 -6.66699 -2.33301 -14 -1 -22s1.83301 -14 1.5 -18s1 -9 4 -15l7 -14c1.66699 -3.33301 5 -8.16602 10 -14.499l12.5 -15.5l15 -18.5c6.66699 -8.33301 12.667 -16.166 18 -23.499
c12.667 -15.333 27.667 -25.166 45 -29.499s34 -3.83301 50 1.5s30.5 12.5 43.5 21.5s22.833 18.5 29.5 28.5c16 26.667 22 51.334 18 74.001c-3.33301 15.333 -12.666 21.666 -27.999 18.999c-12 -2 -24.333 1.16699 -37 9.5s-21.834 18.166 -27.501 29.499
s-6.5 19.666 -2.5 24.999c7.33301 5.33301 19.5 6.16602 36.5 2.49902s36.667 -5.5 59 -5.5s37.166 5 44.499 15c8.66699 12.667 21.334 20.834 38.001 24.501s32.167 1.16699 46.5 -7.5s21.833 -22.667 22.5 -42c1.33301 -18.667 10.166 -35.334 26.499 -50.001
s33.333 -24.667 51 -30s30.834 -6 39.501 -2c5.33301 2.66699 8.33301 8.66699 9 18s0 20.833 -2 34.5s-3.5 29 -4.5 46s-0.5 34.5 1.5 52.5c2 17.333 6 32.166 12 44.499s12.5 21.666 19.5 27.999l27 25c11 10.333 19.833 19.833 26.5 28.5
c57.333 153.333 -33 337.666 -271 552.999z" />
    <glyph glyph-name="A" unicode="A" 
d="M1024 89c-74.667 0 -150.332 9.66504 -226.999 28.998s-146.667 44.5 -210 75.5s-124.333 65.167 -183 102.5s-110.167 74.666 -154.5 111.999s-83 71.5 -116 102.5s-58.333 56 -76 75s-26.167 28.5 -25.5 28.5c6 7.33301 14.833 17.333 26.5 30
s36.334 37.167 74.001 73.5s76.834 71.166 117.501 104.499s91.834 70.166 153.501 110.499s123.167 75 184.5 104s130.666 53.5 207.999 73.5s153.333 30 228 30c58.667 0 118 -6 178 -18s116.167 -28.167 168.5 -48.5s103.666 -43.666 153.999 -69.999s96.5 -54 138.5 -83
s81.833 -58 119.5 -87s70.5 -56.667 98.5 -83l73 -70c20.667 -20.333 36 -36.5 46 -48.5l16 -18c-6 -7.33301 -14.833 -17.166 -26.5 -29.499s-36.334 -36.666 -74.001 -72.999s-76.834 -71.166 -117.501 -104.499s-91.834 -70.166 -153.501 -110.499
s-123.167 -75 -184.5 -104s-130.666 -53.5 -207.999 -73.5s-153.333 -30 -228 -30zM1026.5 1010c-71 0 -136.833 -17.5 -197.5 -52.5s-108.5 -82.667 -143.5 -143s-52.5 -126.166 -52.5 -197.499s17.5 -137.166 52.5 -197.499s82.833 -108 143.5 -143
s126.5 -52.5 197.5 -52.5s136.667 17.5 197 52.5s108.166 82.667 143.499 143s53 126.166 53 197.499s-17.667 137.166 -53 197.499s-83.166 108 -143.499 143s-126 52.5 -197 52.5zM1026 386.998c-63.333 0 -117.5 22.333 -162.5 67s-67.5 98.834 -67.5 162.501
s22.5 117.834 67.5 162.501s99.167 67 162.5 67s117.5 -22.333 162.5 -67s67.5 -98.834 67.5 -162.501s-22.5 -117.834 -67.5 -162.501s-99.167 -67 -162.5 -67z" />
    <glyph glyph-name="B" unicode="B" 
d="M1485 1301c146 -10 255.338 -9.66211 328.005 1.00488c-1.33301 -4 -3.83301 -15 -7.5 -33s-7.66699 -35.833 -12 -53.5s-7.83301 -30.834 -10.5 -39.501c-2 -6 -16.5 -9.83301 -43.5 -11.5s-59.167 -1.66699 -96.5 0s-74.333 3.83398 -111 6.50098l-94 7l-38 4
c18.667 -8.66699 42.5 -19.167 71.5 -31.5s74.167 -30 135.5 -53s105.333 -36.5 132 -40.5c-9.33301 -24 -28.833 -61.5 -58.5 -112.5s-51.834 -85.167 -66.501 -102.5c-8 -10 -47.667 -20.333 -119 -31s-140.666 -19 -207.999 -25l-101 -8
c17.333 -4.66699 40 -10.334 68 -17.001s71.5 -15.167 130.5 -25.5s101.833 -15.166 128.5 -14.499c-21.333 -22 -64 -61 -128 -117c-15.333 -14 -61 -26.667 -137 -38s-148 -19 -216 -23l-103 -7c14 -3.33301 32.333 -7.33301 55 -12s61.5 -10.334 116.5 -17.001
s101.5 -9 139.5 -7c-26.667 -16.667 -69.334 -41.334 -128.001 -74.001c-19.333 -10.667 -54.833 -19.834 -106.5 -27.501s-98.5 -12.834 -140.5 -15.501l-64 -4c63.333 -14 118.333 -21 165 -21c-14.667 -8.66699 -56.334 -23.834 -125.001 -45.501
s-126.334 -37.834 -173.001 -48.501l-441 -637c-3.33301 -4.66699 -5.83301 -6.66699 -7.5 -6s-1.16699 3.66699 1.5 9l48 114.5c18 41.667 46.167 102.5 84.5 182.5s78 158.833 119 236.5s91.333 166.334 151 266.001s120.167 194 181.5 283s131.166 180.5 209.499 274.5
s157.166 178.667 236.499 254s166.166 145 260.499 209s188.833 114.333 283.5 151c12.667 3.33301 20.834 3.5 24.501 0.5s5.5 -10.833 5.5 -23.5c6 -79.333 5.66699 -141 -1 -185c-2 -10.667 -31.333 -23.5 -88 -38.5s-112.667 -27.833 -168 -38.5z" />
    <glyph glyph-name="C" unicode="C" 
d="M1466 628c-74.667 0 -146.169 -14.668 -214.502 -44.001s-127.166 -68.666 -176.499 -117.999s-88.5 -108 -117.5 -176s-43.5 -139.667 -43.5 -215c0 -66.667 11.5 -130.5 34.5 -191.5s55.167 -116.167 96.5 -165.5h-917v1888h1160l440 -439v-605
c-81.333 44 -168.666 66 -261.999 66zM1466.5 -378.001c-61.667 0 -120.5 12 -176.5 36s-104.167 56.167 -144.5 96.5s-72.5 88.5 -96.5 144.5s-36 114.833 -36 176.5s12 120.5 36 176.5s56.167 104.167 96.5 144.5s88.5 72.5 144.5 96.5s114.833 36 176.5 36
s120.5 -12 176.5 -36s104.167 -56.167 144.5 -96.5s72.5 -88.5 96.5 -144.5s36 -114.833 36 -176.5s-12 -120.5 -36 -176.5s-56.167 -104.167 -96.5 -144.5s-88.5 -72.5 -144.5 -96.5s-114.833 -36 -176.5 -36zM1696 133.999h-58v125c0 44 -15.333 81.333 -46 112
s-67.667 46 -111 46h-20c-43.333 0 -80.333 -15.333 -111 -46s-46 -68 -46 -112v-125h-56v-288h448v288zM1471 357.999c30 0 55.5 -10.499 76.5 -31.499s31.5 -46.5 31.5 -76.5v-116h-216v116c0 29.333 10.5 54.666 31.5 75.999s46.5 32 76.5 32z" />
    <glyph glyph-name="D" unicode="D" 
d="M608 6v1600h971l373 -374v-1226h-1344zM1568 -378h-1472v1728h384v-1472h1088v-256z" />
    <glyph glyph-name="E" unicode="E" 
d="M1963 -186h-1878c-14.667 0 -27.167 5.16699 -37.5 15.5s-15.5 22.833 -15.5 37.5v1238c0 14.667 5 27.167 15 37.5s22 15.5 36 15.5h96l37 171c0 14.667 5.16699 27.167 15.5 37.5s22.833 15.5 37.5 15.5h662c14.667 0 27.167 -5.16699 37.5 -15.5
s15.5 -22.833 15.5 -37.5l37 -171h942c14.667 0 27.167 -5.16699 37.5 -15.5s15.5 -22.833 15.5 -37.5v-1238c0 -14.667 -5.16699 -27.167 -15.5 -37.5s-22.833 -15.5 -37.5 -15.5z" />
    <glyph glyph-name="F" unicode="F" 
d="M1954 134l-98.001 -0.000976562v-130c0 -17.333 -6.16699 -32 -18.5 -44s-27.166 -18 -44.499 -18h-1699c-16.667 0 -31.167 6 -43.5 18s-18.5 26.667 -18.5 44v1028c0 16.667 6.16699 31.167 18.5 43.5s26.833 18.5 43.5 18.5h130v98c0 16.667 6.16699 31.167 18.5 43.5
s26.833 18.5 43.5 18.5h1668c16.667 0 31.167 -6.16699 43.5 -18.5s18.5 -26.833 18.5 -43.5v-995c0 -17.333 -6.16699 -32.166 -18.5 -44.499s-26.833 -18.5 -43.5 -18.5zM223.999 196.999v801.001h-64c-14.667 0 -23.667 -1.83301 -27 -5.5s-5 -13.167 -5 -28.5v-892
c0 -15.333 1.66699 -24.833 5 -28.5s12.333 -5.5 27 -5.5h1566c14.667 0 24 2.5 28 7.5s6 15.167 6 30.5v58h-1474c-16.667 0 -31.167 6.16699 -43.5 18.5s-18.5 27.166 -18.5 44.499zM1920 1124c0 14.667 -2.16797 24 -6.50098 28s-14.166 6 -29.499 6h-1532
c-14.667 0 -23.667 -1.83301 -27 -5.5s-5 -13.167 -5 -28.5v-860c0 -15.333 1.66699 -24.833 5 -28.5s12.333 -5.5 27 -5.5h1534c14.667 0 24 2.33301 28 7s6 15 6 31v856zM1710 262l-853.999 -0.000976562h-359c-11.333 0 -19.833 0.166992 -25.5 0.5
s-11.334 0.833008 -17.001 1.5s-9 2.16699 -10 4.5s-1.83301 4.83301 -2.5 7.5s0.833008 6.83398 4.5 12.501s7.66699 11.5 12 17.5l18.5 25l191 242c24 28.667 46.167 43 66.5 43s40.833 -14.333 61.5 -43h1l1 -1v-1l1 -1l1 -1v-1l1 -1l1 -1l1 -1l1 -1l1 -1v-1l1 -1l1 -1
v-1l1 -1l1 -1l1 -1v-1h1l1 -1l1 -1v-1l1 -1l1 -1v-1l1 -1l1 -1l1 -1v-1l1 -1l1 -1l1 -1l1 -1l1 -1l1 -1v-1l1 -1l1 -1l1 -1v-1l1 -1l1 -1l1 -1v-1l1 -1l1 -1l1 -1v-1l1 -1l1 -1l1 -1v-1l1 -1h1l1 -1v-1l1 -1l1 -1l1 -1l1 -1v-1l1 -1l1 -1l1 -1v-1l1 -1l1 -1l1 -1v-1l1 -1
l1 -1l1 -1l1 -1v-1l1 -1l1 -1l1 -1v-1l1 -1l1 -1l1 -1l1 -1v-1l1 -1l1 -1l1 -1v-1l1 -1l1 -1l1 -1l1 -1v-1l1 -1l1 -1l1 -1l1 -1v-1l1 -1l1 -1l1 -1v-1l1 -1l1 -1l1 -1l1 -1v-1l1 -1l1 -1l1 -1l1 -1v-1l1 -1l1 -1l1 -1l1 -1v-1l1 -1l1 -1l1 -1v-1l1 -1l1 -1l1 -1l1 -1l1 -1
v-1l1 -1l1 -1l1 -1l1 -1v-1l1 -1l1 -1l1 -1l1 -1l1 -1v-1l1 -1l1 -1l1 -1l1 -2v-1l1 -1l1 -1l1 -1l1 -1v-1l1 -1l1 -1l1 -1l1 -1l1 -1v-1l1 -1l1 -1l1 -1l1 -1v-1l1 -1l1 -1l1 -1l1 -1v-1l1 -1l1 -1l1 -1l1 -1v-1l1 -1l1 -1l1 -1l1 -1l1 -1v-1l1 -1l1 -1l1 -1l1 -1v-1l1 -1
l1 -1l1 -2l1 -1v-1l1 -1l1 -1l1 -1l1 -1v-1l1 -1l1 -1l1 -1v-1l1 -1l2 -1l90 110l110 134.5l88 107.5c18.667 24 34.5 41.333 47.5 52s26 16 39 16s25.667 -5.33301 38 -16s27.5 -28 45.5 -52l330 -404c24 -30 34.667 -48 32 -54s-23 -9.33301 -61 -10zM943.499 645.999
c-48.333 0 -89.666 17.167 -123.999 51.5s-51.5 75.833 -51.5 124.5s17.167 90.167 51.5 124.5s75.666 51.5 123.999 51.5s89.666 -17.167 123.999 -51.5s51.5 -75.833 51.5 -124.5s-17.167 -90.167 -51.5 -124.5s-75.666 -51.5 -123.999 -51.5z" />
    <glyph glyph-name="G" unicode="G" 
d="M736 294h576v-416h-576v416zM32 294h576v-416h-576v416zM1440 294h576v-416h-576v416zM32 806h576v-416h-576v416zM736 806h576v-416h-576v416zM1440 806h576v-416h-576v416zM32 1318h576v-416h-576v416zM736 1318h576v-416h-576v416zM1440 1318h576v-416h-576v416z" />
    <glyph glyph-name="H" unicode="H" 
d="M1839 422l-118.002 0.00195312c-4 0 -8.83301 0.833008 -14.5 2.5s-9.16699 3.83398 -10.5 6.50098v-134c0 -10 -3.33301 -18.333 -10 -25s-15 -10 -25 -10h-186c-9.33301 0 -17.5 3.33301 -24.5 10s-10.5 15 -10.5 25v570c0 10 3.5 18.333 10.5 25s15.167 10 24.5 10
h186c10 0 18.333 -3.33301 25 -10s10 -15 10 -25v-134c1.33301 2.66699 4.83301 4.83398 10.5 6.50098s10.5 2.5 14.5 2.5h9c4.66699 30 7 65.667 7 107c0 93.333 -19.167 182.666 -57.5 267.999s-89.333 158.666 -153 219.999s-138.834 110.333 -225.501 147
s-176.667 55 -270 55s-182.5 -18.333 -267.5 -55s-158.167 -85.834 -219.5 -147.501s-110.166 -135 -146.499 -220s-54.5 -174.167 -54.5 -267.5c0 -40 2.66699 -75.667 8 -107h10c12 0 19.667 -1.66699 23 -5v130c0 10 3.33301 18.333 10 25s15 10 25 10h186
c9.33301 0 17.5 -3.33301 24.5 -10s10.5 -15 10.5 -25v-570c0 -10 -3.5 -18.333 -10.5 -25s-15.167 -10 -24.5 -10h-186c-10 0 -18.333 3.33301 -25 10s-10 15 -10 25v130c-3.33301 -3.33301 -11 -5 -23 -5h-15v-350l215 -223l5 5c6.66699 6.66699 14.834 10 24.501 10
s17.834 -3.33301 24.501 -10l111 -111c6.66699 -6.66699 10 -14.834 10 -24.501s-3.33301 -17.834 -10 -24.501l-62 -62c-6.66699 -6.66699 -14.834 -10 -24.501 -10s-17.834 3.33301 -24.501 10l-111 111c-6.66699 6.66699 -10 14.834 -10 24.501s3.33301 17.834 10 24.501
l8 8l-226 233c-3.33301 4 -6 8.33301 -8 13c-1.33301 4 -2 8.33301 -2 13v363h-35c-4.66699 0 -8.66699 1.66699 -12 5s-5 7.33301 -5 12v286c0 4.66699 1.66699 8.66699 5 12s7.33301 5 12 5h41c-4 31.333 -6 67 -6 107c0 102.667 19.833 200.667 59.5 294
s93.334 173.833 161.001 241.5s148 121.5 241 161.5s190.833 60 293.5 60s201.5 -20 296.5 -60s177.333 -93.833 247 -161.5s125.334 -148.334 167.001 -242.001s62.5 -191.5 62.5 -293.5c0 -41.333 -2 -77 -6 -107h41c4.66699 0 8.66699 -1.66699 12 -5s5 -7.33301 5 -12
v-286c0 -4.66699 -1.66699 -8.66699 -5 -12s-7.33301 -5 -12 -5z" />
    <glyph glyph-name="I" unicode="I" 
d="M1024 1147c2 4.66699 5 11.0068 9 19.0068s13.333 23.5 28 46.5s30.334 44.833 47.001 65.5s38.834 43.667 66.501 69s56.334 47.166 86.001 65.499s64.667 33.833 105 46.5s81.833 19 124.5 19c77.333 0 149 -14.333 215 -43s121.667 -67.834 167 -117.501
s80.833 -108.834 106.5 -177.501s38.5 -142.334 38.5 -221.001c0 -49.333 -11.333 -103 -34 -161s-53.167 -115.167 -91.5 -171.5s-82.333 -114 -132 -173s-102 -115.167 -157 -168.5l-164.5 -154.5c-54.667 -49.667 -106.834 -94.5 -156.501 -134.5l-132 -105l-91.5 -70
l-34 -24l-35 25l-89.5 68.5l-133.5 106c-44 35.667 -95.833 80 -155.5 133s-115 105 -166 156s-102.667 106.833 -155 167.5s-96.833 118.667 -133.5 174s-66.667 112.166 -90 170.499s-35 112.166 -35 161.499c0 63.333 6.33301 122.666 19 177.999s32.5 106.5 59.5 153.5
s60.167 87.167 99.5 120.5s87.166 59.5 143.499 78.5s118.833 28.5 187.5 28.5c48 0 93.833 -6 137.5 -18s81.167 -27.833 112.5 -47.5s60.5 -41.167 87.5 -64.5s49.333 -46.833 67 -70.5s32.667 -45.167 45 -64.5s21.166 -35.333 26.499 -48z" />
    <glyph glyph-name="J" unicode="J" 
d="M1997 515l-44.9971 -45c-12.667 -12.667 -27.834 -19 -45.501 -19s-32.834 6.33301 -45.501 19l-837 837l-838 -837c-12 -12.667 -26.833 -19 -44.5 -19s-32.834 6.33301 -45.501 19l-45 45c-12.667 12.667 -19 27.834 -19 45.501s6.33301 32.5 19 44.5l915 916
c14 14 33.167 21 57.5 21s43.833 -7 58.5 -21l915 -916c12.667 -12 19 -26.833 19 -44.5s-6.33301 -32.834 -19 -45.501zM1792 388v-638c0 -18 -6.33301 -33.167 -19 -45.5s-27.667 -18.5 -45 -18.5h-512v574h-385v-574h-511c-18 0 -33.167 6.16699 -45.5 18.5
s-18.5 27.5 -18.5 45.5v638l768 787z" />
    <glyph glyph-name="K" unicode="K" 
d="M1975 322c0 -22 -7.33594 -41.333 -22.0029 -58s-33 -26.334 -55 -29.001c2.66699 -9.33301 5.33398 -20.333 8.00098 -33s5.5 -32.334 8.5 -59.001s4.16699 -52.667 3.5 -78s-4.5 -54 -11.5 -86s-17.333 -61.333 -31 -88s-33.834 -52.834 -60.501 -78.501
s-58.167 -46.667 -94.5 -63s-82.5 -28.333 -138.5 -36s-118.667 -8.83398 -188 -3.50098c-7.33301 -14 -18 -25.333 -32 -34s-29.333 -13 -46 -13l-45.5 -11c-19 -4.66699 -54.5 -10.834 -106.5 -18.501s-99.333 -11.5 -142 -11.5c-26.667 0 -54.667 1.5 -84 4.5
s-55.666 6.5 -78.999 10.5s-45 8 -65 12s-35.333 7.33301 -46 10l-16 4c-17.333 0 -33 4.5 -47 13.5s-24.667 20.833 -32 35.5c-74.667 -7.33301 -142 -7.16602 -202 0.500977s-109.167 20.334 -147.5 38.001s-71 40.5 -98 68.5s-47 56.167 -60 84.5s-22.333 59.5 -28 93.5
s-8.33398 63.833 -8.00098 89.5s2.33301 51.834 6 78.501s6.66699 44.334 9 53.001l5.5 21h3c-17.333 6 -31.666 16.5 -42.999 31.5s-17 32.167 -17 51.5l-11 45.5c-4.66699 19 -10.834 54.5 -18.501 106.5s-11.5 99.333 -11.5 142c0 42 3.5 87.167 10.5 135.5
s13.833 86.166 20.5 113.499l10 41c0 18 5 34.333 15 49s23 25.334 39 32.001c-4 17.333 -7.66699 36.166 -11 56.499s-5.16602 50 -5.49902 89s3.16699 75.5 10.5 109.5s22.833 69.667 46.5 107s54.334 68.333 92.001 93s90 43.334 157 56.001s144.5 15 232.5 7
c5.33301 17.333 15.666 31.666 30.999 42.999s32.666 17 51.999 17l45.5 11c19 4.66699 54 10.834 105 18.501s97.5 11.5 139.5 11.5c42.667 0 88.5 -3.5 137.5 -10.5s87.5 -13.833 115.5 -20.5l41 -10c18.667 0 35.667 -5.5 51 -16.5s26 -25.167 32 -42.5
c65.333 5.33301 124.666 4.5 177.999 -2.5s97.833 -18 133.5 -33s66.834 -34 93.501 -57s47.334 -47 62.001 -72s26.334 -52.5 35.001 -82.5s13.834 -57.5 15.501 -82.5s1.66699 -50.833 0 -77.5s-3.83398 -47.667 -6.50098 -63s-5.66699 -29.666 -9 -42.999
c21.333 -4 39 -14 53 -30s21 -35 21 -57l11 -45.5c4.66699 -19 10.834 -54 18.501 -105s11.5 -97.5 11.5 -139.5c0 -42.667 -3.5 -88.5 -10.5 -137.5s-13.833 -87.5 -20.5 -115.5zM1464 911c-38.667 56.667 -85.999 104.331 -141.999 142.998c-15.333 -10 -32 -15 -50 -15
c-7.33301 2.66699 -18 6.33398 -32 11.001s-42.5 10.667 -85.5 18s-85.833 11 -128.5 11c-42 0 -83.833 -3.33301 -125.5 -10s-72.834 -13.334 -93.501 -20.001l-31 -10c-21.333 0 -40 6.66699 -56 20c-56.667 -37.333 -104.334 -83.333 -143.001 -138
c14.667 -16.667 22 -36.334 22 -59.001l-11 -34c-4.66699 -14.667 -10.667 -43.834 -18 -87.501s-11 -86.5 -11 -128.5c0 -42.667 3.33301 -84.5 10 -125.5s13.334 -71.5 20.001 -91.5l10 -29c0 -25.333 -9.33301 -46.666 -28 -63.999c38.667 -55.333 85.667 -102 141 -140
c17.333 18 38.666 27 63.999 27l34 -11c14.667 -4.66699 43.834 -10.667 87.501 -18s86.5 -11 128.5 -11c42.667 0 84.5 3.33301 125.5 10s71.5 13.334 91.5 20.001l29 10c22 0 41.333 -7 58 -21c54.667 38.667 100.667 86.334 138 143.001c-12.667 16 -19 34.333 -19 55
c2.66699 7.33301 6.33398 18 11.001 32s10.667 42.5 18 85.5s11 85.833 11 128.5c0 42 -3.33301 83.833 -10 125.5s-13.334 72.834 -20.001 93.501l-10 31c0 18 5 34.333 15 49zM1349 144.997c7.33301 -13.333 11 -27.667 11 -43l38 -308
c97.333 46 183.833 107.5 259.5 184.5s135.5 164.5 179.5 262.5l-301 37c-16.667 0 -32 4.33301 -46 13c-38 -57.333 -85 -106 -141 -146zM687.998 101.996c0 12 2.66699 23.666 8 34.999c-59.333 40.667 -109 90.334 -149 149.001c-11.333 -5.33301 -23 -8 -35 -8l-315 -39
c45.333 -100 107 -188.833 185 -266.5s167 -139.167 267 -184.5zM511.998 949.995c14.667 0 28.332 -3.66797 40.999 -11.001c40.667 56.667 89.667 104.334 147 143.001c-8 13.333 -12 28 -12 44l-38 302c-98 -44 -185.667 -103.833 -263 -179.5
s-138.666 -162.167 -183.999 -259.5zM1360 1125.99c0 -18.667 -5.66699 -35.668 -17 -51.001c55.333 -39.333 102.333 -86.666 141 -141.999c16 11.333 33.333 17 52 17l295 37c-44 95.333 -103.5 180.5 -178.5 255.5s-160.167 134.833 -255.5 179.5zM1878 234.993l-11 2
c-46 -104.667 -109 -197.834 -189 -279.501s-172 -146.167 -276 -193.5l2 -13c0 -6 -0.666992 -12.333 -2 -19c15.333 -1.33301 31.166 -2.16602 47.499 -2.49902s36.833 0 61.5 1s47.834 3.5 69.501 7.5s46 9.66699 73 17s50.833 17.333 71.5 30s42.167 28 64.5 46
s39.833 39.667 52.5 65s24.5 54.333 35.5 87s15.5 70 13.5 112s-6.33301 88.667 -13 140zM645.996 -266.007c-1.33301 6 -2 11.668 -2 17.001l1 7c-106.667 46.667 -201.334 111.167 -284.001 193.5s-147.334 176.833 -194.001 283.5l-6 -1c-3.33301 0 -7 0.333008 -11 1
c-14.667 -61.333 -19.167 -115.333 -13.5 -162s13.334 -87.834 23.001 -123.501s26.834 -65.834 51.501 -90.501s48.5 -45.5 71.5 -62.5s50.667 -30 83 -39s61 -15.833 86 -20.5s52 -7.16699 81 -7.5s51.5 -0.166016 67.5 0.500977s31.333 2 46 4zM147.996 992.994
c4 0.666992 8.33594 0.999023 13.0029 0.999023l11 -2c48 104 112.833 196.333 194.5 277s174.834 144 279.501 190l-2 18v5c-14.667 2 -30 3.33301 -46 4s-38.333 0.833984 -67 0.500977s-55.334 -2.83301 -80.001 -7.5s-53 -11.5 -85 -20.5s-59.333 -21.667 -82 -38
s-46.334 -36.666 -71.001 -60.999s-41.834 -53.833 -51.501 -88.5s-17.834 -74.834 -24.501 -120.501s-3 -98.167 11 -157.5zM1403 1483.99c0.666992 -2.66699 0.999023 -5.00195 0.999023 -7.00195l-3 -25c102 -46 192.667 -108.833 272 -188.5s142.333 -170.5 189 -272.5
l18 2c6 50 9.66699 95.5 11 136.5s-3.5 77.333 -14.5 109s-23 59.834 -36 84.501s-30.5 45.834 -52.5 63.501s-43.333 32.667 -64 45s-44.167 22.333 -70.5 30s-50.333 13.5 -72 17.5s-44.667 6.5 -69 7.5s-44.666 1.16699 -60.999 0.5s-32.5 -1.66699 -48.5 -3z" />
    <glyph glyph-name="L" unicode="L" 
d="M1998 1117l-578 -578c-11.333 -12 -25.5 -18 -42.5 -18s-31.167 6 -42.5 18l-129 129l-235 -236l128 -128c12 -12 18 -26.333 18 -43s-6 -31 -18 -43l-578 -578c-12 -12 -26.333 -18 -43 -18s-31 6 -43 18l-385 385c-12 12 -18 26.333 -18 43s6 31 18 43l578 578
c12 12 26.333 18 43 18s31 -6 43 -18l128 -128l236 235l-129 128c-12 12 -18 26.333 -18 43s6 31 18 43l578 578c12 12 26.333 18 43 18s31 -6 43 -18l385 -385c12 -12 18 -26.333 18 -43s-6 -31 -18 -43zM714 475c-12 12 -26.333 18 -43 18s-31 -6 -43 -18l-364 -364
c-12 -12 -18 -26.333 -18 -43s6 -31 18 -43l171 -171c12 -12 26.333 -18 43 -18s31 6 43 18l364 364c12 12 18 26.333 18 43s-6 31 -18 43l-21 21l-45 -45c-12 -12 -26.333 -18 -43 -18s-31 6 -43 18l-43 43c-12 11.333 -18 25.5 -18 42.5s6 31.167 18 42.5l45 45z
M1784 1203l-171 171c-12 12 -26.333 18 -43 18s-31 -6 -43 -18l-364 -364c-11.333 -12 -17 -26.333 -17 -43s5.66699 -31 17 -43l22 -21l45 45c11.333 12 25.5 18 42.5 18s31.167 -6 42.5 -18l43 -43c12 -11.333 18 -25.333 18 -42s-6 -31 -18 -43l-45 -45l22 -22
c11.333 -12 25.5 -18 42.5 -18s31.167 6 42.5 18l364 364c12 12 18 26.333 18 43s-6 31 -18 43z" />
    <glyph glyph-name="M" unicode="M" 
d="M1310 204c-49.333 -68.667 -98.335 -151.67 -147.002 -249.003s-88.334 -190.666 -119.001 -279.999c-9.33301 -35.333 -15.5 -53 -18.5 -53s-9.83301 17.667 -20.5 53c-32 90 -72.167 183.833 -120.5 281.5s-97.166 180.834 -146.499 249.501l-77 102l-76 99.5
c-19.333 25.667 -41.333 56.834 -66 93.501s-44.5 70.334 -59.5 101.001s-29.667 65 -44 103s-24.666 77.833 -30.999 119.5s-9.5 85.5 -9.5 131.5c0 88 17.167 172.167 51.5 252.5s80.5 149.5 138.5 207.5s127 104.167 207 138.5s164.167 51.5 252.5 51.5
s172.5 -17.167 252.5 -51.5s149 -80.5 207 -138.5s104.167 -127.167 138.5 -207.5s51.5 -164.5 51.5 -252.5c0 -46 -3.16699 -89.833 -9.5 -131.5s-16.666 -81.667 -30.999 -120s-29 -72.833 -44 -103.5s-35 -64.334 -60 -101.001l-66.5 -94l-76 -100zM1024.5 1220
c-67 0 -124.333 -23.833 -172 -71.5s-71.5 -105 -71.5 -172s23.833 -124.333 71.5 -172s105 -71.5 172 -71.5s124.333 23.833 172 71.5s71.5 105 71.5 172s-23.833 124.333 -71.5 172s-105 71.5 -172 71.5z" />
    <glyph glyph-name="N" unicode="N" 
d="M1841 38h-1634c-22 0 -40.667 7.66699 -56 23s-23 34 -23 56v98c0 22 7.66699 40.667 23 56s34 23 56 23h1634c22 0 40.667 -7.66699 56 -23s23 -34 23 -56v-98c0 -22 -7.66699 -40.667 -23 -56s-34 -23 -56 -23zM1841 486h-1634c-22 0 -40.667 7.66699 -56 23
s-23 34 -23 56v98c0 22 7.66699 40.667 23 56s34 23 56 23h1634c22 0 40.667 -7.66699 56 -23s23 -34 23 -56v-98c0 -22 -7.66699 -40.667 -23 -56s-34 -23 -56 -23zM1841 934h-1634c-22 0 -40.667 7.66699 -56 23s-23 34 -23 56v98c0 22 7.66699 40.667 23 56s34 23 56 23
h1634c22 0 40.667 -7.66699 56 -23s23 -34 23 -56v-98c0 -22 -7.66699 -40.667 -23 -56s-34 -23 -56 -23z" />
    <glyph glyph-name="O" unicode="O" 
d="M1983 -186l-1278 0.00292969c-8.66699 0 -16.334 3.33301 -23.001 10s-10 14.334 -10 23.001v227c-4.66699 -0.666992 -12.667 0.666016 -24 3.99902s-20 3.66602 -26 0.999023c-50 -27.333 -102.333 -41 -157 -41c-78 0 -150.333 27 -217 81
s-119.334 127.833 -158.001 221.5s-58 195.5 -58 305.5s19.333 211.667 58 305s91.334 167.166 158.001 221.499s139 81.5 217 81.5c54 0 106 -13.667 156 -41c6 -2.66699 14.667 -2.5 26 0.5s19.666 2.83301 24.999 -0.5v168c0 9.33301 3.33301 17.166 10 23.499
s14.334 9.5 23.001 9.5h1278c8.66699 0 16.334 -3.16699 23.001 -9.5s10 -14.166 10 -23.499v-1534c0 -8.66699 -3.33301 -16.334 -10 -23.001s-14.334 -10 -23.001 -10zM670.001 915.003c-2.66699 7.33301 -5.83105 17.835 -9.49805 31.502s-7 24.5 -10 32.5
s-6.5 15 -10.5 21c-44 62.667 -99.333 94 -166 94c-58 0 -111.5 -20 -160.5 -60s-87.833 -94.5 -116.5 -163.5s-43 -143.833 -43 -224.5c0 -82.667 12.833 -158.334 38.5 -227.001s62.5 -123.5 110.5 -164.5s102 -61.5 162 -61.5c33.333 0 64.666 6.66699 93.999 20
s53.666 31.666 72.999 54.999c7.33301 8.66699 15 22.5 23 41.5s13 36.5 15 52.5c0 -0.666992 0 45 0 137v276.5v139.5z" />
    <glyph glyph-name="P" unicode="P" 
d="M1838 1181c-52.667 -76.667 -112.834 -158.501 -180.501 -245.501s-131 -165 -190 -234l-165.5 -191l-122 -135.5l-45 -48c-71.333 70 -130 125.333 -176 166l53 57l132 138l189 192.5l206 197c76.667 71 144 129.167 202 174.5l144 116
c76 62.667 118.333 94.334 127 95.001c4.66699 0.666992 5.33398 -3 2.00098 -11c-7.33301 -20 -66 -110.333 -176 -271zM715 158.999c-40 12 -84.165 9.83203 -132.498 -6.50098s-90.166 -42.166 -125.499 -77.499s-55.666 -72.333 -60.999 -111
c-1.33301 -6.66699 -3.66602 -13.5 -6.99902 -20.5s-7 -13 -11 -18s-8.83301 -10.167 -14.5 -15.5s-10.334 -9.5 -14.001 -12.5s-8 -6.33301 -13 -10s-7.83301 -5.83398 -8.5 -6.50098c-42 14 -81 32.5 -117 55.5s-66.833 48.333 -92.5 76s-45.834 57.5 -60.501 89.5
s-23.334 64.167 -26.001 96.5s2.83301 64.833 16.5 97.5s34.5 63.334 62.5 92.001s66.667 55.5 116 80.5s107 45.833 173 62.5c46.667 16.667 83 35.834 109 57.501s40.667 43.334 44 65.001s-2.5 43.167 -17.5 64.5s-38.167 40.666 -69.5 57.999
c-20.667 15.333 -36.834 28 -48.501 38s-23.5 23 -35.5 39s-17.667 30.667 -17 44c4 72 105.333 132.667 304 182c54.667 14 109.667 23.333 165 28s112.5 4.5 171.5 -0.5s117.167 -18.167 174.5 -39.5s109.333 -50.333 156 -87c-97.333 -88 -185 -173 -263 -255
s-137.833 -149.167 -179.5 -201.5s-78.167 -102.833 -109.5 -151.5s-51.166 -81.5 -59.499 -98.5s-15.5 -33.5 -21.5 -49.5c-1.33301 -2.66699 -2 -4.33398 -2 -5.00098c-2.66699 -3.33301 -3.33398 -8.5 -2.00098 -15.5s2.66602 -12.667 3.99902 -17s3.5 -9.5 6.5 -15.5
s4.83301 -10 5.5 -12zM500.502 409.998c-11 24.667 -28.998 41.666 -53.998 50.999s-49.833 8.33301 -74.5 -3s-41.667 -29.5 -51 -54.5s-8.5 -49.667 2.5 -74s29.167 -41.166 54.5 -50.499s50.166 -8.5 74.499 2.5s41.166 29 50.499 54s8.5 49.833 -2.5 74.5z
M492.004 -50.0029c3.33301 24.667 17.668 49.501 43.001 74.501s54.833 44 88.5 57s63.167 15.833 88.5 8.5c13.333 -6 25.833 -14.333 37.5 -25s20 -19.334 25 -26.001s7.5 -10.334 7.5 -11.001c0 -3.33301 0.166992 -7.83301 0.5 -13.5s0 -16.5 -1 -32.5
s-3.16699 -31.667 -6.5 -47s-9.33301 -32.833 -18 -52.5s-19.667 -37.167 -33 -52.5c-16.667 -19.333 -44 -34.333 -82 -45s-77 -16.5 -117 -17.5s-76.5 -0.166992 -109.5 2.5s-56.167 6 -69.5 10c4 2.66699 9 6.33398 15 11.001s17 13.834 33 27.501s30.167 27 42.5 40
s24.166 28.167 35.499 45.5s18 32.666 20 45.999zM911.006 415.998c0.666992 1.33301 1.66504 2.6709 2.99805 4.00391s3.83301 2.66602 7.5 3.99902s6.83398 -0.666992 9.50098 -6c4 -4.66699 28.167 -28.334 72.5 -71.001s67.5 -65.334 69.5 -68.001
c6 -6.66699 4.33301 -15 -5 -25c0 -0.666992 -1 -2.33398 -3 -5.00098s-4.5 -5.83398 -7.5 -9.50098s-7.5 -8.5 -13.5 -14.5s-14.5 -13 -25.5 -21l-38.5 -27.5c-14.667 -10.333 -33.667 -22.5 -57 -36.5l-78 -45c-2 0.666992 -5.16699 2 -9.5 4s-13.333 9.33301 -27 22
s-27.834 29 -42.501 49l3 11.5c1.33301 5 5.33301 15.667 12 32s14.834 33.333 24.501 51s23.834 40.334 42.501 68.001s39.667 55.5 63 83.5zM844.004 36.0029c2 -0.666992 4.50098 -1.33398 7.50098 -2.00098s9 -1.66699 18 -3s16.833 -0.666016 23.5 2.00098
c19.333 6.66699 40.5 17.334 63.5 32.001s45 30.167 66 46.5s47.167 39.666 78.5 69.999l80 79.5l91.5 98.5l92.5 103l102 115.5l50 57c1.33301 -28 0.666016 -56.167 -2.00098 -84.5s-8.83398 -60.166 -18.501 -95.499s-22.5 -69.833 -38.5 -103.5
s-37.833 -69.667 -65.5 -108s-60 -75 -97 -110s-82.167 -70.833 -135.5 -107.5s-112.666 -71.334 -177.999 -104.001c-50.667 -24.667 -104 -45 -160 -61c12 32 20 62.5 24 91.5s4.66699 50.167 2 63.5z" />
    <glyph glyph-name="Q" unicode="Q" 
d="M1534 -282h-124c-36 0 -66.667 12.667 -92 38s-38 56 -38 92v1532c0 36 12.667 66.667 38 92s56 38 92 38h124c36 0 66.667 -12.667 92 -38s38 -56 38 -92v-1532c0 -36 -12.667 -66.667 -38 -92s-56 -38 -92 -38zM638 -282h-124c-36 0 -66.667 12.667 -92 38
s-38 56 -38 92v1532c0 36 12.667 66.667 38 92s56 38 92 38h124c36 0 66.667 -12.667 92 -38s38 -56 38 -92v-1532c0 -36 -12.667 -66.667 -38 -92s-56 -38 -92 -38z" />
    <glyph glyph-name="R" unicode="R" 
d="M1827 -378h-1606c-52 0 -96.5 18.5 -133.5 55.5s-55.5 81.5 -55.5 133.5v1606c0 52 18.5 96.5 55.5 133.5s81.5 55.5 133.5 55.5h1606c52 0 96.5 -18.5 133.5 -55.5s55.5 -81.5 55.5 -133.5v-1606c0 -52 -18.5 -96.5 -55.5 -133.5s-81.5 -55.5 -133.5 -55.5zM864 1081
c0 21.333 -7.5 39.5 -22.5 54.5s-33.167 22.5 -54.5 22.5h-102c-21.333 0 -39.5 -7.5 -54.5 -22.5s-22.5 -33.167 -22.5 -54.5v-934c0 -21.333 7.5 -39.5 22.5 -54.5s33.167 -22.5 54.5 -22.5h102c21.333 0 39.5 7.5 54.5 22.5s22.5 33.167 22.5 54.5v934zM1440 1081
c0 21.333 -7.5 39.5 -22.5 54.5s-33.167 22.5 -54.5 22.5h-102c-21.333 0 -39.5 -7.5 -54.5 -22.5s-22.5 -33.167 -22.5 -54.5v-934c0 -21.333 7.5 -39.5 22.5 -54.5s33.167 -22.5 54.5 -22.5h102c21.333 0 39.5 7.5 54.5 22.5s22.5 33.167 22.5 54.5v934z" />
    <glyph glyph-name="S" unicode="S" 
d="M1787 1576l199 -199c20 -20 30 -44.167 30 -72.5s-10 -52.5 -30 -72.5l-109 -109l-344 344l109 109c20 20 44.167 30 72.5 30s52.5 -10 72.5 -30zM1820 1066l-1122 -1122l-344 344l1122 1122zM641 -113l-344 -163l-163 163l163 344zM95 -188l127 -127l-190 -63z" />
    <glyph glyph-name="T" unicode="T" 
d="M1930 1455l-102.501 -154.498l-245 -387.5l-346.5 -571c1.33301 1.33301 -20.667 20.666 -66 57.999l-140 113c-48 38 -72.333 57.667 -73 59l300 320l238.5 268.5l165 195.5l109.5 135c26.667 34 40.667 52 42 54c52.667 59.333 97 75.666 133 48.999
c11.333 -8 18.333 -18.667 21 -32s1.33398 -27.333 -3.99902 -42s-10.5 -27 -15.5 -37s-10.5 -19.333 -16.5 -28zM1100 112.002l-339 270l170 155l287 -235zM1048 91.002l11 -32.0029c17.333 -76 -7 -145.667 -73 -209c-137.333 -131.333 -434 -207.666 -890 -228.999
l20 8.5c8.66699 3.66699 25.5 12.167 50.5 25.5s49.167 27.5 72.5 42.5s49.5 35.167 78.5 60.5s54.5 51.833 76.5 79.5s41.667 60.5 59 98.5s28.333 77.333 33 118c6.66699 56.667 18.5 106 35.5 148s36 73.333 57 94s43.5 35.334 67.5 44.001s47 10.834 69 6.50098
s41.667 -13.5 59 -27.5c0 -1.33301 23 -21 69 -59l137 -113z" />
    <glyph glyph-name="U" unicode="U" 
d="M1947 6h-1847c-18.667 0 -34.667 6.66699 -48 20s-20 29.333 -20 48v1079c0 19.333 6.66699 35.666 20 48.999s29.333 20 48 20h1847c19.333 0 35.666 -6.66699 48.999 -20s20 -29.666 20 -48.999v-1079c0 -18.667 -6.66699 -34.667 -20 -48s-29.666 -20 -48.999 -20z
M1920 1089c0 16 -2.33203 26.167 -6.99902 30.5s-15.334 6.5 -32.001 6.5h-1718c-16 0 -25.833 -2 -29.5 -6s-5.5 -14.333 -5.5 -31v-950c0 -16.667 1.83301 -27 5.5 -31s13.5 -6 29.5 -6h1720c16 0 26.167 2.66699 30.5 8s6.5 16.333 6.5 33v946zM1681 134
l-936 -0.000976562h-393c-10.667 0 -19 0.166992 -25 0.5s-12 0.833008 -18 1.5s-10.167 1.5 -12.5 2.5s-4 3 -5 6s-0.833008 6.16699 0.5 9.5s3.83301 8 7.5 14s7.66699 12 12 18s10.5 14 18.5 24l1 1v1l1 1h1v1l1 1l1 1l1 1v1l1 1h1v1l1 1l1 1v1l1 1l1 1v1h1l1 1l1 1v1
l1 1l1 1v1l1 1l1 1l1 1l1 1l1 1v1l1 1l1 1l1 1v1l1 1l1 1v1l1 1h1l1 1v1l1 1l1 1l1 1v1l1 1l1 1l1 1v1l1 1l1 1l1 1v1l1 1h1l1 1v1l1 1l1 1l1 1v1l1 1l1 1l1 1v1l1 1l1 1l1 1v1l1 1l1 1l1 1v1l1 1l1 1l1 1v1l1 1l1 1l1 1h1v1l1 1l1 1l1 1v1l1 1l1 1l1 1v1l1 1l1 1l1 1l1 1v1
l1 1l1 1l1 1v1l1 1l1 1l1 1l1 1v1l1 1l1 1l1 1v1l1 1l1 1l1 1l1 1v1l1 1l1 1l1 1l1 1v1l1 1l1 1l1 1v1l1 1l1 1l1 1l1 1v1l1 1l1 1l1 1l1 1v1l1 1l1 1l1 1l1 1v1l1 1l1 1l1 1l1 1l1 1v1l1 2l1 1l1 1l1 1l1 1v1l1 1l1 1l1 1l1 1l1 1v1l1 1l1 1l1 1l1 1l1 2l1 1v1l1 1l1 1l1 1
l1 1l1 1v1l1 1l1 1l1 1l1 1l1 1v2l1 1l1 1l1 1l1 1l1 1l1 1v1l1 1l1 1l1 1l1 1l1 1v1l1 1l1 2l1 1l1 1l1 1l1 1v1l1 1l1 1l1 1l1 1l1 1v1l1 1l1 1l1 1l1 2l1 1v1l1 1l1 1l1 1l1 1l1 1v1l1 1l1 1l1 1l1 1l1 1v1l1 1l1 1l1 2l1 1l1 1v1l1 1l1 1l1 1l1 1l1 1v1l1 1l1 1l1 1l1 1
l1 1v1l1 1l1 1l1 1l1 1v1l1 1l1 1l1 1l1 2v1l1 1l1 1l1 1l1 1l1 1v1l1 1l1 1l1 1l1 1v1l1 1l1 1l1 1l1 1v1l1 1c26.667 31.333 51 47 73 47s44.333 -15.667 67 -47l1 -1h1l1 -1v-1l1 -1l1 -1v-1l1 -1l1 -1l1 -1l1 -1l1 -1v-1l1 -1l1 -1v-1l1 -1h1v-1l1 -1l1 -1l1 -1v-1l1 -1
l1 -1l1 -1v-1l1 -1l1 -1v-1h1l1 -1l1 -1v-1l1 -1l1 -1l1 -1v-1l1 -1l1 -1l1 -1v-1l1 -1l1 -1l1 -1v-1l1 -1h1l1 -1v-1l1 -1l1 -1l1 -1v-1l1 -1l1 -1l1 -1v-1l1 -1l1 -1l1 -1l1 -1v-1l1 -1l1 -1l1 -1v-1l1 -1l1 -1l1 -1v-1l1 -1l1 -1l1 -1l1 -1v-1l1 -1l1 -1l1 -1l1 -1v-1
l1 -1l1 -1l1 -1v-1l1 -1l1 -1l1 -1l1 -1v-1l1 -1l1 -1l1 -1l1 -1v-1l1 -1l1 -1l1 -1l1 -1v-1l1 -1l1 -1l1 -1l1 -1v-1l1 -1l1 -1l1 -1l1 -1v-1l1 -1l1 -1l1 -1l1 -1v-1l1 -1l1 -1l1 -1l1 -1v-1l1 -1l1 -1l1 -1l1 -1v-1l1 -1l1 -1l1 -1l1 -1l1 -1v-1l1 -2l1 -1l1 -1l1 -1v-1
l1 -1l1 -1l1 -1l1 -1v-1l1 -1l1 -1l1 -1l1 -1l1 -1v-1l1 -1l1 -1l1 -1l1 -1v-1l1 -1l1 -1l1 -1l1 -1v-1l1 -1l1 -1l1 -1l1 -1l1 -1v-1l1 -1l1 -1l1 -2l1 -1v-1l1 -1l1 -1l1 -1l1 -1v-1l1 -1l1 -1l1 -1l1 -1l1 -1v-1l1 -1l1 -1l1 -1l1 -1v-1l1 -1l1 -1l1 -1l1 -1v-1l1 -1
l1 -1l1 -1l1 -1v-1l1 -1l1 -1l1 -1l1 -1v-1l1 -1l1 -1l1 -1l1 -1v-1l1 -1l1 -1l1 -1l1 -1v-1l1 -1l1 -1l1 -1l1 -1v-1l2 -2l316 386c20.667 26 38 45 52 57s28.167 18 42.5 18s28.333 -6 42 -18s30.167 -31 49.5 -57l362 -443c10 -12 17.333 -21.167 22 -27.5
s8.16699 -12.666 10.5 -18.999s3 -10.5 2 -12.5s-4.5 -4 -10.5 -6s-12.833 -3.16699 -20.5 -3.5zM832.001 581.999c-53.333 0 -98.666 18.667 -135.999 56s-56 82.5 -56 135.5s18.667 98.333 56 136s82.666 56.5 135.999 56.5s98.666 -18.833 135.999 -56.5s56 -83 56 -136
s-18.667 -98.167 -56 -135.5s-82.666 -56 -135.999 -56z" />
    <glyph glyph-name="V" unicode="V" 
d="M551 1482l1029 -821.004c13.333 -13.333 20 -29.666 20 -48.999s-6.66699 -36 -20 -50l-1029 -821c-7.33301 -7.33301 -16.5 -13.166 -27.5 -17.499s-22.333 -6.16602 -34 -5.49902s-21.5 7 -29.5 19s-12 29 -12 51v1661c0 21.333 4 37 12 47s17.833 14.667 29.5 14
s23 -3.66699 34 -9s20.167 -11.666 27.5 -18.999z" />
    <glyph glyph-name="W" unicode="W" 
d="M1827 -378h-1606c-52 0 -96.5 18.5 -133.5 55.5s-55.5 81.5 -55.5 133.5v1606c0 52 18.5 96.5 55.5 133.5s81.5 55.5 133.5 55.5h1606c52 0 96.5 -18.5 133.5 -55.5s55.5 -81.5 55.5 -133.5v-1606c0 -52 -18.5 -96.5 -55.5 -133.5s-81.5 -55.5 -133.5 -55.5zM1460 643
l-628.999 497.997c-4.66699 4.66699 -10.334 8.5 -17.001 11.5s-13.5 4.83301 -20.5 5.5s-13 -2.16602 -18 -8.49902s-7.5 -15.833 -7.5 -28.5v-1008c0 -18 4.16699 -30.167 12.5 -36.5s17.333 -8.16602 27 -5.49902s17.5 7 23.5 13l629 499c8 8 12 17.833 12 29.5
s-4 21.834 -12 30.501z" />
    <glyph glyph-name="X" unicode="X" 
d="M1552 1446h-16v-332c0 -37.333 -9.16699 -72.833 -27.5 -106.5s-41.666 -62.834 -69.999 -87.501s-61 -49.667 -98 -75s-72.5 -47.833 -106.5 -67.5s-67.333 -42 -100 -67s-57.667 -48.833 -75 -71.5c-16 -16 -26.333 -24.667 -31 -26c4.66699 -1.33301 15 -10 31 -26
c17.333 -22.667 42.333 -46.5 75 -71.5s66 -47.333 100 -67s69.5 -42.167 106.5 -67.5s69.667 -50.333 98 -75s51.666 -54 69.999 -88s27.5 -69.333 27.5 -106v-330h16c22.667 0 41.667 -7.83301 57 -23.5s23 -34.5 23 -56.5s-7.66699 -40.833 -23 -56.5
s-34.333 -23.5 -57 -23.5h-1056c-22 0 -40.833 7.83301 -56.5 23.5s-23.5 34.5 -23.5 56.5s7.83301 40.833 23.5 56.5s34.5 23.5 56.5 23.5h16c-0.666992 135.333 -1 245.333 -1 330c0 36.667 9.16699 72 27.5 106s41.666 63.333 69.999 88s60.833 49.667 97.5 75
s72 47.833 106 67.5s67.333 42 100 67s58 48.833 76 71.5c16 16 26.667 24.667 32 26c-5.33301 1.33301 -16 10 -32 26c-18 22.667 -43.333 46.334 -76 71.001s-66 47 -100 67s-69.333 42.667 -106 68s-69.167 50.333 -97.5 75s-51.666 54 -69.999 88
s-27.5 69.333 -27.5 106c0 80 0.333008 190.667 1 332h-16c-22 0 -40.833 7.83301 -56.5 23.5s-23.5 34.5 -23.5 56.5s7.83301 40.833 23.5 56.5s34.5 23.5 56.5 23.5h1056c22.667 0 41.667 -7.83301 57 -23.5s23 -34.5 23 -56.5s-7.66699 -40.833 -23 -56.5
s-34.333 -23.5 -57 -23.5zM992 516c-16 -20 -38.6699 -41 -68.0029 -63s-59.5 -41.833 -90.5 -59.5s-63.167 -37.667 -96.5 -60s-62.833 -44.5 -88.5 -66.5s-47 -48 -64 -78s-25.5 -61.333 -25.5 -94c0 -136 0.333008 -240.333 1 -313h927c0.666992 128 1 232.333 1 313
c0 32.667 -8.5 64 -25.5 94s-38.333 55.833 -64 77.5s-55.334 43.834 -89.001 66.501s-66 42.834 -97 60.501s-61.167 37.5 -90.5 59.5s-51.666 43.333 -66.999 64c-11.333 11.333 -19.166 18.166 -23.499 20.499s-9.16602 2.16602 -14.499 -0.500977
s-13.666 -9.66699 -24.999 -21zM1487 1446l-926.997 0.000976562c-0.666992 -84 -1 -189 -1 -315c0 -32.667 8.5 -64 25.5 -94s38.333 -56 64 -78s55.167 -44.167 88.5 -66.5s65.5 -42.333 96.5 -60s61.167 -37.5 90.5 -59.5s52 -43 68 -63
c11.333 -12 19.666 -19.167 24.999 -21.5s10.166 -2.33301 14.499 0s12.166 9.16602 23.499 20.499c15.333 20.667 37.666 42 66.999 64s59.5 41.833 90.5 59.5s63.333 37.667 97 60s63.334 44.5 89.001 66.5s47 48 64 78s25.5 61.333 25.5 94c0 76 -0.333008 181 -1 315z
M1026 734.001c-12 18.667 -32.8301 38.334 -62.4971 59.001s-61.834 41 -96.501 61s-69.5 41.333 -104.5 64s-66.667 49.5 -95 80.5s-47.833 63.833 -58.5 98.5l20.5 -5c13.667 -3.33301 34.167 -7.66602 61.5 -12.999s59.166 -10.666 95.499 -15.999
s79.166 -9.33301 128.499 -12s100.5 -3.83398 153.5 -3.50098s112.167 4.16602 177.5 11.499s130.333 18.333 195 33c-12 -34 -32.5 -66.167 -61.5 -96.5s-60.833 -56.666 -95.5 -78.999s-69 -43.333 -103 -63s-65.5 -39.834 -94.5 -60.501s-49.167 -40.334 -60.5 -59.001z
M1438 -185.999h-828.999c-0.666992 2 -1 4.66699 -1 8s0.666992 10 2 20s3.66602 20 6.99902 30s9.16602 21.667 17.499 35s18.833 25.833 31.5 37.5s29.834 23.334 51.501 35.001s46.167 21.667 73.5 30s61 15.166 101 20.499s84 8 132 8c204.667 0 335 -44.333 391 -133
c20 -32 27.667 -62.333 23 -91z" />
    <glyph glyph-name="Y" unicode="Y" 
d="M2016 1039l-546.997 -936l-152 471c-42 -12.667 -84.667 -26.334 -128 -41.001s-97.333 -35.334 -162 -62.001s-127.834 -55.167 -189.501 -85.5s-129.334 -67.666 -203.001 -111.999s-143.667 -91.333 -210 -141s-134 -107.667 -203 -174
s-132.167 -135.833 -189.5 -208.5c3.33301 8 7.66602 19 12.999 33s18.333 43.333 39 88s42.667 89.667 66 135s54.5 100.333 93.5 165s79.833 126.834 122.5 186.501s93.5 123.667 152.5 192s120.167 131.5 183.5 189.5s135 114.667 215 170s162.333 102.333 247 141
l-127 396z" />
    <glyph glyph-name="Z" unicode="Z" 
d="M2009 752l-127.008 -114.997c-5.33301 -5.33301 -11.666 -8 -18.999 -8h-88c-10 0 -15 5.33301 -15 16v66v65c0 7.33301 -1 11.833 -3 13.5s-6.66699 3.83398 -14 6.50098l-113 41l-112 40c-8 3.33301 -13 4.83301 -15 4.5s-5.33301 -3.16602 -10 -8.49902l-301 -312
l608 -573c6.66699 -7.33301 13.334 -15.166 20.001 -23.499s13.334 -20.333 20.001 -36s10.667 -31.334 12 -47.001s-2 -33.834 -10 -54.501s-21.5 -40.667 -40.5 -60s-38.833 -33.5 -59.5 -42.5s-39.5 -13.333 -56.5 -13s-33.5 3.16602 -49.5 8.49902s-28.667 11 -38 17
s-17 12 -23 18c-10 10 -200.333 213.667 -571 611l-43 -44c0.666992 -4.66699 1.16699 -10.667 1.5 -18s-1 -18.833 -4 -34.5s-8.83301 -27.834 -17.5 -36.501s-53.667 -57 -135 -145l-237 -257.5l-115 -125.5c-1.33301 -0.666992 -3.33301 -1.83398 -6 -3.50098
s-8.5 -3.33398 -17.5 -5.00098s-18.167 -2 -27.5 -1s-21 5.16699 -35 12.5s-28.333 18 -43 32l-126 128c-1.33301 2 -3.16602 4.33301 -5.49902 7s-5.66602 8.33398 -9.99902 17.001s-7.33301 17.334 -9 26.001s-1.16699 19 1.5 31s8.33398 23.667 17.001 35
c31.333 40 198.666 203.667 501.999 491c1.33301 0.666992 3 1.66699 5 3s6.5 3.66602 13.5 6.99902s13.833 5.66602 20.5 6.99902s15.167 2.5 25.5 3.5s19.833 0.166992 28.5 -2.5l51 49l-262 281c-5.33301 6 -9.16602 9.33301 -11.499 10s-8.5 0.333984 -18.5 -0.999023
c0 -0.666992 -15.833 -3 -47.5 -7l-116 -14.5c-45.667 -5.66699 -73.167 -9.16699 -82.5 -10.5c-10 -0.666992 -16.333 -0.166992 -19 1.5s-7 6.5 -13 14.5l-230 305c-5.33301 6.66699 -7.66602 11 -6.99902 13s4.33398 6.33301 11.001 13l24.5 24.5l30.5 30.5l24 24
c6 5.33301 10.167 7.83301 12.5 7.5s6.5 -3.83301 12.5 -10.5l76 -85l73 -82c6 -7.33301 10.333 -11.333 13 -12s9 -0.666992 19 0c10 1.33301 33.833 4 71.5 8l75.5 8c8.66699 1.33301 13.834 3 15.501 5s3.5 7.66699 5.5 17c18 72.667 27.333 110.667 28 114
c2 10 2.66699 16.5 2 19.5s-4 7.16699 -10 12.5l-187 182c-6 6.66699 -9 11 -9 13s2.66699 5.33301 8 10l88 93c4.66699 5.33301 8 8 10 8s7 -3 15 -9l312 -213c9.33301 -6 14.833 -10.333 16.5 -13s1.83398 -8.33398 0.500977 -17.001l-39 -261
c-1.33301 -10.667 -1.33301 -18.167 0 -22.5s5.66602 -9.83301 12.999 -16.5l282 -265l310 291l3 3l2.5 2.5l2 2c1 1 1.5 1.83301 1.5 2.5s0.333008 1.5 1 2.5s1 2.16699 1 3.5s0.166992 2.83301 0.5 4.5s0.5 3.5 0.5 5.5l14.5 106c7.66699 55.333 12.5 89.666 14.5 102.999
c1.33301 6 1.5 10.333 0.5 13s-3.83301 6.33398 -8.5 11.001l-76 73c-40 38 -65.333 61.667 -76 71c-6 5.33301 -13.333 8.33301 -22 9c-36 1.33301 -107.333 3.33301 -214 6c-10.667 0 -12.334 4.66699 -5.00098 14l25.5 30.5l24.5 29.5c2.66699 4 5.5 6.66699 8.5 8
s8.16699 2 15.5 2h104.5h102.5c7.33301 0 15 -2.33301 23 -7l156 -115.5l174 -127.5c4.66699 -3.33301 9.66699 -7.66602 15 -12.999l16.5 -17l10.5 -11c67.333 -88.667 141.333 -195.667 222 -321c7.33301 -10 16 -15 26 -15c25.333 -0.666992 49 -1.5 71 -2.5l33 -1.5
c8 0 12 -4 12 -12v-98c0 -6.66699 -2.33301 -12.334 -7 -17.001zM1681.49 -191.997c17.667 0 32.834 6.33301 45.501 19s19 27.834 19 45.501s-6.33301 32.834 -19 45.501s-27.834 19 -45.501 19s-32.667 -6.33301 -45 -19s-18.5 -27.834 -18.5 -45.501
s6.16699 -32.834 18.5 -45.501s27.333 -19 45 -19z" />
    <glyph glyph-name="bracketleft" unicode="[" 
d="M1690 -87c-1.33301 -1.33301 -3.83008 -4 -7.49707 -8l-9.50098 -10s-5.83398 -5.5 -9.50098 -8.5s-7.16699 -5 -10.5 -6s-6.83301 -1.33301 -10.5 -1s-7.5 1.5 -11.5 3.5c-4.66699 3.33301 -10.334 7.83301 -17.001 13.5s-12.167 10.5 -16.5 14.5s-6.16602 6 -5.49902 6
c-4.66699 5.33301 -7.5 10.166 -8.5 14.499s0.666992 9.83301 5 16.5s7.83301 11.5 10.5 14.5s9.33398 9.83301 20.001 20.5c58.667 64.667 108.167 129.834 148.5 195.501s70.666 127 90.999 184s33.5 114 39.5 171s6.33301 109.167 1 156.5
s-16.166 94.666 -32.499 141.999s-34 89 -53 125s-41.667 72 -68 108s-49.666 65.667 -69.999 89s-42.5 46.666 -66.5 69.999c-0.666992 0.666992 -3.33398 3.16699 -8.00098 7.5s-7.83398 7.5 -9.50098 9.5s-3.5 5 -5.5 9s-2.16699 8.16699 -0.5 12.5s4.5 8.5 8.5 12.5l4 3
l9 7l10.5 8c3.66699 2.66699 6.66699 5 9 7s3.16602 3 2.49902 3c16 10.667 36 2.66699 60 -24c18 -17.333 36.333 -36.166 55 -56.499s42 -49 70 -86s53.333 -75.167 76 -114.5s44.167 -85.666 64.5 -138.999s35 -107 44 -161s11.333 -114 7 -180
s-17.333 -131.667 -39 -197s-55.667 -135.333 -102 -210s-104.5 -148.667 -174.5 -222zM1546 75l-6.50098 -6.5c-3 -3 -5.33301 -5.5 -7 -7.5s-4 -4.16699 -7 -6.5s-5.66699 -3.83301 -8 -4.5s-5 -1 -8 -1s-5.83301 1 -8.5 3l-18.5 15.5l-24.5 21.5l-11 10
c-3.33301 4 -5.33301 7.66699 -6 11s0.166016 7.16602 2.49902 11.499s4.83301 7.83301 7.5 10.5s7 7.33398 13 14.001c2 1.33301 3.33301 2.33301 4 3c44.667 50 82.334 99.5 113.001 148.5s54 94.167 70 135.5s26 83 30 125s4.16699 79.5 0.5 112.5
s-12.167 66.833 -25.5 101.5s-26.666 64 -39.999 88s-30.666 49.667 -51.999 77s-39 48.5 -53 63.5l-50 52.5c-0.666992 0.666992 -2.83398 2.5 -6.50098 5.5s-6.16699 5.33301 -7.5 7s-2.66602 4 -3.99902 7s-1.5 6.16699 -0.5 9.5s3.16699 6.66602 6.5 9.99902l5.5 4
c3.66699 2.66699 8 6.16699 13 10.5l15 12.5c5 4 9.16699 7.5 12.5 10.5s4.66602 4.5 3.99902 4.5c12 8 27.333 2 46 -18l41.5 -43c14.333 -15.333 32.333 -37.166 54 -65.499s41 -57.5 58 -87.5s33.167 -65.333 48.5 -106s26.5 -81.5 33.5 -122.5s8.83301 -86.667 5.5 -137
s-13.166 -100.5 -29.499 -150.5s-42.333 -103.5 -78 -160.5s-79.834 -113.167 -132.501 -168.5zM1401 245l-4.99902 -4.99609l-5.5 -5.5c-1 -1 -3 -2.5 -6 -4.5s-5.16699 -2.66699 -6.5 -2s-3.66602 1.33398 -6.99902 2.00098c-2 2 -8 7.5 -18 16.5l-28.5 26l-13.5 12.5
c-2 2.66699 -3.33301 5.16699 -4 7.5s0.166016 5.16602 2.49902 8.49902s4.16602 5.66602 5.49902 6.99902l10 10c28.667 32 53 63.333 73 94s35.667 58.5 47 83.5s18.5 50.167 21.5 75.5s4.16699 47.333 3.5 66s-5.16699 38.5 -13.5 59.5s-16 38 -23 51
s-17.667 28.167 -32 45.5s-25.5 30.166 -33.5 38.499s-19.333 19.5 -34 33.5l-14 14l-4 3.5c-2.66699 2.33301 -4.33398 4 -5.00098 5s-1.5 2.5 -2.5 4.5s-1.16699 4 -0.5 6s2.33398 4.33301 5.00098 7l6 5l14.5 12.5l17 15.5l14 13l5.5 5c8 6 18 2 30 -12
c13.333 -12 26.333 -25.333 39 -40s28.5 -36.167 47.5 -64.5s34.5 -57.333 46.5 -87s20.833 -64.834 26.5 -105.501s5 -81.334 -2 -122.001s-23.5 -85.5 -49.5 -134.5s-61.667 -97.5 -107 -145.5zM1080 -92.9961l-416.001 313.004c-4 3.33301 -11.5 8.83301 -22.5 16.5
l-26.5 19c-6.66699 5 -14.167 11.333 -22.5 19s-14.5 15.167 -18.5 22.5s-6 14.666 -6 21.999v590c0 7.33301 1 13.833 3 19.5s6.5 11.834 13.5 18.501s13 11.834 18 15.501l28.5 20.5l33 24l416 313c1.33301 1.33301 3.33301 3 6 5s7.66699 5.16699 15 9.5
s14.333 7.66602 21 9.99902s14.167 3.66602 22.5 3.99902s15.5 -1.33398 21.5 -5.00098s11 -10.834 15 -21.501s6 -24.334 6 -41.001v-1335c0 -22.667 -3.66699 -39.667 -11 -51s-16.333 -16.833 -27 -16.5s-21.167 2.5 -31.5 6.5s-19.166 8.66699 -26.499 14z
M468.002 254.008h-344c-18.667 0 -34.667 6.66699 -48 20s-20 29.666 -20 48.999v582c0 18.667 6.66699 34.667 20 48s29.333 20 48 20h344c18.667 0 34.667 -6.66699 48 -20s20 -29.333 20 -48v-582c0 -19.333 -6.66699 -35.666 -20 -48.999s-29.333 -20 -48 -20z" />
    <glyph glyph-name="a" unicode="a" 
d="M1783 -148c0 -60.667 -21.667 -112.5 -65 -155.5s-95.666 -64.5 -156.999 -64.5c-171.333 -7.33301 -350.333 -10.666 -537 -9.99902c-186.667 -0.666992 -365.667 2.66602 -537 9.99902c-61.333 0 -113.666 21.5 -156.999 64.5s-65 94.833 -65 155.5
c-7.33301 93.333 -10.666 189.333 -9.99902 288c-0.666992 98.667 2.66602 194.667 9.99902 288c0 60.667 21.667 112.5 65 155.5s95.666 64.5 156.999 64.5c171.333 7.33301 350.333 10.666 537 9.99902c186.667 0.666992 365.667 -2.66602 537 -9.99902
c61.333 0 113.666 -21.5 156.999 -64.5s65 -94.833 65 -155.5c7.33301 -93.333 10.666 -189.333 9.99902 -288c0.666992 -98.667 -2.66602 -194.667 -9.99902 -288zM696 490h-322v-99h109v-582h105v582h108v99zM962 312l-93.999 -0.000976562v-382
c-8.66699 -10.667 -18.167 -19.5 -28.5 -26.5s-19.166 -10.5 -26.499 -10.5c-8.66699 0 -14.834 2.66699 -18.501 8s-5.5 14 -5.5 26v385h-94v-420c0 -30 5.5 -52.5 16.5 -67.5s27.167 -22.5 48.5 -22.5c18 0 36.167 5.33301 54.5 16s36.166 26.334 53.499 47.001v-56h94
v503zM1321 191.999c0 41.333 -7.83301 72.666 -23.5 93.999s-38.167 32 -67.5 32c-14.667 0 -29 -4 -43 -12s-27.333 -19.667 -40 -35v219h-94v-681h94v39c12 -15.333 25.167 -26.666 39.5 -33.999s30.833 -11 49.5 -11c27.333 0 48.333 9.5 63 28.5s22 46.167 22 81.5v279z
M1666 -11.001h-95.999v-35c0 -29.333 -3 -48.333 -9 -57s-17 -13 -33 -13c-14.667 0 -25 5 -31 15s-9 28.333 -9 55v95h178v128c0 47.333 -11.5 83.666 -34.5 108.999s-55.833 38 -98.5 38c-41.333 0 -75.333 -13.667 -102 -41s-40 -62.666 -40 -105.999v-226
c0 -48 12.167 -85.833 36.5 -113.5s57.166 -41.5 98.499 -41.5c46.667 0 81.667 13 105 39s35 64.667 35 116v38zM1488 176.999c0 21.333 3.16699 36.5 9.5 45.5s16.833 13.5 31.5 13.5s25.167 -4.5 31.5 -13.5s9.5 -24.167 9.5 -45.5v-50h-82v50zM1192 -118.001
c-8 0 -15.6699 1.83301 -23.0029 5.5s-14.666 9.5 -21.999 17.5v313c6.66699 6.66699 13.167 11.667 19.5 15s12.833 5 19.5 5c12.667 0 22.334 -4.33301 29.001 -13s10 -21.667 10 -39v-259c0 -16 -2.66699 -27.5 -8 -34.5s-13.666 -10.5 -24.999 -10.5zM1463 833.999
c-21.333 -25.333 -43.499 -44.667 -66.499 -58s-45.167 -20 -66.5 -20c-26.667 0 -46.834 9.33301 -60.501 28s-20.5 46.334 -20.5 83.001v518h115v-475c0 -14.667 2.5 -25.334 7.5 -32.001s12.833 -10 23.5 -10c8.66699 0 19.5 4.33301 32.5 13s24.833 20 35.5 34v470h115
v-620h-115v69zM1106.5 794.998c-29.667 -30 -70.833 -45 -123.5 -45c-50.667 0 -91.167 15.5 -121.5 46.5s-45.5 72.833 -45.5 125.5v322c0 48 15.667 86.167 47 114.5s73 42.5 125 42.5c48 0 87.167 -15 117.5 -45s45.5 -68.667 45.5 -116v-320
c0 -53.333 -14.833 -95 -44.5 -125zM1034 1248c0 14 -4.83008 25.165 -14.4971 33.498s-21.834 12.5 -36.501 12.5c-14 0 -25.5 -4.16699 -34.5 -12.5s-13.5 -19.5 -13.5 -33.5v-337c0 -17.333 4.16699 -30.666 12.5 -39.999s20.166 -14 35.499 -14
s27.666 4.83301 36.999 14.5s14 22.834 14 39.501v337zM671.004 764.996h-130v333l-154 508h131l84 -336h8l80 336h132l-151 -492v-349z" />
    <glyph glyph-name="b" unicode="b" 
d="M1024 -378c-90 0 -177.833 11.833 -263.5 35.5s-164.667 56.834 -237 99.501s-139.166 94.667 -200.499 156s-113.333 128.166 -156 200.499s-75.834 151.333 -99.501 237s-35.5 173.5 -35.5 263.5s11.833 177.833 35.5 263.5s56.834 164.667 99.501 237
s94.667 139.166 156 200.499s128.166 113.333 200.499 156s151.333 75.834 237 99.501s173.5 35.5 263.5 35.5s177.833 -11.833 263.5 -35.5s164.667 -56.834 237 -99.501s139.166 -94.667 200.499 -156s113.333 -128.166 156 -200.499s75.834 -151.333 99.501 -237
s35.5 -173.5 35.5 -263.5s-11.833 -177.833 -35.5 -263.5s-56.834 -164.667 -99.501 -237s-94.667 -139.166 -156 -200.499s-128.166 -113.333 -200.499 -156s-151.333 -75.834 -237 -99.501s-173.5 -35.5 -263.5 -35.5zM787 1350l-57 -239h-5l-60 239h-93l110 -361v-236h92
v248l107 349h-94zM1114 1090c0 33.333 -10.833 60.667 -32.5 82s-49.167 32 -82.5 32c-37.333 0 -67 -10 -89 -30s-33 -47.333 -33 -82v-228c0 -37.333 10.667 -67 32 -89s50 -33 86 -33c37.333 0 66.5 10.667 87.5 32s31.5 51 31.5 89v227zM1417 1193l-81 -0.00195312v-334
c-8 -9.33301 -16.667 -17.166 -26 -23.499s-17 -9.5 -23 -9.5c-7.33301 0 -12.666 2.33301 -15.999 7s-5 12.334 -5 23.001v337h-82v-368c0 -26 4.83301 -45.5 14.5 -58.5s23.834 -19.5 42.501 -19.5c15.333 0 31.166 4.66699 47.499 14s32.166 23 47.499 41v-49h81v440z
M1563 513.999c0 42.667 -15.5 79.334 -46.5 110.001s-68.167 46 -111.5 46c-122 4.66699 -249 7 -381 7s-259 -2.33301 -381 -7c-43.333 0 -80.5 -15.333 -111.5 -46s-46.5 -67.334 -46.5 -110.001c-4.66699 -66.667 -7 -135 -7 -205s2.33301 -138 7 -204
c0 -43.333 15.5 -80.166 46.5 -110.499s68.167 -45.5 111.5 -45.5c121.333 -5.33301 248.333 -7.66602 381 -6.99902c132.667 -0.666992 259.667 1.66602 381 6.99902c43.333 0 80.5 15.167 111.5 45.5s46.5 67.166 46.5 110.499c4.66699 66 7 134 7 204
s-2.33301 138.333 -7 205zM1380 64.999c-29.333 0 -52.501 9.83398 -69.501 29.501s-25.5 46.5 -25.5 80.5v160c0 31.333 9.33301 56.666 28 75.999s42.667 29 72 29c30.667 0 54.167 -9 70.5 -27s24.5 -44 24.5 -78v-91h-127v-67c0 -18.667 2.16699 -31.667 6.5 -39
s11.833 -11 22.5 -11s18.334 3.16699 23.001 9.5s7 19.833 7 40.5v25h68v-27c0 -36.667 -8.33301 -64.167 -25 -82.5s-41.667 -27.5 -75 -27.5zM1412 300l0.000976562 36c0 14.667 -2.33301 25.334 -7 32.001s-12 10 -22 10c-10.667 0 -18.334 -3.33301 -23.001 -10
s-7 -17.334 -7 -32.001v-36h59zM1174 70c-12.667 0 -24.167 2.66504 -34.5 7.99805s-19.833 13.333 -28.5 24v-27h-67v483h67v-156c9.33301 10.667 19 18.834 29 24.501s20 8.5 30 8.5c21.333 0 37.5 -7.5 48.5 -22.5s16.5 -37.167 16.5 -66.5v-198
c0 -25.333 -5.16699 -44.666 -15.5 -57.999s-25.5 -20 -45.5 -20zM1167 341.998c0 12 -2.3291 21.166 -6.99609 27.499s-11.667 9.5 -21 9.5c-4.66699 0 -9.33398 -1.16699 -14.001 -3.5s-9.33398 -6.16602 -14.001 -11.499v-222
c5.33301 -5.33301 10.666 -9.33301 15.999 -12s10.666 -4 15.999 -4c8 0 14 2.5 18 7.5s6 13.167 6 24.5v184zM914.004 113.997c-12.667 -14.667 -25.501 -25.832 -38.501 -33.499s-25.833 -11.5 -38.5 -11.5c-15.333 0 -26.833 5.33301 -34.5 16s-11.5 26.667 -11.5 48v298
h66v-273c0 -8.66699 1.33301 -14.834 4 -18.501s7.33398 -5.5 14.001 -5.5c4.66699 0 10.667 2.5 18 7.5s14.333 11.167 21 18.5v271h66v-356h-66v39zM714.003 74.999h-74v413h-77v70h229v-70h-78v-413zM995.003 817.999c-11.333 0 -19.833 3.33301 -25.5 10
s-8.5 16 -8.5 28v240c0 9.33301 3.16699 17 9.5 23s14.5 9 24.5 9c10.667 0 19.334 -3 26.001 -9s10 -13.667 10 -23v-240c0 -12 -3.33301 -21.333 -10 -28s-15.334 -10 -26.001 -10z" />
    <glyph glyph-name="c" unicode="c" 
d="M32 1008l361.001 315.996l16.5 13.5c7 5.66699 20.667 15.5 41 29.5s40.166 26.333 59.499 37s41.5 20.334 66.5 29.001s47.5 12.667 67.5 12c28.667 -0.666992 54.667 -5.33398 78 -14.001s46.333 -23.167 69 -43.5s42.667 -49.666 60 -87.999
s31.666 -85.5 42.999 -141.5c5.33301 -27.333 12 -65.5 20 -114.5l23.5 -141l26 -147c9.66699 -53 20 -101 31 -144s23 -83.167 36 -120.5s27.833 -66.833 44.5 -88.5s34.334 -33.5 53.001 -35.5c16 -6.66699 42.5 10 79.5 50s73.667 88.5 110 145.5
s68.333 117.167 96 180.5s41.5 112.666 41.5 147.999c0.666992 28.667 -3.5 53.334 -12.5 74.001s-23.5 37.667 -43.5 51s-48.5 19.5 -85.5 18.5s-80.833 -10.167 -131.5 -27.5c-7.33301 -5.33301 -10.666 -4 -9.99902 4l4 14l8.5 27.5
c3.66699 11.667 12.834 34.334 27.501 68.001s31.334 65.5 50.001 95.5s44.334 62.667 77.001 98s68 64.833 106 88.5s84.5 42 139.5 55s113.833 15.833 176.5 8.5c46.667 -5.33301 87.167 -18 121.5 -38s60.666 -45 78.999 -75s32.166 -63.333 41.499 -100
s13.666 -74.667 12.999 -114s-3.66699 -78.166 -9 -116.499s-12.833 -74.666 -22.5 -108.999s-19.5 -64.166 -29.5 -89.499s-19.333 -45 -28 -59c-8.66699 -20.667 -25.834 -53.334 -51.501 -98.001s-59.334 -98.834 -101.001 -162.501s-87.5 -129.5 -137.5 -197.5
s-105.167 -135.667 -165.5 -203s-120.333 -127.333 -180 -180s-121.5 -95.167 -185.5 -127.5s-123.333 -47.833 -178 -46.5c-27.333 0.666992 -53 6.16699 -77 16.5s-45.667 23.833 -65 40.5s-37.833 37.834 -55.5 63.501s-33.167 52.167 -46.5 79.5
s-26.666 59.333 -39.999 96s-24.833 71.667 -34.5 105s-19.834 71 -30.501 113l-34 126.5l-33.5 126.5c-9 34.667 -19.667 73.667 -32 117s-23.5 80 -33.5 110s-21.5 60.5 -34.5 91.5s-25.667 56.167 -38 75.5s-26.166 35.5 -41.499 48.5s-31 20.833 -47 23.5
c-14 -4.66699 -34 -15 -60 -31s-49 -31 -69 -45s-29.667 -21 -29 -21z" />
    <glyph glyph-name="d" unicode="d" 
d="M1024 -378c-90 0 -177.833 11.833 -263.5 35.5s-164.667 56.834 -237 99.501s-139.166 94.667 -200.499 156s-113.333 128.166 -156 200.499s-75.834 151.333 -99.501 237s-35.5 173.5 -35.5 263.5s11.833 177.833 35.5 263.5s56.834 164.667 99.501 237
s94.667 139.166 156 200.499s128.166 113.333 200.499 156s151.333 75.834 237 99.501s173.5 35.5 263.5 35.5s177.833 -11.833 263.5 -35.5s164.667 -56.834 237 -99.501s139.166 -94.667 200.499 -156s113.333 -128.166 156 -200.499s75.834 -151.333 99.501 -237
s35.5 -173.5 35.5 -263.5s-11.833 -177.833 -35.5 -263.5s-56.834 -164.667 -99.501 -237s-94.667 -139.166 -156 -200.499s-128.166 -113.333 -200.499 -156s-151.333 -75.834 -237 -99.501s-173.5 -35.5 -263.5 -35.5zM1515 1187
c-44 4.66699 -85.3311 2.66992 -123.998 -5.99707s-71.667 -21.834 -99 -39.501s-52.333 -38.167 -75 -61.5s-40.834 -46.666 -54.501 -69.999s-25.334 -45.5 -35.001 -66.5s-16.334 -37.333 -20.001 -49s-5.5 -18.167 -5.5 -19.5l-2 -14c0.666992 -2 3 -1.66699 7 1
c35.333 12.667 66 19.334 92 20.001s46.167 -3.66602 60.5 -12.999s24.666 -21.333 30.999 -36s9.16602 -32.334 8.49902 -53.001c0.666992 -32.667 -15 -80.5 -47 -143.5s-66.833 -118 -104.5 -165s-64.167 -67.5 -79.5 -61.5c-15.333 2 -29.666 13.667 -42.999 35
s-24.833 47.333 -34.5 78s-19.167 67.5 -28.5 110.5s-16.833 83 -22.5 120s-12.167 76.833 -19.5 119.5s-13 74.667 -17 96c-8 39.333 -18.167 72.666 -30.5 99.999s-26.5 48.166 -42.5 62.499s-32.167 24.5 -48.5 30.5s-34.833 9.33301 -55.5 10
c-22 0.666992 -47.833 -6.16602 -77.5 -20.499s-53.5 -28.833 -71.5 -43.5l-28 -21l-255 -224l67 -86c52.667 38.667 90 61.334 112 68.001c12.667 -1.33301 24.834 -7.33301 36.501 -18s22.834 -26.334 33.501 -47.001s20.5 -41.834 29.5 -63.501s18.5 -49.667 28.5 -84
s18.5 -64.833 25.5 -91.5l27 -102l26.5 -101c11.333 -42.667 21.833 -79.834 31.5 -111.501s21.834 -64 36.501 -97s30.167 -60 46.5 -81s35.833 -38.5 58.5 -52.5s47.334 -21.333 74.001 -22c38.667 -0.666992 80.5 10.333 125.5 33s88.667 52.667 131 90
s84.833 79.833 127.5 127.5s81.667 95.5 117 143.5s67.666 94.5 96.999 139.5s53.166 83.333 71.499 115s30.5 54.834 36.5 69.501c7.33301 11.333 15 27.666 23 48.999s15.5 46.666 22.5 75.999s12.167 59.666 15.5 90.999s2.83301 62.833 -1.5 94.5
s-12.5 60.334 -24.5 86.001s-31 47.5 -57 65.5s-58 29 -96 33z" />
    <glyph glyph-name="e" unicode="e" 
d="M2016 1245c-55.333 -83.333 -123 -153.997 -203 -211.997c0.666992 -18 1 -35.667 1 -53c0 -78 -8.16699 -156.5 -24.5 -235.5s-41.166 -156.667 -74.499 -233s-73.666 -149 -120.999 -218s-103.5 -132.667 -168.5 -191s-135.833 -109 -212.5 -152
s-162.667 -76.5 -258 -100.5s-195 -36 -299 -36c-226 0 -434 61.333 -624 184c32 -4 64.333 -6 97 -6c93.333 0 183.166 15.333 269.499 46s164.833 74 235.5 130c-88 1.33301 -166.833 28.5 -236.5 81.5s-117.5 120.5 -143.5 202.5c25.333 -4.66699 51 -7 77 -7
c36 0 71.667 4.66699 107 14c-94 19.333 -172 66.666 -234 141.999s-93 162 -93 260v5c57.333 -32 119 -49 185 -51c-56 37.333 -100.167 86 -132.5 146s-48.5 125 -48.5 195c0 74 18.333 142.667 55 206c102 -126 225.667 -226.667 371 -302s301.333 -117.333 468 -126
c-7.33301 30.667 -11 62 -11 94c0 74 18.167 142.5 54.5 205.5s85.833 112.667 148.5 149s130.667 54.5 204 54.5c58 0 112.667 -11.333 164 -34s96 -54.334 134 -95.001c91.333 18 177.333 51 258 99c-15.333 -47.333 -38.333 -90.5 -69 -129.5
s-67.334 -71.167 -110.001 -96.5c81.333 9.33301 159.333 30.666 234 63.999z" />
    <glyph glyph-name="f" unicode="f" 
d="M1024 -378c-90 0 -177.833 11.833 -263.5 35.5s-164.667 56.834 -237 99.501s-139.166 94.667 -200.499 156s-113.333 128.166 -156 200.499s-75.834 151.333 -99.501 237s-35.5 173.5 -35.5 263.5s11.833 177.833 35.5 263.5s56.834 164.667 99.501 237
s94.667 139.166 156 200.499s128.166 113.333 200.499 156s151.333 75.834 237 99.501s173.5 35.5 263.5 35.5s177.833 -11.833 263.5 -35.5s164.667 -56.834 237 -99.501s139.166 -94.667 200.499 -156s113.333 -128.166 156 -200.499s75.834 -151.333 99.501 -237
s35.5 -173.5 35.5 -263.5s-11.833 -177.833 -35.5 -263.5s-56.834 -164.667 -99.501 -237s-94.667 -139.166 -156 -200.499s-128.166 -113.333 -200.499 -156s-151.333 -75.834 -237 -99.501s-173.5 -35.5 -263.5 -35.5zM1653 1138
c-54 -32 -112.004 -54.3301 -174.004 -66.9971c-25.333 27.333 -55.166 48.666 -89.499 63.999s-70.833 23 -109.5 23c-75.333 0 -139.666 -26.833 -192.999 -80.5s-80 -118.5 -80 -194.5c0 -21.333 2.33301 -42 7 -62c-112 5.33301 -216.833 33.333 -314.5 84
s-180.5 118.334 -248.5 203.001c-24.667 -42.667 -37 -88.667 -37 -138c0 -47.333 10.833 -91 32.5 -131s51.167 -72.667 88.5 -98c-44 1.33301 -85.333 12.666 -124 33.999v-3c0 -66 20.833 -124.333 62.5 -175s94.167 -82.334 157.5 -95.001c-24 -6.66699 -48 -10 -72 -10
c-17.333 0 -34.666 1.66699 -51.999 5c18 -54.667 50.333 -99.834 97 -135.501s99.334 -54.167 158.001 -55.5c-99.333 -78 -212.333 -117 -339 -117c-22 0 -43.667 1.33301 -65 4c127.333 -82.667 267 -124 419 -124c81.333 0 158.5 10.833 231.5 32.5
s137.5 51.5 193.5 89.5s106.5 82.333 151.5 133s82 105.167 111 163.5s51.167 118.333 66.5 180s23 122.834 23 183.501c0 12 -0.333008 24 -1 36c54 39.333 99.667 86.666 137 141.999c-50 -22 -102.333 -36.333 -157 -43c58.667 36 98.667 86.667 120 152z" />
    <glyph glyph-name="g" unicode="g" 
d="M2013 164c0 -73.333 -14.332 -143.5 -42.999 -210.5s-67.167 -124.667 -115.5 -173s-106 -86.833 -173 -115.5s-137.5 -43 -211.5 -43c-94.667 0 -183.334 23.333 -266.001 70c-58 -11.333 -116.333 -17 -175 -17c-84.667 0 -167.5 11.333 -248.5 34
s-155.833 54.167 -224.5 94.5s-131.834 89.333 -189.501 147s-106.667 120.667 -147 189s-71.666 143 -93.999 224s-33.5 163.833 -33.5 248.5c0 60 5.66699 119.333 17 178c-49.333 84.667 -74 176 -74 274c0 73.333 14.333 143.5 43 210.5s67.167 124.667 115.5 173
s106 86.833 173 115.5s137.5 43 211.5 43c98 0 189 -24.667 273 -74c58.667 11.333 118 17 178 17c84.667 0 167.5 -11.167 248.5 -33.5s155.833 -53.666 224.5 -93.999s131.834 -89.333 189.501 -147s106.667 -120.667 147 -189s71.666 -143 93.999 -224
s33.5 -164.167 33.5 -249.5c0 -63.333 -6.33301 -126 -19 -188c44 -80.667 66 -167.334 66 -260.001zM1234 981c12.667 -17.333 24.8311 -31.9971 36.498 -43.9971s22.167 -21.833 31.5 -29.5s19.333 -13.334 30 -17.001s19.5 -6.16699 26.5 -7.5s16.333 -1 28 1
s21.167 4 28.5 6s18.333 5.66699 33 11c24.667 8 41 28 49 60c12.667 49.333 -3.33301 99 -48 149c-52 58.667 -136.333 104.667 -253 138c-425.333 57.333 -646 -58.334 -662 -347.001c-2 -40 2.16699 -76.833 12.5 -110.5s23.666 -61.834 39.999 -84.501
s38.833 -43.667 67.5 -63s54.5 -34.5 77.5 -45.5s52.5 -21.5 88.5 -31.5s63.5 -17 82.5 -21s44.167 -8.66699 75.5 -14c12.667 -2 21.667 -3.66699 27 -5c43.333 -8 83 -17.667 119 -29s61 -21 75 -29l22 -11c26 -20.667 43.167 -44.334 51.5 -71.001s7 -52.167 -4 -76.5
s-28.167 -46.5 -51.5 -66.5s-55 -34.667 -95 -44s-83 -11.333 -129 -6c-32.667 3.33301 -62 10.166 -88 20.499s-47.167 22.333 -63.5 36s-31 28.167 -44 43.5s-24.667 30.5 -35 45.5s-20.833 28.5 -31.5 40.5s-23.167 21.667 -37.5 29s-30.5 11 -48.5 11
c-42.667 0 -75 -19 -97 -57c-25.333 -44 -26.333 -93.333 -3 -148c32.667 -76 105 -135 217 -177c34.667 -12.667 72.667 -23.334 114 -32.001c216.667 -41.333 388.334 -18.666 515.001 68.001c85.333 58.667 137.333 136.667 156 234
c17.333 91.333 2.33301 175.333 -45 252c-43.333 70.667 -106 118.334 -188 143.001c-51.333 16 -102.333 30.167 -153 42.5s-91.167 21.5 -121.5 27.5s-60 12.5 -89 19.5s-51 13.167 -66 18.5s-28.833 13.166 -41.5 23.499s-21.5 22.833 -26.5 37.5
s-8.5 33.334 -10.5 56.001c-2.66699 30.667 7.33301 57 30 79s52.334 36.833 89.001 44.5s74.834 11 114.501 10s77.5 -8.66699 113.5 -23s63 -33.166 81 -56.499z" />
    <glyph glyph-name="h" unicode="h" 
d="M1024 -378c-90 0 -177.833 11.833 -263.5 35.5s-164.667 56.834 -237 99.501s-139.166 94.667 -200.499 156s-113.333 128.166 -156 200.499s-75.834 151.333 -99.501 237s-35.5 173.5 -35.5 263.5s11.833 177.833 35.5 263.5s56.834 164.667 99.501 237
s94.667 139.166 156 200.499s128.166 113.333 200.499 156s151.333 75.834 237 99.501s173.5 35.5 263.5 35.5s177.833 -11.833 263.5 -35.5s164.667 -56.834 237 -99.501s139.166 -94.667 200.499 -156s113.333 -128.166 156 -200.499s75.834 -151.333 99.501 -237
s35.5 -173.5 35.5 -263.5s-11.833 -177.833 -35.5 -263.5s-56.834 -164.667 -99.501 -237s-94.667 -139.166 -156 -200.499s-128.166 -113.333 -200.499 -156s-151.333 -75.834 -237 -99.501s-173.5 -35.5 -263.5 -35.5zM1632 613c0 82 -15.999 160.333 -47.999 235
s-75 139 -129 193s-118.333 97 -193 129s-153 48 -235 48c-38.667 0 -77 -3.66699 -115 -11c-54 31.333 -112.667 47 -176 47s-121.833 -15.5 -175.5 -46.5s-96.167 -73.5 -127.5 -127.5s-47 -112.667 -47 -176s16 -122 48 -176c-7.33301 -38 -11 -76.333 -11 -115
c0 -82 15.833 -160.333 47.5 -235s74.5 -139 128.5 -193s118.333 -97 193 -129s153 -48 235 -48c38 0 75.667 3.66699 113 11c53.333 -30 110.666 -45 171.999 -45c63.333 0 121.833 15.5 175.5 46.5s96.167 73.5 127.5 127.5s47 112.667 47 176c0 59.333 -14 115 -42 167
c8 40 12 80.667 12 122zM1211 671c65.333 -20 111.002 -60.6709 137.002 -122.004s25 -122.666 -3 -183.999c-31.333 -70.667 -89.333 -117.667 -174 -141c-69.333 -19.333 -150.333 -20.333 -243 -3c-107.333 22.667 -177 64.667 -209 126c-20.667 39.333 -21 75 -1 107
c14.667 22.667 35.334 34 62.001 34c15.333 0 28.833 -4.33301 40.5 -13s22.167 -19.667 31.5 -33s19.5 -26.833 30.5 -40.5s26.833 -26.167 47.5 -37.5s45.334 -18.666 74.001 -21.999c30 -3.33301 57.833 -2 83.5 4s46 15.5 61 28.5s26.167 27.333 33.5 43
s8.33301 32 3 49s-16.666 32.5 -33.999 46.5c-30 18 -76.333 32.667 -139 44c-4 0.666992 -9.66699 1.66699 -17 3c-16 3.33301 -28.5 5.83301 -37.5 7.5s-22.5 4.66699 -40.5 9s-32.833 8.5 -44.5 12.5s-25.834 9.66699 -42.501 17s-30.334 15 -41.001 23
s-21.834 17.833 -33.501 29.5s-20.834 24.167 -27.501 37.5s-12 28.833 -16 46.5s-5.33301 36.5 -4 56.5c10 186.667 152.333 261.334 427 224.001c104 -30 167.333 -73.333 190 -130c12.667 -32.667 9.66699 -59.667 -9 -81c-5.33301 -6 -11.666 -10.333 -18.999 -13
c-12.667 -4.66699 -22.167 -7.66699 -28.5 -9s-14.5 -2.16602 -24.5 -2.49902s-18.667 1.66699 -26 6s-16 11.166 -26 20.499s-21 21.666 -33 36.999c-14 18.667 -36.833 32.5 -68.5 41.5s-63.167 12.333 -94.5 10s-58.5 -11.166 -81.5 -26.499s-33.5 -35.333 -31.5 -60
c1.33301 -17.333 4.66602 -31.166 9.99902 -41.499s12.166 -18.5 20.499 -24.5s21.833 -11.333 40.5 -16s38 -9 58 -13s48.667 -10.5 86 -19.5s75 -19.167 113 -30.5z" />
    <glyph glyph-name="i" unicode="i" 
d="M1070 1606c85.333 0 165.994 -11.6699 241.994 -35.0029s142.833 -55.833 200.5 -97.5s107.667 -89.834 150 -144.501s74.5 -114.167 96.5 -178.5s33 -130.166 33 -197.499c0 -110.667 -15 -214.167 -45 -310.5s-71.667 -179 -125 -248s-118.333 -123.333 -195 -163
s-160 -59.5 -250 -59.5c-60 0 -116.333 14 -169 42s-89 61.333 -109 100c-44.667 -174.667 -71.667 -279 -81 -313c-29.333 -108.667 -97.666 -233 -204.999 -373c-4 -5.33301 -9.33301 -7.16602 -16 -5.49902s-10.334 5.83398 -11.001 12.501
c-24.667 176 -23.667 320.333 3 433c98 413.333 147 620.333 147 621c-2.66699 5.33301 -6 13 -10 23s-9.5 30.667 -16.5 62s-10.5 63 -10.5 95c0 84 21.333 154.167 64 210.5s94.667 84.5 156 84.5c49.333 0 87.333 -16.167 114 -48.5s40 -73.166 40 -122.499
c0 -30.667 -5.66699 -68 -17 -112s-26.166 -95.167 -44.499 -153.5s-31.5 -104.833 -39.5 -139.5c-14 -59.333 -2.66699 -110.666 34 -153.999s85.334 -65 146.001 -65c70 0 132.833 27.667 188.5 83s98.334 129 128.001 221s44.5 192.667 44.5 302
c0 62.667 -10.5 120.5 -31.5 173.5s-51.167 99 -90.5 138s-89 69.667 -149 92s-127.667 33.5 -203 33.5c-84 0 -161.667 -15 -233 -45s-130.666 -70.167 -177.999 -120.5s-84.166 -108.333 -110.499 -174s-39.5 -134.5 -39.5 -206.5c0 -90 25 -164.667 75 -224
c10.667 -12.667 17 -22.834 19 -30.501s1.33301 -18.5 -2 -32.5c-2 -7.33301 -6 -22.833 -12 -46.5s-10 -38.834 -12 -45.501c-3.33301 -14 -10.333 -23.667 -21 -29s-22.667 -5 -36 1c-51.333 20.667 -94.833 53.167 -130.5 97.5s-61.667 95 -78 152
s-24.5 118.833 -24.5 185.5c0 54.667 7.66699 109.834 23 165.501s37.833 110 67.5 163s67.834 102.667 114.501 149s99.167 87 157.5 122s126.333 62.5 204 82.5s160.167 30 247.5 30z" />
    <glyph glyph-name="j" unicode="j" 
d="M1024 -378c-90 0 -177.833 11.833 -263.5 35.5s-164.667 56.834 -237 99.501s-139.166 94.667 -200.499 156s-113.333 128.166 -156 200.499s-75.834 151.333 -99.501 237s-35.5 173.5 -35.5 263.5s11.833 177.833 35.5 263.5s56.834 164.667 99.501 237
s94.667 139.166 156 200.499s128.166 113.333 200.499 156s151.333 75.834 237 99.501s173.5 35.5 263.5 35.5s177.833 -11.833 263.5 -35.5s164.667 -56.834 237 -99.501s139.166 -94.667 200.499 -156s113.333 -128.166 156 -200.499s75.834 -151.333 99.501 -237
s35.5 -173.5 35.5 -263.5s-11.833 -177.833 -35.5 -263.5s-56.834 -164.667 -99.501 -237s-94.667 -139.166 -156 -200.499s-128.166 -113.333 -200.499 -156s-151.333 -75.834 -237 -99.501s-173.5 -35.5 -263.5 -35.5zM1060 1383
c-80.667 0 -155.998 -11.167 -225.998 -33.5s-129.333 -52 -178 -89s-90.334 -79.333 -125.001 -127s-60.334 -97.167 -77.001 -148.5s-25 -102.666 -25 -153.999c0 -79.333 15.333 -149.333 46 -210s75.667 -103 135 -127c10 -4.66699 19.167 -5 27.5 -1
s13.833 11.667 16.5 23c1.33301 4.66699 4.33301 16.167 9 34.5s7.66699 30.5 9 36.5c2.66699 10.667 3.33398 19 2.00098 25s-6.33301 14 -15 24c-38.667 46 -58 103.667 -58 173c0 56 10.333 109.5 31 160.5s49.334 96 86.001 135s82.5 70 137.5 93
s115.167 34.5 180.5 34.5c115.333 0 205.333 -31.5 270 -94.5s97 -144.167 97 -243.5c0 -85.333 -11.5 -163.5 -34.5 -234.5s-56 -128 -99 -171s-91.833 -64.5 -146.5 -64.5c-46.667 0 -84.334 16.833 -113.001 50.5s-37.334 73.5 -26.001 119.5
c6 26.667 16.167 62.5 30.5 107.5s25.833 84.667 34.5 119s13 63.166 13 86.499c0 38.667 -10.333 70.5 -31 95.5s-50 37.5 -88 37.5c-48 0 -88.5 -21.833 -121.5 -65.5s-49.5 -98.167 -49.5 -163.5c0 -24.667 2.5 -48.5 7.5 -71.5s9.83301 -40.167 14.5 -51.5l7 -16
l-114 -481c-20.667 -87.333 -21.667 -199.333 -3 -336c0.666992 -5.33301 3.66699 -8.5 9 -9.5s9.33301 0.5 12 4.5c83.333 108.667 136.666 205 159.999 289c3.33301 12 10.166 38.167 20.499 78.5l28.5 112.5l13 52c16 -30.667 44.333 -56.667 85 -78
s84.334 -32 131.001 -32c92.667 0 175.334 26.167 248.001 78.5s128.834 124.5 168.501 216.5s59.5 195.333 59.5 310c0 65.333 -13.5 128.5 -40.5 189.5s-64.333 114.833 -112 161.5s-106.834 84.167 -177.501 112.5s-147 42.5 -229 42.5z" />
    <glyph glyph-name="k" unicode="k" 
d="M735 -378l-0.00390625 1024h-191v288h191v333c0 4.66699 0.333008 11 1 19s3.5 23.833 8.5 47.5s12.167 46.167 21.5 67.5s24.5 45 45.5 71s45.833 48.333 74.5 67s66.334 34.5 113.001 47.5s99.167 19.5 157.5 19.5s115 -2.66699 170 -8s95.833 -10.666 122.5 -15.999
l39 -8l-52 -301l-33.5 7.5c-13.667 3 -35.5 7 -65.5 12s-52 7.16699 -66 6.5c-13.333 -0.666992 -25.166 -1.66699 -35.499 -3s-23.166 -5.16602 -38.499 -11.499s-28.166 -14.666 -38.499 -24.999s-19.333 -25.833 -27 -46.5s-11.5 -44.667 -11.5 -72v-207h320l-22 -288
h-298v-1024h-385z" />
    <glyph glyph-name="l" unicode="l" 
d="M1024 -378c-90 0 -177.833 11.833 -263.5 35.5s-164.667 56.834 -237 99.501s-139.166 94.667 -200.499 156s-113.333 128.166 -156 200.499s-75.834 151.333 -99.501 237s-35.5 173.5 -35.5 263.5s11.833 177.833 35.5 263.5s56.834 164.667 99.501 237
s94.667 139.166 156 200.499s128.166 113.333 200.499 156s151.333 75.834 237 99.501s173.5 35.5 263.5 35.5s177.833 -11.833 263.5 -35.5s164.667 -56.834 237 -99.501s139.166 -94.667 200.499 -156s113.333 -128.166 156 -200.499s75.834 -151.333 99.501 -237
s35.5 -173.5 35.5 -263.5s-11.833 -177.833 -35.5 -263.5s-56.834 -164.667 -99.501 -237s-94.667 -139.166 -156 -200.499s-128.166 -113.333 -200.499 -156s-151.333 -75.834 -237 -99.501s-173.5 -35.5 -263.5 -35.5zM1124 1318c-41.333 0 -78.665 -4.33301 -111.998 -13
s-60.166 -20.167 -80.499 -34.5s-37.833 -30 -52.5 -47s-25.334 -34 -32.001 -51s-11.834 -32.667 -15.501 -47s-5.83398 -25.833 -6.50098 -34.5v-13l-1 -237h-135v-204h135l1 -728h273v728h211l16 204h-227v147c0 20 2.66699 37.167 8 51.5s11.666 25.166 18.999 32.499
s16.5 13.333 27.5 18s20.167 7.5 27.5 8.5s15.666 1.5 24.999 1.5c10 0.666992 24.833 -0.5 44.5 -3.5s36.834 -6.16699 51.501 -9.5l21 -5l37 214l-5.5 1l-16.5 3c-7.33301 1.33301 -16.166 2.83301 -26.499 4.5s-22.333 3.33398 -36 5.00098s-28 3.16699 -43 4.5
s-32 2.33301 -51 3s-37.833 1 -56.5 1z" />
    <glyph glyph-name="m" unicode="m" 
d="M1670 1044v-348h-110v348h-347v109h347v343h110v-343h346v-109h-346zM869 1413c14 -10.667 29.8301 -24.5 47.4971 -41.5s34.834 -37.833 51.501 -62.5s31 -53.5 43 -86.5s18 -70.5 18 -112.5s-5.33301 -78.667 -16 -110s-25 -59.5 -43 -84.5s-38.167 -47.5 -60.5 -67.5
s-45.5 -39 -69.5 -57c-14.667 -15.333 -28.834 -31.166 -42.501 -47.499s-20.5 -37.166 -20.5 -62.499s7 -45.333 21 -60c13.333 -14 26 -26.333 38 -37l81 -63l70 -63c23.333 -20.667 43.666 -43 60.999 -67s31.166 -51 41.499 -81s15.5 -64.333 15.5 -103
c0 -52.667 -12.667 -104.5 -38 -155.5s-62.666 -96.333 -111.999 -136s-111.166 -71.834 -185.499 -96.501s-159.166 -37 -254.499 -37c-81.333 0 -152.166 9 -212.499 27s-110.833 42 -151.5 72s-70.667 64 -90 102s-29 78 -29 120c0 40.667 12.333 86.667 37 138
s70 96.666 136 135.999c34 20.667 70.833 37.334 110.5 50.001s79.167 22.667 118.5 30c38.667 8 75.334 13.5 110.001 16.5s64.667 5.16699 90 6.5c-16.667 20.667 -32.167 42.667 -46.5 66s-21.5 52 -21.5 86c0 20 2.33301 36.333 7 49s10 25.667 16 39
c-12 -1.33301 -24 -2.33301 -36 -3c-12 -1.33301 -24 -2 -36 -2c-60 0 -113.167 10.167 -159.5 30.5s-85.166 47 -116.499 80s-55.333 70.833 -72 113.5s-25 85.667 -25 129c0 52 12 104.667 36 158s60 100.666 108 141.999c64 52.667 131.667 86.5 203 101.5
s137.666 22.5 198.999 22.5h462l-143 -79h-140zM626.997 416c-16 -0.666992 -35.3311 -2.16797 -57.998 -4.50098s-46.667 -6.16602 -72 -11.499c-26 -5.33301 -50.667 -11.666 -74 -18.999c-12.667 -4.66699 -29.667 -11.667 -51 -21c-21.333 -10 -42.5 -24 -63.5 -42
s-39.333 -40.333 -55 -67s-23.5 -60.334 -23.5 -101.001c0 -80.667 35.5 -146.5 106.5 -197.5s167.167 -76.5 288.5 -76.5c107.333 0 189.166 22.833 245.499 68.5s84.5 103.834 84.5 174.501c0 28 -4.83301 53.667 -14.5 77s-24.334 46.166 -44.001 68.499
s-45.167 45.5 -76.5 69.5l-110 81c-8.66699 1.33301 -16.667 2 -24 2h-28c-4.66699 0 -15 -0.333008 -31 -1zM812.999 1138.5c-12 48.333 -29.999 93.501 -53.999 135.501s-53.5 76.833 -88.5 104.5s-75.833 41.5 -122.5 41.5c-30 0 -59.167 -6.66699 -87.5 -20
s-51.5 -31.333 -69.5 -54c-19.333 -24 -32.333 -50.333 -39 -79s-10 -58 -10 -88c0 -37.333 5.5 -79.333 16.5 -126s28.167 -90.167 51.5 -130.5s52.666 -74.5 87.999 -102.5s76.666 -42 123.999 -42c28.667 0 56.834 6 84.501 18s50.5 27 68.5 45
c25.333 26 41 54.667 47 86s9 57.666 9 78.999c0 40 -6 84.167 -18 132.5z" />
    <glyph glyph-name="n" unicode="n" 
d="M1024 -378c-90 0 -177.833 11.833 -263.5 35.5s-164.667 56.834 -237 99.501s-139.166 94.667 -200.499 156s-113.333 128.166 -156 200.499s-75.834 151.333 -99.501 237s-35.5 173.5 -35.5 263.5s11.833 177.833 35.5 263.5s56.834 164.667 99.501 237
s94.667 139.166 156 200.499s128.166 113.333 200.499 156s151.333 75.834 237 99.501s173.5 35.5 263.5 35.5s177.833 -11.833 263.5 -35.5s164.667 -56.834 237 -99.501s139.166 -94.667 200.499 -156s113.333 -128.166 156 -200.499s75.834 -151.333 99.501 -237
s35.5 -173.5 35.5 -263.5s-11.833 -177.833 -35.5 -263.5s-56.834 -164.667 -99.501 -237s-94.667 -139.166 -156 -200.499s-128.166 -113.333 -200.499 -156s-151.333 -75.834 -237 -99.501s-173.5 -35.5 -263.5 -35.5zM876 1187
c-41.333 0 -85.835 -5.16504 -133.502 -15.498s-93.167 -32.833 -136.5 -67.5c-32 -28.667 -56.167 -60.834 -72.5 -96.501s-24.5 -71.167 -24.5 -106.5c0 -28.667 5.66699 -57.334 17 -86.001s27.5 -54.167 48.5 -76.5s47 -40.166 78 -53.499s66.833 -20 107.5 -20h24
c8 0.666992 16 1.66699 24 3c-4 -9.33301 -7.33301 -18.333 -10 -27c-3.33301 -8.66699 -5 -19.334 -5 -32.001c0 -23.333 4.83301 -42.833 14.5 -58.5s19.834 -30.5 30.501 -44.5c-16.667 -0.666992 -36.667 -2 -60 -4s-48 -5.5 -74 -10.5s-52.333 -11.833 -79 -20.5
s-51.667 -20 -75 -34c-44 -26 -74.333 -56.333 -91 -91s-25 -65.667 -25 -93c0 -28 6.5 -54.833 19.5 -80.5s33.167 -48.667 60.5 -69s61.333 -36.5 102 -48.5s88 -18 142 -18c64.667 0 121.834 8.33301 171.501 25s91.167 38.334 124.5 65.001s58.5 57.167 75.5 91.5
s25.5 69.166 25.5 104.499c0 26 -3.5 49 -10.5 69s-16.333 38.167 -28 54.5s-25.167 31.5 -40.5 45.5l-48 42l-54 42c-8 7.33301 -16.5 15.833 -25.5 25.5s-13.5 23 -13.5 40s4.5 31 13.5 42s18.5 21.5 28.5 31.5c16 12 31.667 24.833 47 38.5s29 28.834 41 45.501
s21.5 35.667 28.5 57s10.5 46 10.5 74s-4 53.167 -12 75.5s-17.5 41.666 -28.5 57.999s-22.667 30.333 -35 42s-22.833 21.167 -31.5 28.5h93l97 53h-311zM1535 959.002v230h-74v-230h-233v-74h233v-233h74v233h232v74h-232zM932.998 749.002
c-12 -12 -27.332 -22.001 -45.999 -30.001s-37.334 -12 -56.001 -12c-32.667 0 -60.667 9.33301 -84 28s-42.833 41.667 -58.5 69s-27.334 56.5 -35.001 87.5s-11.5 59.167 -11.5 84.5c0 20.667 2.33301 40.5 7 59.5s13.334 36.5 26.001 52.5c12 15.333 27.667 27.5 47 36.5
s39 13.5 59 13.5c31.333 0 58.833 -9.33301 82.5 -28s43.5 -42.167 59.5 -70.5s28 -58.5 36 -90.5s12 -61.667 12 -89c0 -14 -2 -31.667 -6 -53s-14.667 -40.666 -32 -57.999zM873.999 464.001c4.66699 0 10.0029 -0.331055 16.0029 -0.998047l74 -55
c20.667 -16 37.667 -31.5 51 -46.5s23.166 -30.333 29.499 -46s9.5 -33.167 9.5 -52.5c0 -46.667 -18.833 -85.334 -56.5 -116.001s-92.834 -46.334 -165.501 -47.001c-81.333 0 -145.833 17.167 -193.5 51.5s-71.5 78.833 -71.5 133.5c0 26.667 5.16699 49.167 15.5 67.5
s22.666 33.5 36.999 45.5s28.5 21.333 42.5 28l34 14c16 4.66699 32.667 9 50 13c17.333 3.33301 33.5 5.83301 48.5 7.5s28.167 2.5 39.5 2.5c10.667 0.666992 17.667 1 21 1h19z" />
    <glyph glyph-name="o" unicode="o" 
d="M1024 -378c-90 0 -177.833 11.833 -263.5 35.5s-164.667 56.834 -237 99.501s-139.166 94.667 -200.499 156s-113.333 128.166 -156 200.499s-75.834 151.333 -99.501 237s-35.5 173.5 -35.5 263.5s11.833 177.833 35.5 263.5s56.834 164.667 99.501 237
s94.667 139.166 156 200.499s128.166 113.333 200.499 156s151.333 75.834 237 99.501s173.5 35.5 263.5 35.5s177.833 -11.833 263.5 -35.5s164.667 -56.834 237 -99.501s139 -94.667 200 -156s113 -128.166 156 -200.499s76.333 -151.333 100 -237
s35.5 -173.5 35.5 -263.5s-11.833 -177.833 -35.5 -263.5s-57 -164.667 -100 -237s-95 -139.166 -156 -200.499s-127.667 -113.333 -200 -156s-151.333 -75.834 -237 -99.501s-173.5 -35.5 -263.5 -35.5zM1861 478c-12 4 -25.8359 8 -41.5029 12s-42.5 9.5 -80.5 16.5
s-76.167 12.5 -114.5 16.5s-84.166 5.5 -137.499 4.5s-104.666 -5.5 -153.999 -13.5c33.333 -91.333 63.166 -185.166 89.499 -281.499s44 -166 53 -209s16.167 -80.833 21.5 -113.5c96.667 65.333 176.834 147.166 240.501 245.499s104.834 205.833 123.501 322.5z
M1355 -167c-6.66699 39.333 -15.332 83.332 -25.999 131.999s-30.167 122.5 -58.5 221.5s-60.5 195.167 -96.5 288.5c-0.666992 0 -1.5 -0.166992 -2.5 -0.5s-1.83301 -0.833008 -2.5 -1.5c-65.333 -22.667 -127.666 -49.334 -186.999 -80.001s-110 -61.167 -152 -91.5
s-81.667 -62.666 -119 -96.999s-67.333 -64.666 -90 -90.999s-43.5 -53 -62.5 -80s-31.833 -46.5 -38.5 -58.5s-12 -22.333 -16 -31c73.333 -56.667 154.166 -100.667 242.499 -132s180.833 -47 277.5 -47c115.333 0 225.666 22.667 330.999 68zM393.999 45.999
l21.499 34.502c8.33301 13 24 34.833 47 65.5s47.5 60.667 73.5 90s59 62.666 99 99.999s81.333 71.666 124 102.999s92.5 62 149.5 92s115.167 54.667 174.5 74c10.667 4 22 7.33301 34 10c-20.667 46.667 -43.667 94.667 -69 144
c-97.333 -29.333 -198.5 -53.333 -303.5 -72s-199.333 -30.834 -283 -36.501s-145.667 -9.16699 -186 -10.5s-73.166 -1.66602 -98.499 -0.999023v-26c0 -107.333 19 -209.5 57 -306.5s91.333 -183.833 160 -260.5zM193.998 786.001
c23.333 0 52.8291 0.667969 88.4961 2.00098s90.334 4.66602 164.001 9.99902s157.834 15.833 252.501 31.5s187.667 35.5 279 59.5c-97.333 173.333 -202 337 -314 491c-119.333 -56.667 -220.666 -137.167 -303.999 -241.5s-138.666 -221.833 -165.999 -352.5z
M824.994 1436l63.001 -85.999c24.667 -34.667 62.667 -92.5 114 -173.5s97.666 -159.833 138.999 -236.5c56.667 21.333 110.167 46 160.5 74s91 53.5 122 76.5s59.667 47 86 72s44.166 43.167 53.499 54.5s17 21.333 23 30c-76.667 67.333 -163 119.666 -259 156.999
s-197 56 -303 56c-67.333 0 -133.666 -8 -198.999 -24zM1680 1149c-6.66699 -9.33301 -15.334 -20.168 -26.001 -32.501s-30.167 -32 -58.5 -59s-59 -53 -92 -78s-76 -52.833 -129 -83.5s-108.833 -58 -167.5 -82l56 -122l18 -44c52.667 6.66699 108.5 10.334 167.5 11.001
s110.167 -0.5 153.5 -3.5s87 -7.33301 131 -13s74.833 -10 92.5 -13s32.834 -5.83301 45.501 -8.5c-0.666992 98 -17.667 192 -51 282s-80 172 -140 246z" />
    <glyph glyph-name="p" unicode="p" 
d="M1024 -378c-90 0 -177.833 11.833 -263.5 35.5s-164.667 56.834 -237 99.501s-139.166 94.667 -200.499 156s-113.333 128.166 -156 200.499s-75.834 151.333 -99.501 237s-35.5 173.5 -35.5 263.5s11.833 177.833 35.5 263.5s56.834 164.667 99.501 237
s94.667 139.166 156 200.499s128.166 113.333 200.499 156s151.333 75.834 237 99.501s173.5 35.5 263.5 35.5s177.833 -11.833 263.5 -35.5s164.667 -56.834 237 -99.501s139.166 -94.667 200.499 -156s113.333 -128.166 156 -200.499s75.834 -151.333 99.501 -237
s35.5 -173.5 35.5 -263.5s-11.833 -177.833 -35.5 -263.5s-56.834 -164.667 -99.501 -237s-94.667 -139.166 -156 -200.499s-128.166 -113.333 -200.499 -156s-151.333 -75.834 -237 -99.501s-173.5 -35.5 -263.5 -35.5zM1024 1383c-104 0 -203.5 -20.333 -298.5 -61
s-176.833 -95.334 -245.5 -164.001s-123.334 -150.5 -164.001 -245.5s-61 -194.5 -61 -298.5s20.333 -203.5 61 -298.5s95.334 -176.833 164.001 -245.5s150.5 -123.334 245.5 -164.001s194.5 -61 298.5 -61s203.5 20.333 298.5 61s176.833 95.334 245.5 164.001
s123.167 150.5 163.5 245.5s60.5 194.5 60.5 298.5s-20.167 203.5 -60.5 298.5s-94.833 176.833 -163.5 245.5s-150.5 123.334 -245.5 164.001s-194.5 61 -298.5 61zM1223 640l-14.0029 34c-13.333 31.333 -28 63 -44 95c46 18.667 89.5 39.834 130.5 63.501
s74.333 45.334 100 65.001s49.5 39.834 71.5 60.501s37 35.667 45 45s14.667 17.666 20 24.999c46.667 -56.667 82.834 -120 108.501 -190s38.834 -143 39.501 -219c-9.33301 2 -21 4.33301 -35 7s-38 6.16699 -72 10.5s-67.833 7.66602 -101.5 9.99902
s-73.167 3.16602 -118.5 2.49902s-88.666 -3.66699 -129.999 -9zM1115 867c-75.333 138.667 -156.999 266.669 -244.999 384.002c50.667 12 102 18 154 18c82 0 160.167 -14.333 234.5 -43s141.166 -69.334 200.499 -122.001c-4.66699 -6.66699 -10.667 -14.334 -18 -23.001
s-21 -22.667 -41 -42s-42 -38 -66 -56s-55.5 -37.667 -94.5 -59s-80.5 -40.333 -124.5 -57zM380.998 747.002c21.333 101.333 64.167 192.5 128.5 273.5s142.833 143.167 235.5 186.5c86.667 -119.333 167.667 -246 243 -380c-70.667 -18.667 -142.667 -34.167 -216 -46.5
s-138.5 -20.5 -195.5 -24.5s-99.333 -6.5 -127 -7.5s-50.5 -1.5 -68.5 -1.5zM1042 726.002c20 -38 38.002 -74.9961 54.002 -110.996c-9.33301 -2.66699 -18 -5.33398 -26 -8.00098c-46 -14.667 -91.167 -33.667 -135.5 -57s-83 -47.166 -116 -71.499s-65 -51 -96 -80
s-56.5 -54.833 -76.5 -77.5s-38.833 -45.834 -56.5 -69.501s-29.834 -40.667 -36.501 -51l-17 -26.5c-53.333 59.333 -94.833 126.666 -124.5 201.999s-44.5 154.333 -44.5 237c0 6 0.333008 12.667 1 20c19.333 -0.666992 44.666 -0.333984 75.999 0.999023
s79.5 4.16602 144.5 8.49902s138 13.833 219 28.5s159.167 33 234.5 55zM1136 505.006c0.666992 0 1.49609 0.166992 2.49609 0.5l1.5 0.5c66.667 -172 113.334 -337.667 140.001 -497c-81.333 -35.333 -166.666 -53 -255.999 -53c-150 0 -284.333 46.333 -403 139l12.5 24
c5 9.33301 15 24.5 30 45.5s31.167 41.667 48.5 62s40.5 43.833 69.5 70.5s59.833 51.667 92.5 75s71.834 47 117.501 71s93.834 44.667 144.501 62zM1672 509.006c-14.667 -90.667 -46.665 -174.168 -95.998 -250.501s-111 -139.5 -185 -189.5
c-24.667 146 -67.334 302 -128.001 468c38.667 6 78.667 9.33301 120 10s76.833 -0.5 106.5 -3.5s59.167 -7.16699 88.5 -12.5s50.166 -9.66602 62.499 -12.999s22.833 -6.33301 31.5 -9z" />
    <glyph glyph-name="left" unicode="&#x2c2;" 
d="M1322 -348l-876 875.998c-20 20 -30 44 -30 72s10 52 30 72l910 904c20 20 44 30 72 30s52 -10 72 -30l101 -100c19.333 -20 29 -44.167 29 -72.5s-9.66699 -52.166 -29 -71.499l-737 -733l703 -703c19.333 -19.333 29 -43.166 29 -71.499s-9.66699 -52.5 -29 -72.5
l-101 -100c-20 -20 -44 -30 -72 -30s-52 10 -72 30z" />
    <glyph glyph-name="right" unicode="&#x2c3;" 
d="M726 -348c-20 -20 -44 -29.998 -72 -29.998s-52 10 -72 30l-101 100c-19.333 20 -29 44.167 -29 72.5s9.66699 52.166 29 71.499l703 703l-737 733c-19.333 19.333 -29 43.166 -29 71.499s9.66699 52.5 29 72.5l101 100c20 20 44 30 72 30s52 -10 72 -30l910 -904
c20 -20 30 -44 30 -72s-10 -52 -30 -72z" />
    <glyph glyph-name="up" unicode="&#x2c4;" 
d="M63 316l876 876c20 20 44.167 30 72.5 30s52.5 -10 72.5 -30l904 -910c20 -20 30 -44 30 -72s-10 -52 -30 -72l-101 -101c-20 -19.333 -44 -29 -72 -29s-52 9.66699 -72 29l-732 737l-703 -703c-20 -19.333 -44 -29 -72 -29s-52 9.66699 -72 29l-101 101
c-20 20 -30 44 -30 72s10 52 30 72z" />
    <glyph glyph-name="down" unicode="&#x2c5;" 
d="M63 912c-20 20 -30 44 -30 72s10 52 30 72l101 101c20 20 44 30 72 30s52 -10 72 -30l703 -703l732 737c20 20 44 30 72 30s52 -10 72 -30l101 -101c20 -20 30 -44 30 -72s-10 -52 -30 -72l-904 -910c-20 -20 -44.167 -30 -72.5 -30s-52.5 10 -72.5 30z" />
    <glyph glyph-name="Check" unicode="&#x2713;" 
d="M1993 1080l-1210 -1211c-26 -25.333 -57.167 -38 -93.5 -38s-67.5 12.667 -93.5 38l-525 525c-25.333 26 -38 57.167 -38 93.5s12.667 67.5 38 93.5l93 93c26 25.333 57.167 38 93.5 38s67.5 -12.667 93.5 -38l338 -339l1025 1024c25.333 26 56.166 39 92.499 39
s67.5 -13 93.5 -39l93 -93c26 -25.333 39 -56.166 39 -92.499s-13 -67.5 -39 -93.5z" />
    <glyph glyph-name="uni2764" unicode="&#x2764;" 
d="M1024 1147c2 4.66699 5 11.0068 9 19.0068s13.333 23.5 28 46.5s30.334 44.833 47.001 65.5s38.834 43.667 66.501 69s56.334 47.166 86.001 65.499s64.667 33.833 105 46.5s81.833 19 124.5 19c77.333 0 149 -14.333 215 -43s121.667 -67.834 167 -117.501
s80.833 -108.834 106.5 -177.501s38.5 -142.334 38.5 -221.001c0 -49.333 -11.333 -103 -34 -161s-53.167 -115.167 -91.5 -171.5s-82.333 -114 -132 -173s-102 -115.167 -157 -168.5l-164.5 -154.5c-54.667 -49.667 -106.834 -94.5 -156.501 -134.5l-132 -105l-91.5 -70
l-34 -24l-35 25l-89.5 68.5l-133.5 106c-44 35.667 -95.833 80 -155.5 133s-115 105 -166 156s-102.667 106.833 -155 167.5s-96.833 118.667 -133.5 174s-66.667 112.166 -90 170.499s-35 112.166 -35 161.499c0 63.333 6.33301 122.666 19 177.999s32.5 106.5 59.5 153.5
s60.167 87.167 99.5 120.5s87.166 59.5 143.499 78.5s118.833 28.5 187.5 28.5c48 0 93.833 -6 137.5 -18s81.167 -27.833 112.5 -47.5s60.5 -41.167 87.5 -64.5s49.333 -46.833 67 -70.5s32.667 -45.167 45 -64.5s21.166 -35.333 26.499 -48z" />
    <glyph glyph-name="Anticlockwise" unicode="&#x27f2;" 
d="M78 774c-4 0 -7.33105 1.33398 -9.99805 4.00098s-4 5.66699 -4 9v774c0 15.333 6.66699 17.666 20 6.99902c1.33301 -2 36 -37.167 104 -105.5l187 -186.5c85.333 84 183.833 149.333 295.5 196s229.5 70 353.5 70c84 0 166.167 -11.167 246.5 -33.5
s154.333 -53.5 222 -93.5s130.167 -88.5 187.5 -145.5s105.833 -119.333 145.5 -187s70.667 -141.667 93 -222s33.5 -162.5 33.5 -246.5s-11.167 -166.167 -33.5 -246.5s-53.333 -154.333 -93 -222s-88.167 -130 -145.5 -187s-119.833 -105.5 -187.5 -145.5
s-141.667 -71.167 -222 -93.5s-162.5 -33.5 -246.5 -33.5c-180.667 0 -345.834 47.833 -495.501 143.5s-262.5 222.167 -338.5 379.5l258 125c52.667 -108.667 130.667 -196 234 -262s217.333 -99 342 -99c87.333 0 170.5 17 249.5 51s147.167 79.5 204.5 136.5
s102.833 125.167 136.5 204.5s50.5 162.333 50.5 249s-16.833 169.667 -50.5 249s-79.167 147.5 -136.5 204.5s-125.5 102.5 -204.5 136.5s-162.167 51 -249.5 51c-85.333 0 -166.333 -15.833 -243 -47.5s-144.334 -76.167 -203.001 -133.5l275 -275
c16 -16.667 15.333 -25 -2 -25h-773zM83.002 1568h1h-1z" />
    <glyph glyph-name="Clockwise" unicode="&#x27f3;" 
d="M1971 774l-774 -0.000976562c-17.333 0 -18 8.33301 -2 25l41 40.5l62 61l81 82l92 91.5c-59.333 57.333 -127.333 101.833 -204 133.5s-157.667 47.5 -243 47.5c-86.667 0 -169.667 -17 -249 -51s-147.5 -79.5 -204.5 -136.5s-102.5 -125.167 -136.5 -204.5
s-51 -162.333 -51 -249s17 -169.667 51 -249s79.5 -147.5 136.5 -204.5s125.167 -102.5 204.5 -136.5s162.333 -51 249 -51c124.667 0 238.834 33 342.501 99s181.834 153.333 234.501 262l258 -125c-76.667 -157.333 -189.834 -283.833 -339.501 -379.5
s-314.834 -143.5 -495.501 -143.5c-84 0 -166.167 11.167 -246.5 33.5s-154.333 53.5 -222 93.5s-130 88.5 -187 145.5s-105.5 119.333 -145.5 187s-71.167 141.667 -93.5 222s-33.5 162.5 -33.5 246.5s11.167 166.167 33.5 246.5s53.5 154.333 93.5 222s88.5 130 145.5 187
s119.333 105.5 187 145.5s141.667 71.167 222 93.5s162.5 33.5 246.5 33.5c124 0 241.833 -23.333 353.5 -70s210.167 -112 295.5 -196l81 81l75.5 75l59.5 60.5l48.5 48c15 14.333 24.167 23.5 27.5 27.5c12.667 10.667 19 8.33398 19 -6.99902v-774
c0 -3.33301 -1.33301 -6.33301 -4 -9s-5.66699 -4 -9 -4zM1965 1568h-1h1z" />
    <glyph glyph-name=".null" horiz-adv-x="0" 
 />
    <glyph glyph-name="nonmarkingreturn" 
 />
  </font>
</defs>
</svg>
